<?xml version="1.0" encoding="utf-8"?>
<!-- Generator: Adobe Illustrator 18.0.0, SVG Export Plug-In . SVG Version: 6.00 Build 0)  -->
<!DOCTYPE svg PUBLIC "-//W3C//DTD SVG 1.1//EN" "http://www.w3.org/Graphics/SVG/1.1/DTD/svg11.dtd">
<svg version="1.1" id="Layer_1" xmlns="http://www.w3.org/2000/svg" xmlns:xlink="http://www.w3.org/1999/xlink" x="0px" y="0px"
	 viewBox="0 0 195 239" enable-background="new 0 0 195 239" xml:space="preserve">
<g>
	<rect x="15.3" y="14.9" fill="#2F91C7" width="167.3" height="27.3"/>
	<path fill="#013564" d="M182.7,43.7H15.3c-0.8,0-1.5-0.7-1.5-1.5V10.9c0-0.8,0.7-1.5,1.5-1.5h167.3c0.8,0,1.5,0.7,1.5,1.5v31.2
		C184.2,43,183.5,43.7,182.7,43.7z M16.9,40.6h164.2V12.5H16.9V40.6z"/>
	<g>
		<rect x="17.6" y="212.3" fill="#2F91C7" width="163.1" height="12"/>
		<g>
			<polyline fill="#236D95" points="10.2,185.1 17.6,212.3 181.1,212.3 187.8,185.1 			"/>
			<path fill="#013564" d="M181.1,213.9H17.6c-0.7,0-1.3-0.5-1.5-1.1l-7.4-27.2c-0.2-0.8,0.3-1.7,1.1-1.9c0.8-0.2,1.7,0.3,1.9,1.1
				l7.1,26.1h161.1l6.4-26.1c0.2-0.8,1-1.3,1.9-1.1c0.8,0.2,1.3,1,1.1,1.9l-6.7,27.2C182.4,213.4,181.8,213.9,181.1,213.9z"/>
		</g>
		<g>
			<rect x="23.5" y="48.6" fill="#2F91C7" width="150.5" height="105.3"/>
			<path fill="#013564" d="M174,155.4H23.5c-0.8,0-1.5-0.7-1.5-1.5V48.6c0-0.8,0.7-1.5,1.5-1.5H174c0.8,0,1.5,0.7,1.5,1.5v105.3
				C175.5,154.7,174.8,155.4,174,155.4z M25,152.3h147.4V50.1H25V152.3z"/>
		</g>
		<g>
			<polyline fill="#236D95" points="30.9,48.6 30.9,153.9 39.9,134.2 39.9,48.6 			"/>
			<path fill="#013564" d="M30.9,155.4c-0.1,0-0.2,0-0.3,0c-0.7-0.2-1.2-0.8-1.2-1.5V48.6h3.1v98.3l6-13V48.6h3.1v85.6
				c0,0.2,0,0.4-0.1,0.6l-9,19.7C32,155.1,31.5,155.4,30.9,155.4z"/>
		</g>
		<g>
			<polyline fill="#236D95" points="166.5,48.6 166.5,153.9 157.5,134.2 157.5,48.6 			"/>
			<path fill="#013564" d="M166.5,155.4c-0.6,0-1.1-0.3-1.4-0.9l-9-19.7c-0.1-0.2-0.1-0.4-0.1-0.6V48.6h3.1v85.3l6,13V48.6h3.1
				v105.3c0,0.7-0.5,1.3-1.2,1.5C166.8,155.4,166.6,155.4,166.5,155.4z"/>
		</g>
		<g>
			<polyline fill="#2F91C7" points="10.2,185.1 20.5,153.9 177.5,153.9 187.8,185.1 			"/>
			<path fill="#013564" d="M187.8,186.6c-0.6,0-1.2-0.4-1.5-1.1l-9.9-30.2H21.6l-9.9,30.2c-0.3,0.8-1.1,1.2-1.9,1
				c-0.8-0.3-1.2-1.1-1-1.9L19,153.4c0.2-0.6,0.8-1.1,1.5-1.1h157.1c0.7,0,1.3,0.4,1.5,1.1l10.2,31.2c0.3,0.8-0.2,1.7-1,1.9
				C188.1,186.6,187.9,186.6,187.8,186.6z"/>
		</g>
		<g>
			<line fill="#2F91C7" x1="157.5" y1="134.2" x2="39.9" y2="134.2"/>
			<rect x="39.9" y="132.6" fill="#013564" width="117.6" height="3.1"/>
		</g>
		<rect x="179.2" y="212.3" fill="#013564" width="3.1" height="16.1"/>
		<rect x="16.1" y="212.3" fill="#013564" width="3.1" height="16.1"/>
		<g>
			<path fill="#011B32" d="M134.6,127.7H63.9c-9,0-16.3-7.3-16.3-16.3V72.3c0-9,7.3-16.3,16.3-16.3h70.7c9,0,16.3,7.3,16.3,16.3
				v39.1C150.9,120.4,143.6,127.7,134.6,127.7z"/>
			<path fill="#013564" d="M134.6,129.2H63.9c-9.8,0-17.9-8-17.9-17.9V72.3c0-9.8,8-17.9,17.9-17.9h70.7c9.8,0,17.9,8,17.9,17.9
				v39.1C152.5,121.2,144.5,129.2,134.6,129.2z M63.9,57.5c-8.2,0-14.8,6.6-14.8,14.8v39.1c0,8.2,6.6,14.8,14.8,14.8h70.7
				c8.2,0,14.8-6.6,14.8-14.8V72.3c0-8.2-6.6-14.8-14.8-14.8H63.9z"/>
		</g>
		<g>
			<g>
				<g>
					<g>
						<path fill="#428FCD" d="M142.7,79.1l-4.3-1.5c-0.8,0.9-1.9,1.3-3.1,0.9c-1.2-0.4-1.8-1.4-1.8-2.6c0,0-2.3-0.8-2.6-1
							c-0.4-0.1-0.6-0.2-0.4,0.4c0.2,0.4,6.6,18.1,6.6,18.1c0.5,1.3,0.9,1.3,1.3,0.1l4.8-13.3C143.3,79.7,143.1,79.3,142.7,79.1z
							 M136.8,84.6c-0.1,0.4-0.6,0.6-1,0.5c-0.4-0.1-0.6-0.6-0.5-1s0.6-0.6,1-0.5C136.8,83.8,137,84.2,136.8,84.6z M139.4,85.6
							c-0.1,0.4-0.6,0.6-1,0.5c-0.4-0.1-0.6-0.6-0.5-1c0.1-0.4,0.6-0.6,1-0.5C139.4,84.8,139.6,85.2,139.4,85.6z"/>
					</g>
				</g>
				<g>
					<g>
						<path fill="#E63F36" d="M127.2,74.2l-5.4,1.9c0,1.4-0.9,2.8-2.3,3.3c-1.4,0.5-3,0.1-3.9-1.1l-5.4,1.9
							c-0.5,0.2-0.8,0.7-0.6,1.2l8.3,22.8c0.2,0.5,0.7,0.8,1.2,0.6l5.4-1.9c0-1.4,0.9-2.8,2.3-3.3c1.4-0.5,3-0.1,3.9,1.1l5.4-1.9
							c0.5-0.2,0.8-0.7,0.6-1.2l-8.3-22.8C128.3,74.3,127.7,74,127.2,74.2z M115.8,88.8c-0.6,0.4-1.3,0-1.4-0.7
							c0-0.3,0.1-0.7,0.4-0.9c0.6-0.4,1.3,0,1.4,0.7C116.2,88.3,116.1,88.6,115.8,88.8z M119.1,87.7c-0.6,0.4-1.3,0-1.4-0.7
							c0-0.3,0.1-0.7,0.4-0.9c0.6-0.4,1.3,0,1.4,0.7C119.5,87.1,119.3,87.5,119.1,87.7z M122.3,86.5c-0.6,0.4-1.3,0-1.4-0.7
							c0-0.3,0.1-0.7,0.4-0.9c0.6-0.4,1.3,0,1.4,0.7C122.8,85.9,122.6,86.3,122.3,86.5z M125.6,85.3c-0.6,0.4-1.3,0-1.4-0.7
							c0-0.3,0.1-0.7,0.4-0.9c0.6-0.4,1.3,0,1.4,0.7C126,84.8,125.9,85.2,125.6,85.3z M128.9,84.1c-0.6,0.4-1.3,0-1.4-0.7
							c0-0.3,0.1-0.7,0.4-0.9c0.6-0.4,1.3,0,1.4,0.7C129.2,83.6,129,83.9,128.9,84.1z"/>
					</g>
				</g>
			</g>
			<g>
				<path fill="#FFFFFF" d="M60.2,83.8l-1.6,0.4c-0.2,0.1-0.6,0.1-0.8,0.1c-1,0-1.9-0.9-1.9-1.9c0-0.9,0.6-1.7,1.5-1.9l2.9-0.8
					c0.8-0.2,1.5-0.4,2.1-0.4h0.1c1.2,0,2.2,1,2.2,2.2v16.4c0,1.2-1,2.2-2.2,2.2s-2.2-1-2.2-2.2V83.8z"/>
				<path fill="#FFFFFF" d="M69.4,91.2v-9.6c0-1.2,1-2.2,2.2-2.2c1.2,0,2.2,1,2.2,2.2V91c0,3.3,1.7,5,4.4,5s4.4-1.7,4.4-4.9v-9.6
					c0-1.2,1-2.2,2.2-2.2c1.2,0,2.2,1,2.2,2.2V91c0,6.2-3.5,9.2-8.9,9.2S69.4,97.1,69.4,91.2z"/>
				<path fill="#FFFFFF" d="M91.7,81.8c0-1.2,1-2.2,2.2-2.2h6.1c4.8,0,7.8,2.9,7.8,7v0.1c0,4.7-3.7,7.1-8.2,7.1h-3.4v4
					c0,1.2-1,2.2-2.2,2.2c-1.2,0-2.2-1-2.2-2.2V81.8z M99.7,89.8c2.2,0,3.5-1.3,3.5-3.1v-0.1c0-2-1.4-3.1-3.6-3.1h-3.5v6.2H99.7z"/>
			</g>
		</g>
		<path fill="#FFFFFF" d="M142.5,109.7H55.7c-0.6,0-1-0.4-1-1s0.4-1,1-1h86.8c0.6,0,1,0.4,1,1S143.1,109.7,142.5,109.7z"/>
		<path fill="#FFFFFF" d="M142.5,70.8H55.7c-0.6,0-1-0.4-1-1s0.4-1,1-1h86.8c0.6,0,1,0.4,1,1S143.1,70.8,142.5,70.8z"/>
		<g>
			<path fill="#FFFFFF" d="M63.4,116.9c0-0.3,0.2-0.5,0.5-0.5h1.9c0.3,0,0.5,0.2,0.5,0.5c0,0.3-0.2,0.5-0.5,0.5h-1.9
				C63.6,117.3,63.4,117.1,63.4,116.9z"/>
			<path fill="#FFFFFF" d="M74.9,117.1l-1.5-2c-0.1-0.1-0.1-0.2-0.1-0.4c0-0.3,0.2-0.5,0.5-0.5c0.2,0,0.4,0.1,0.5,0.3l1.1,1.6
				l1.1-1.6c0.1-0.2,0.3-0.3,0.5-0.3c0.3,0,0.5,0.2,0.5,0.5c0,0.1-0.1,0.3-0.1,0.4l-1.5,2v1.3c0,0.3-0.2,0.5-0.5,0.5
				c-0.3,0-0.5-0.2-0.5-0.5V117.1z"/>
			<path fill="#FFFFFF" d="M80.1,116.6L80.1,116.6c0-1.3,1-2.4,2.4-2.4c1.4,0,2.4,1,2.4,2.3v0c0,1.3-1,2.4-2.4,2.4
				C81.1,119,80.1,117.9,80.1,116.6z M83.9,116.6L83.9,116.6c0-0.8-0.6-1.4-1.4-1.4c-0.8,0-1.4,0.6-1.4,1.4v0c0,0.8,0.6,1.4,1.4,1.4
				S83.9,117.4,83.9,116.6z"/>
			<path fill="#FFFFFF" d="M88.1,116.9v-2.1c0-0.3,0.2-0.5,0.5-0.5c0.3,0,0.5,0.2,0.5,0.5v2.1c0,0.7,0.4,1.1,1,1.1s1-0.4,1-1.1v-2.1
				c0-0.3,0.2-0.5,0.5-0.5c0.3,0,0.5,0.2,0.5,0.5v2.1c0,1.4-0.8,2.1-2,2.1C88.8,118.9,88.1,118.3,88.1,116.9z"/>
			<path fill="#FFFFFF" d="M99.4,115c0-0.1,0-0.1,0-0.2c0-0.3,0.2-0.5,0.5-0.5c0.2,0,0.4,0.1,0.5,0.4l0.9,2.8l0.9-2.8
				c0.1-0.2,0.3-0.4,0.5-0.4h0.1c0.3,0,0.4,0.2,0.5,0.4l0.9,2.8l0.9-2.8c0.1-0.2,0.2-0.4,0.5-0.4c0.3,0,0.5,0.2,0.5,0.5
				c0,0.1,0,0.1,0,0.2l-1.3,3.6c-0.1,0.3-0.3,0.4-0.5,0.4h-0.1c-0.2,0-0.4-0.1-0.5-0.4l-0.9-2.6l-0.9,2.6c-0.1,0.3-0.3,0.4-0.5,0.4
				h-0.1c-0.2,0-0.4-0.2-0.5-0.4L99.4,115z"/>
			<path fill="#FFFFFF" d="M109.2,114.8c0-0.3,0.2-0.5,0.5-0.5s0.5,0.2,0.5,0.5v3.6c0,0.3-0.2,0.5-0.5,0.5s-0.5-0.2-0.5-0.5V114.8z"
				/>
			<path fill="#FFFFFF" d="M113.7,114.8c0-0.3,0.2-0.5,0.5-0.5h0.1c0.2,0,0.4,0.1,0.5,0.3l1.9,2.5v-2.3c0-0.3,0.2-0.5,0.5-0.5
				c0.3,0,0.5,0.2,0.5,0.5v3.6c0,0.3-0.2,0.5-0.5,0.5h0c-0.2,0-0.4-0.1-0.5-0.3l-2-2.6v2.4c0,0.3-0.2,0.5-0.5,0.5s-0.5-0.2-0.5-0.5
				V114.8z"/>
			<path fill="#FFFFFF" d="M121.1,114.6c0-0.2,0.1-0.3,0.3-0.3h0.6c0.2,0,0.3,0.1,0.3,0.3l-0.3,2.4c0,0.2-0.1,0.3-0.3,0.3
				s-0.3-0.1-0.3-0.3L121.1,114.6z M121.7,117.8c0.3,0,0.6,0.2,0.6,0.6v0c0,0.3-0.2,0.6-0.6,0.6c-0.3,0-0.6-0.2-0.6-0.6v0
				C121.2,118,121.4,117.8,121.7,117.8z"/>
			<path fill="#FFFFFF" d="M129.7,116.9c0-0.3,0.2-0.5,0.5-0.5h1.9c0.3,0,0.5,0.2,0.5,0.5c0,0.3-0.2,0.5-0.5,0.5h-1.9
				C129.9,117.3,129.7,117.1,129.7,116.9z"/>
		</g>
		<g>
			<path fill="#FFFFFF" d="M66.8,22.7L64.6,22c-0.4,0.4-1,0.6-1.6,0.4c-0.6-0.2-0.9-0.7-0.9-1.3c0,0-1.2-0.4-1.3-0.5
				c-0.2,0-0.3-0.1-0.2,0.2c0.1,0.2,3.3,9.1,3.3,9.1c0.2,0.7,0.4,0.6,0.6,0l2.4-6.7C67.1,23,67,22.8,66.8,22.7z M63.8,25.5
				c0,0.2-0.3,0.3-0.5,0.2c-0.2,0-0.3-0.3-0.2-0.5c0-0.2,0.3-0.3,0.5-0.2C63.8,25.1,63.9,25.3,63.8,25.5z M65.1,26
				c0,0.2-0.3,0.3-0.5,0.2c-0.2,0-0.3-0.3-0.2-0.5s0.3-0.3,0.5-0.2C65.1,25.6,65.2,25.8,65.1,26z"/>
			<path fill="#FFFFFF" d="M59,20.3l-2.7,1c0,0.7-0.4,1.4-1.2,1.6s-1.5,0-1.9-0.5l-2.7,1c-0.2,0.1-0.4,0.3-0.3,0.6l4.2,11.5
				c0.1,0.2,0.3,0.4,0.6,0.3l2.7-1c0-0.7,0.4-1.4,1.2-1.6c0.7-0.2,1.5,0,1.9,0.5l2.7-1c0.2-0.1,0.4-0.3,0.3-0.6l-4.2-11.5
				C59.6,20.3,59.3,20.2,59,20.3z M53.3,27.6c-0.3,0.2-0.7,0-0.7-0.3c0-0.1,0-0.3,0.2-0.4c0.3-0.2,0.7,0,0.7,0.3
				C53.5,27.4,53.4,27.5,53.3,27.6z M54.9,27c-0.3,0.2-0.7,0-0.7-0.3c0-0.1,0-0.3,0.2-0.4c0.3-0.2,0.7,0,0.7,0.3
				C55.1,26.8,55,27,54.9,27z M56.5,26.5c-0.3,0.2-0.7,0-0.7-0.3c0-0.1,0-0.3,0.2-0.4c0.3-0.2,0.7,0,0.7,0.3
				C56.8,26.2,56.7,26.4,56.5,26.5z M58.2,25.8c-0.3,0.2-0.7,0-0.7-0.3c0-0.1,0-0.3,0.2-0.4c0.3-0.2,0.7,0,0.7,0.3
				C58.4,25.6,58.3,25.8,58.2,25.8z M59.8,25.3c-0.3,0.2-0.7,0-0.7-0.3c0-0.1,0-0.3,0.2-0.4c0.3-0.2,0.7,0,0.7,0.3
				C60,25,59.9,25.2,59.8,25.3z"/>
			<path fill="#FFFFFF" d="M78,33.7c-0.5,0.1-1.1,0.2-3,0.2c-2,0-3.6-0.5-3.6-3.2v-5.5c0-2.7,1.6-3.2,3.6-3.2c1.9,0,2.5,0.1,3,0.2
				c0.2,0,0.3,0.1,0.3,0.3v1c0,0.2-0.1,0.3-0.3,0.3h-3.2c-0.9,0-1.3,0.3-1.3,1.4V27h4.3c0.2,0,0.3,0.1,0.3,0.3v1.1
				c0,0.2-0.1,0.3-0.3,0.3h-4.3v2c0,1,0.3,1.4,1.3,1.4H78c0.2,0,0.3,0.1,0.3,0.3v1C78.3,33.6,78.3,33.7,78,33.7z"/>
			<path fill="#FFFFFF" d="M86.3,33.8h-1.5c-0.2,0-0.3-0.1-0.3-0.3v-5.1c0-1.4-0.1-1.7-1.4-1.7c-0.5,0-1.1,0.2-1.8,0.6v6.3
				c0,0.2-0.1,0.3-0.3,0.3h-1.5c-0.2,0-0.3-0.1-0.3-0.3v-8.2c0-0.2,0.1-0.3,0.3-0.3h1.4c0.2,0,0.3,0.1,0.3,0.3v0.3
				c0.9-0.6,1.5-0.8,2.6-0.8c2.3,0,2.7,1.5,2.7,3.5v5.1C86.6,33.6,86.5,33.8,86.3,33.8z"/>
			<path fill="#FFFFFF" d="M92.3,33.8c-0.4,0-0.7,0.1-1.1,0.1c-1.8,0-2.5-0.4-2.5-2.5v-4.9l-1.5-0.2c-0.2,0-0.3-0.1-0.3-0.3v-0.7
				c0-0.2,0.1-0.3,0.3-0.3h1.5v-1.3c0-0.2,0.1-0.3,0.3-0.3l1.5-0.2h0c0.1,0,0.2,0.1,0.2,0.2v1.6h1.4c0.2,0,0.3,0.1,0.3,0.3v0.9
				c0,0.2-0.1,0.3-0.3,0.3h-1.4v4.9c0,0.8,0,0.9,0.6,0.9h0.8c0.2,0,0.3,0.1,0.3,0.2v1C92.6,33.7,92.5,33.8,92.3,33.8z"/>
			<path fill="#FFFFFF" d="M97.9,26.8c-0.9,0-1.5,0.2-2.2,0.6v6.1c0,0.2-0.1,0.3-0.3,0.3H94c-0.2,0-0.3-0.1-0.3-0.3v-8.2
				c0-0.2,0.1-0.3,0.3-0.3h1.4c0.2,0,0.3,0.1,0.3,0.3v0.6c0.8-0.6,1.6-0.8,2.2-0.8c0.2,0,0.3,0.1,0.3,0.3v1.2
				C98.2,26.7,98.1,26.8,97.9,26.8z"/>
			<path fill="#FFFFFF" d="M105.1,33.8h-1.4c-0.2,0-0.3-0.1-0.3-0.3v-0.2c-0.7,0.4-1.5,0.7-2.2,0.7c-1.3,0-2.7-0.5-2.7-2.6v0
				c0-1.8,1.1-2.7,3.8-2.7h1v-0.7c0-1-0.4-1.3-1.4-1.3c-1,0-2,0-2.6,0.1c0,0,0,0-0.1,0c-0.1,0-0.3,0-0.3-0.3v-1
				c0-0.2,0.1-0.3,0.3-0.3c0.6-0.1,1.6-0.2,2.6-0.2c2.2,0,3.4,1,3.4,3v5.7C105.4,33.6,105.3,33.8,105.1,33.8z M103.4,29.9h-1
				c-1.5,0-1.7,0.4-1.7,1.4v0c0,0.8,0.3,1,1.1,1c0.6,0,1.2-0.2,1.6-0.4L103.4,29.9L103.4,29.9z"/>
			<path fill="#FFFFFF" d="M113.3,33.5c-1,0.2-2.1,0.4-3.1,0.4c-2.5,0-3.8-1.5-3.8-3.9v-1.2c0-2.5,1.2-3.9,3.8-3.9
				c0.4,0,0.9,0,1.5,0.1v-2.8c0-0.2,0.1-0.3,0.3-0.3h1.5c0.2,0,0.3,0.1,0.3,0.3v10.9C113.8,33.3,113.7,33.4,113.3,33.5z M111.7,26.6
				c-0.4,0-1.1-0.1-1.5-0.1c-1.4,0-1.7,1-1.7,2.2V30c0,1.3,0.3,2.2,1.7,2.2c0.6,0,1.2,0,1.5-0.1V26.6z"/>
			<path fill="#FFFFFF" d="M121.3,33.8h-1.4c-0.2,0-0.3-0.1-0.3-0.3v-0.2c-0.7,0.4-1.5,0.7-2.2,0.7c-1.3,0-2.7-0.5-2.7-2.6v0
				c0-1.8,1.1-2.7,3.8-2.7h1v-0.7c0-1-0.4-1.3-1.4-1.3c-1,0-2,0-2.6,0.1c0,0,0,0-0.1,0c-0.1,0-0.3,0-0.3-0.3v-1
				c0-0.2,0.1-0.3,0.3-0.3c0.6-0.1,1.6-0.2,2.6-0.2c2.2,0,3.4,1,3.4,3v5.7C121.6,33.6,121.4,33.8,121.3,33.8z M119.5,29.9h-1
				c-1.5,0-1.7,0.4-1.7,1.4v0c0,0.8,0.3,1,1.1,1c0.6,0,1.2-0.2,1.6-0.4V29.9z"/>
			<path fill="#FFFFFF" d="M130.7,23.9h-3.2c-0.9,0-1.3,0.3-1.3,1.4v1.7h4.3c0.2,0,0.3,0.1,0.3,0.3v1.1c0,0.2-0.1,0.3-0.3,0.3h-4.3
				v4.8c0,0.2-0.1,0.3-0.3,0.3h-1.6c-0.2,0-0.3-0.1-0.3-0.3v-8.2c0-2.7,1.6-3.2,3.6-3.2c1.9,0,2.5,0.1,3,0.2c0.2,0,0.3,0.1,0.3,0.3
				v1C131.1,23.7,130.9,23.9,130.7,23.9z"/>
			<path fill="#FFFFFF" d="M138,33.8h-1.4c-0.2,0-0.3-0.1-0.3-0.3v-0.2c-0.7,0.4-1.5,0.7-2.2,0.7c-1.3,0-2.7-0.5-2.7-2.6v0
				c0-1.8,1.1-2.7,3.8-2.7h1v-0.7c0-1-0.4-1.3-1.4-1.3c-1,0-2,0-2.6,0.1c0,0,0,0-0.1,0c-0.1,0-0.3,0-0.3-0.3v-1
				c0-0.2,0.1-0.3,0.3-0.3c0.6-0.1,1.6-0.2,2.6-0.2c2.2,0,3.4,1,3.4,3v5.7C138.3,33.6,138.2,33.8,138,33.8z M136.2,29.9h-1
				c-1.5,0-1.7,0.4-1.7,1.4v0c0,0.8,0.3,1,1.1,1c0.6,0,1.2-0.2,1.6-0.4V29.9z"/>
			<path fill="#FFFFFF" d="M146.4,33.8H145c-0.2,0-0.3-0.1-0.3-0.3v-5.1c0-1.4-0.1-1.7-1.4-1.7c-0.5,0-1.1,0.2-1.8,0.6v6.3
				c0,0.2-0.1,0.3-0.3,0.3h-1.5c-0.2,0-0.3-0.1-0.3-0.3v-8.2c0-0.2,0.1-0.3,0.3-0.3h1.4c0.2,0,0.3,0.1,0.3,0.3v0.3
				c0.9-0.6,1.5-0.8,2.6-0.8c2.3,0,2.7,1.5,2.7,3.5v5.1C146.7,33.6,146.6,33.8,146.4,33.8z"/>
			<g>
				<path fill="none" d="M58.3,25.2C58.3,25.2,58.3,25.2,58.3,25.2C58.3,25.2,58.3,25.2,58.3,25.2z"/>
				<path fill="none" d="M109.5,28.7V30c0,1.2,0.3,1.2,0.7,1.2c0.2,0,0.3,0,0.5,0v-3.3h-1.1C109.5,28,109.5,28.3,109.5,28.7z"/>
				<path fill="none" d="M57.6,25.7C57.6,25.7,57.6,25.7,57.6,25.7C57.6,25.7,57.6,25.7,57.6,25.7z"/>
				<path fill="none" d="M58,25.9c0.1,0,0.2,0,0.2-0.1c0.1,0,0.2-0.2,0.2-0.4c0,0.2,0,0.4-0.2,0.4C58.1,25.9,58,25.9,58,25.9z"/>
				<path fill="none" d="M91.2,33.9c-1.8,0-2.5-0.4-2.5-2.5v-3.5l0,0v3.5C88.7,33.5,89.4,33.9,91.2,33.9c0.3,0,0.7,0,1.1-0.1
					c0.1,0,0.2,0,0.2-0.1c0,0.1-0.1,0.1-0.2,0.1C91.9,33.8,91.6,33.9,91.2,33.9z"/>
				<polygon fill="none" points="88.7,26.5 87.4,26.2 87.4,26.2 88.7,26.5 88.7,27.8 88.7,27.8 				"/>
				<path fill="none" d="M87,25.2c0-0.1,0-0.2,0.1-0.2C87,25,87,25.1,87,25.2L87,25.2L87,25.2L87,25.2z"/>
				<path fill="none" d="M95.4,24.9c0.1,0,0.2,0,0.2,0.1C95.5,25,95.5,24.9,95.4,24.9l-1.4,0c-0.1,0-0.1,0-0.2,0.1
					c0.1,0,0.1-0.1,0.2-0.1H95.4z"/>
				<path fill="none" d="M95.6,25.8c0.2-0.1,0.4-0.3,0.6-0.4C96,25.5,95.8,25.6,95.6,25.8v-0.6c0-0.1,0-0.1-0.1-0.2
					c0,0.1,0.1,0.1,0.1,0.2V25.8z"/>
				<path fill="none" d="M97.9,25c-0.2,0-0.3,0-0.5,0C97.5,25,97.7,25,97.9,25L97.9,25z"/>
				<path fill="none" d="M57.8,25.9C57.7,25.9,57.7,25.9,57.8,25.9C57.7,25.9,57.7,25.9,57.8,25.9z"/>
				<path fill="none" d="M110.2,27.5c-0.2,0-0.5,0-0.6,0.3h1.1v-0.3C110.5,27.5,110.3,27.5,110.2,27.5z"/>
				<path fill="none" d="M92.2,27.4h-0.4v0.4h1v-0.6C92.5,27.4,92.4,27.4,92.2,27.4z"/>
				<path fill="none" d="M88.7,23.6c0-0.1,0.1-0.2,0.2-0.2C88.8,23.4,88.7,23.5,88.7,23.6v1.3l0,0V23.6z"/>
				<path fill="none" d="M64.6,30C64.6,30,64.6,30,64.6,30C64.6,30,64.6,30,64.6,30l0.8-2.1l0,0L64.6,30z"/>
				<path fill="none" d="M65.4,27.8L65.4,27.8l1.7-4.6c0-0.1,0-0.2,0-0.3c0,0.1,0.1,0.2,0,0.3L65.4,27.8z"/>
				<path fill="none" d="M81.5,27.2L81.5,27.2c0.7-0.3,1.3-0.6,1.8-0.6c0.3,0,0.5,0,0.7,0.1c-0.2-0.1-0.4-0.1-0.7-0.1
					C82.7,26.6,82.1,26.9,81.5,27.2z"/>
				<path fill="none" d="M79.4,25.3C79.4,25.2,79.4,25.2,79.4,25.3C79.4,25.2,79.4,25.2,79.4,25.3v2.6l0,0V25.3z"/>
				<path fill="none" d="M79.7,33.8c-0.2,0-0.3-0.1-0.3-0.3v-5.6l0,0v5.6C79.4,33.7,79.5,33.8,79.7,33.8l1.5,0c0.1,0,0.1,0,0.2-0.1
					c-0.1,0.1-0.1,0.1-0.2,0.1H79.7z"/>
				<path fill="none" d="M84.4,27c0.1,0.2,0.2,0.5,0.2,0.9l0,0C84.6,27.5,84.5,27.2,84.4,27z"/>
				<path fill="none" d="M56.5,25.7C56.5,25.7,56.5,25.7,56.5,25.7C56.5,25.7,56.5,25.7,56.5,25.7z"/>
				<path fill="none" d="M84.6,33.4v-5.1c0-0.2,0-0.4,0-0.5l0,0c0,0.2,0,0.3,0,0.5V33.4c0,0.2,0.1,0.3,0.3,0.3
					C84.7,33.8,84.6,33.6,84.6,33.4z"/>
				<path fill="none" d="M53.2,26.8C53.2,26.8,53.2,26.8,53.2,26.8C53.2,26.8,53.2,26.8,53.2,26.8z"/>
				<path fill="none" d="M52.8,26.9c0.1-0.1,0.2-0.1,0.2-0.1C52.9,26.8,52.8,26.8,52.8,26.9z"/>
				<path fill="none" d="M52.6,27.2c0-0.1,0.1-0.2,0.2-0.3C52.7,26.9,52.6,27,52.6,27.2z"/>
				<path fill="none" d="M64.2,30.3c0,0,0.1,0.1,0.1,0.1l0,0C64.3,30.4,64.3,30.4,64.2,30.3z"/>
				<path fill="none" d="M63.8,32c0,0.1,0,0.1,0,0.2C63.8,32.2,63.8,32.1,63.8,32l-0.5-1.3v0L63.8,32z"/>
				<path fill="none" d="M101.8,32.3c0.3,0,0.6,0,0.9-0.1C102.3,32.2,102,32.3,101.8,32.3L101.8,32.3z"/>
				<path fill="none" d="M101.2,30.1c-0.2,0.1-0.3,0.2-0.4,0.3C100.9,30.3,101,30.2,101.2,30.1z"/>
				<path fill="none" d="M59.8,25.3c-0.1,0-0.2,0.1-0.2,0.1C59.7,25.3,59.8,25.3,59.8,25.3z"/>
				<path fill="none" d="M103.4,33.5v-0.2l0,0V33.5c0,0.1,0.1,0.3,0.3,0.3C103.5,33.8,103.4,33.6,103.4,33.5z"/>
				<path fill="none" d="M59.4,25.3C59.4,25.3,59.4,25.3,59.4,25.3C59.4,25.3,59.4,25.3,59.4,25.3z"/>
				<path fill="none" d="M103.4,31.8c-0.2,0.1-0.5,0.2-0.7,0.3C102.9,32.1,103.1,32,103.4,31.8v-1.9l0,0V31.8z"/>
				<path fill="none" d="M53.4,26.9C53.4,27,53.4,27,53.4,26.9C53.4,27,53.4,27,53.4,26.9z"/>
				<path fill="none" d="M59.9,24.6C59.9,24.6,59.9,24.6,59.9,24.6C59.9,24.6,59.9,24.6,59.9,24.6z"/>
				<path fill="none" d="M101.6,31.3c0,0,0.1,0,0.1,0c0.2,0,0.4,0,0.6-0.1v-0.3c-0.4,0-0.6,0-0.7,0.1
					C101.6,31,101.6,31.1,101.6,31.3z"/>
				<path fill="none" d="M100.6,31.3c0,0.5,0.2,0.8,0.5,0.9C100.8,32.1,100.6,31.8,100.6,31.3z"/>
				<path fill="none" d="M98.5,31.3L98.5,31.3c0-0.5,0.1-0.9,0.2-1.2C98.6,30.4,98.5,30.8,98.5,31.3L98.5,31.3
					c0,1.2,0.5,1.9,1.1,2.3C99,33.2,98.5,32.5,98.5,31.3z"/>
				<path fill="none" d="M111.7,26.6c-0.2,0-0.5,0-0.7-0.1C111.2,26.6,111.5,26.6,111.7,26.6L111.7,26.6z"/>
				<path fill="none" d="M99.2,25.1C99.2,25.1,99.2,25.1,99.2,25.1L99.2,25.1C99.2,25.1,99.2,25.1,99.2,25.1z"/>
				<path fill="none" d="M59.2,25.2C59.2,25.1,59.2,25.1,59.2,25.2C59.2,25.1,59.2,25.1,59.2,25.2z"/>
				<path fill="none" d="M57.7,25.1c0.1-0.1,0.2-0.1,0.2-0.1C57.8,25,57.7,25,57.7,25.1z"/>
				<path fill="none" d="M59.1,24.9c0-0.1,0-0.2,0-0.2C59.1,24.8,59.1,24.8,59.1,24.9L59.1,24.9L59.1,24.9z"/>
				<path fill="none" d="M95.7,33.4c0,0.2-0.1,0.3-0.3,0.3C95.6,33.8,95.7,33.6,95.7,33.4v-5.6l0,0V33.4z"/>
				<path fill="none" d="M95.7,27.8L95.7,27.8v-0.5c0.2-0.1,0.4-0.2,0.6-0.3c-0.2,0.1-0.4,0.2-0.6,0.3V27.8z"/>
				<path fill="none" d="M104.9,26.2c-0.5-0.9-1.5-1.3-3-1.3c-1.1,0-2,0.1-2.6,0.2c0.6-0.1,1.6-0.2,2.6-0.2
					C103.3,24.9,104.4,25.3,104.9,26.2z"/>
				<path fill="none" d="M58.1,25C58.1,25,58.1,25,58.1,25C58.1,25,58.1,25,58.1,25z"/>
				<path fill="none" d="M102.6,26.7c0.1,0,0.3,0.1,0.4,0.2C102.9,26.8,102.7,26.7,102.6,26.7z"/>
				<path fill="none" d="M55,26.4C55,26.4,55,26.4,55,26.4C55,26.4,55,26.4,55,26.4z"/>
				<path fill="none" d="M59.6,24.4c-0.1,0-0.2,0-0.2,0.1c-0.1,0-0.1,0.1-0.2,0.2c0-0.1,0.1-0.2,0.2-0.2
					C59.4,24.4,59.5,24.4,59.6,24.4z"/>
				<path fill="none" d="M59.9,25.2C60,25.1,60,25,60,24.8c0,0,0,0,0,0c0,0,0,0,0,0C60,25,60,25.1,59.9,25.2z"/>
				<path fill="none" d="M116.2,27.8c0.3-0.1,0.7-0.2,1.1-0.2c-0.7,0-1.3,0.1-1.6,0.1l-0.1,0h-0.1h-0.1c-0.3,0-0.5-0.1-0.7-0.2v0.3
					H116.2z"/>
				<path fill="none" d="M55.9,26.4C55.9,26.4,55.9,26.3,55.9,26.4C55.9,26.3,55.9,26.4,55.9,26.4z"/>
				<path fill="none" d="M116.8,31.3L116.8,31.3c0-0.4,0-0.7,0.2-0.9C116.8,30.6,116.8,30.9,116.8,31.3L116.8,31.3
					c0,0.6,0.2,0.8,0.6,0.9C117,32.1,116.8,31.9,116.8,31.3z"/>
				<path fill="none" d="M56.6,25.8C56.6,25.8,56.6,25.8,56.6,25.8C56.6,25.8,56.6,25.8,56.6,25.8z"/>
				<path fill="none" d="M119.5,31.8c-0.2,0.1-0.5,0.2-0.7,0.3C119,32.1,119.3,32,119.5,31.8z"/>
				<path fill="none" d="M117.9,32.3c0.3,0,0.6,0,0.9-0.1C118.5,32.2,118.2,32.3,117.9,32.3L117.9,32.3z"/>
				<path fill="none" d="M63.7,25.7c-0.1,0-0.1,0.1-0.2,0.1C63.5,25.7,63.6,25.7,63.7,25.7z"/>
				<path fill="none" d="M117.8,31.3c0,0,0.1,0,0.1,0c0.2,0,0.4,0,0.6-0.1v-0.3c-0.4,0-0.6,0-0.7,0.1
					C117.8,31,117.8,31.1,117.8,31.3z"/>
				<path fill="none" d="M91.8,31.2h0.5c0.2,0,0.3,0,0.5,0.1v-3.5h-1V31.2z"/>
				<path fill="none" d="M114.7,28.7c0.4-0.3,0.9-0.6,1.5-0.8h-1.5V28.7z"/>
				<path fill="none" d="M94,33.8L94,33.8c-0.1,0-0.1,0-0.1-0.1C93.9,33.7,93.9,33.8,94,33.8z"/>
				<path fill="none" d="M56.5,26.5c-0.1,0.1-0.2,0.1-0.2,0.1C56.4,26.5,56.5,26.5,56.5,26.5z"/>
				<path fill="none" d="M107.3,25.9C107.4,25.8,107.4,25.8,107.3,25.9C107.4,25.8,107.4,25.8,107.3,25.9z"/>
				<polygon fill="none" points="55.1,26.6 55.1,26.6 55.1,26.6 				"/>
				<path fill="none" d="M56.1,26.5C56.1,26.5,56.1,26.5,56.1,26.5C56.1,26.5,56.1,26.5,56.1,26.5z"/>
				<path fill="none" d="M54.9,26.2C54.9,26.2,54.9,26.3,54.9,26.2C54.9,26.3,54.9,26.2,54.9,26.2z"/>
				<path fill="none" d="M119.6,33.5v-0.2l0,0V33.5c0,0.1,0.1,0.3,0.3,0.3C119.7,33.8,119.6,33.6,119.6,33.5z"/>
				<path fill="none" d="M114.7,31.7L114.7,31.7c0.1,1,0.5,1.6,1.1,1.9C115.2,33.2,114.8,32.7,114.7,31.7z"/>
				<path fill="none" d="M56.3,25.6c-0.1,0-0.2,0-0.2,0.1c0,0-0.1,0.1-0.1,0.1c0,0,0-0.1,0.1-0.1C56.1,25.6,56.2,25.6,56.3,25.6z"/>
				<path fill="none" d="M63.2,25.1c-0.1,0-0.1,0.1-0.1,0.2c0,0,0,0.1,0,0.2c0-0.1,0-0.1,0-0.2C63.1,25.2,63.2,25.1,63.2,25.1z"/>
				<path fill="none" d="M115.6,29.2c-0.5,0.4-0.8,0.9-0.9,1.7v0C114.8,30.2,115.1,29.6,115.6,29.2z"/>
				<path fill="none" d="M63.8,25.5c0,0.1-0.1,0.1-0.1,0.2C63.7,25.6,63.8,25.6,63.8,25.5c0.1-0.2,0-0.4-0.2-0.5l0,0l0,0
					C63.8,25.1,63.9,25.3,63.8,25.5z"/>
				<polygon fill="none" points="66.2,22.5 64.6,22 64.6,22 64.6,22 				"/>
				<path fill="none" d="M54.4,26.3c0.1,0,0.2-0.1,0.2-0.1C54.6,26.2,54.5,26.2,54.4,26.3z"/>
				<path fill="none" d="M116,26.7c0.6-0.1,1.3-0.1,2.1-0.1c0.2,0,0.5,0,0.6,0.1c-0.2,0-0.4-0.1-0.6-0.1
					C117.3,26.6,116.6,26.6,116,26.7z"/>
				<path fill="none" d="M115.1,25.4c0-0.2,0.1-0.3,0.3-0.3c0.2,0,0.3-0.1,0.5-0.1c-0.2,0-0.4,0.1-0.5,0.1
					C115.2,25.2,115.1,25.3,115.1,25.4l0,1c0,0.1,0,0.2,0.1,0.2c-0.1,0-0.1-0.1-0.1-0.2V25.4z"/>
				<path fill="none" d="M120.6,25.6c-0.6-0.5-1.4-0.7-2.6-0.7c-0.5,0-1,0-1.4,0.1c0.4,0,0.9-0.1,1.4-0.1
					C119.1,24.9,120,25.1,120.6,25.6z"/>
				<path fill="none" d="M118.7,26.7c0.3,0.1,0.5,0.2,0.6,0.4C119.2,26.8,119,26.7,118.7,26.7z"/>
				<path fill="none" d="M74.8,32H78c0.1,0,0.2,0,0.2,0.1c0-0.1-0.1-0.1-0.2-0.1L74.8,32c-0.6,0-0.9-0.1-1.1-0.5
					C73.9,31.9,74.2,32,74.8,32z"/>
				<path fill="none" d="M73.6,30.7c0,0.4,0,0.7,0.2,0.9C73.6,31.4,73.6,31.1,73.6,30.7v-2l0,0V30.7z"/>
				<path fill="none" d="M54.3,27C54.3,26.9,54.3,26.9,54.3,27C54.3,26.9,54.3,26.9,54.3,27z"/>
				<path fill="none" d="M65.2,25.8C65.2,25.8,65.2,25.9,65.2,25.8C65.2,25.8,65.2,25.8,65.2,25.8z"/>
				<path fill="none" d="M65.1,26c0,0.1-0.1,0.1-0.1,0.2C65.1,26.1,65.1,26.1,65.1,26z"/>
				<path fill="none" d="M64.6,25.5c0.1,0,0.1-0.1,0.2-0.1C64.7,25.5,64.6,25.5,64.6,25.5z"/>
				<path fill="none" d="M63.5,22.5c-0.1,0-0.3,0-0.4-0.1c-0.1,0-0.3-0.1-0.4-0.2c0.1,0.1,0.2,0.2,0.4,0.2
					C63.2,22.4,63.4,22.5,63.5,22.5z"/>
				<path fill="none" d="M82.2,25.1c-0.3,0.1-0.5,0.2-0.8,0.4v0C81.7,25.4,81.9,25.2,82.2,25.1z"/>
				<path fill="none" d="M107.3,32.8c0.6,0.7,1.6,1.1,2.8,1.1c0.6,0,1.3-0.1,2-0.2c-0.7,0.1-1.3,0.2-2,0.2
					C108.9,33.9,108,33.5,107.3,32.8z"/>
				<path fill="none" d="M78.5,24.8c-0.2,0.1-0.3,0.1-0.5,0.1h-3.2c-0.1,0-0.2,0-0.2,0c0,0.1,0,0.2,0,0.3V26h3.3
					c0.2,0,0.4,0.1,0.6,0.2v-0.9C78.4,25.1,78.5,24.9,78.5,24.8z"/>
				<path fill="none" d="M54.7,27.1c0.1,0,0.2,0,0.2-0.1c0,0,0.1-0.1,0.1-0.2c0,0.1-0.1,0.2-0.1,0.2C54.9,27.1,54.8,27.1,54.7,27.1z
					"/>
				<path fill="none" d="M111.7,24.9L111.7,24.9c-0.6,0-1.1-0.1-1.5-0.1c-1,0-1.7,0.2-2.3,0.6c0.6-0.4,1.4-0.6,2.3-0.6
					C110.6,24.8,111.1,24.9,111.7,24.9z"/>
				<path fill="none" d="M63.2,25.1c0.1,0,0.1-0.1,0.2-0.1C63.4,25,63.3,25,63.2,25.1z"/>
				<path fill="none" d="M73.7,33.8c-0.1,0-0.2,0-0.3-0.1C73.5,33.8,73.6,33.8,73.7,33.8z"/>
				<path fill="none" d="M64.5,25.6c-0.1,0-0.1,0.1-0.1,0.2c0,0,0,0.1,0,0.2c0-0.1,0-0.1,0-0.2C64.4,25.7,64.5,25.6,64.5,25.6z"/>
				<path fill="none" d="M77.6,22.2c0.1,0,0.2,0,0.3,0.1C77.9,22.2,77.8,22.2,77.6,22.2z"/>
				<path fill="none" d="M74.6,29.6v1c0,0.2,0,0.3,0,0.3c0,0,0.1,0,0.2,0H78c0.1,0,0.3,0,0.4,0.1v-1.6c-0.2,0.1-0.4,0.2-0.6,0.2
					H74.6z"/>
				<path fill="none" d="M78.1,27.2C78.1,27.2,78.1,27.2,78.1,27.2C78.1,27.2,78.1,27.2,78.1,27.2L78.1,27.2z"/>
				<path fill="none" d="M78.3,33.3L78.3,33.3c0,0.1,0,0.1,0,0.2C78.3,33.5,78.3,33.4,78.3,33.3z"/>
				<path fill="none" d="M78.3,23.6c0,0.1,0,0.2-0.1,0.2C78.3,23.8,78.3,23.7,78.3,23.6v-1c0-0.1,0-0.2,0-0.2c0,0,0,0.1,0,0.2V23.6z
					"/>
				<path fill="none" d="M77.3,22.1C76.9,22.1,76.2,22,75,22c-1.3,0-2.4,0.2-3,1c0.6-0.8,1.7-1,3-1C76.2,22,76.9,22.1,77.3,22.1z"/>
				<path fill="none" d="M65,26.2c-0.1,0-0.1,0.1-0.2,0.1C64.8,26.2,64.9,26.2,65,26.2z"/>
				<path fill="none" d="M73.6,27L73.6,27v-1.7c0-0.4,0-0.7,0.2-0.9c-0.1,0.2-0.2,0.5-0.2,0.9V27z"/>
				<path fill="none" d="M54.5,27.1C54.5,27.1,54.5,27.1,54.5,27.1C54.5,27.1,54.5,27.1,54.5,27.1z"/>
				<path fill="none" d="M65,25.6c0,0-0.1-0.1-0.2-0.1l0,0l0,0C64.9,25.5,65,25.6,65,25.6z"/>
				<path fill="none" d="M99.8,26.7c0.6-0.1,1.3-0.1,2.1-0.1c0.2,0,0.4,0,0.6,0c-0.2,0-0.4,0-0.6,0C101.1,26.6,100.4,26.6,99.8,26.7
					z"/>
				<path fill="none" d="M50.2,23.6c0,0.1,0,0.2,0,0.2C50.2,23.8,50.2,23.7,50.2,23.6z"/>
				<path fill="none" d="M130.3,22.2c-0.5-0.1-1.2-0.2-2.6-0.2c-0.5,0-1,0-1.4,0.1c0.4-0.1,0.9-0.1,1.4-0.1
					C129.2,22,129.9,22.1,130.3,22.2z"/>
				<path fill="none" d="M131.1,24.8c-0.1,0-0.2,0-0.3,0h-3.2c-0.1,0-0.2,0-0.2,0c0,0.1,0,0.2,0,0.3v0.7h3.3c0.1,0,0.2,0,0.4,0.1
					v-0.5C130.9,25.2,131,25,131.1,24.8z"/>
				<path fill="none" d="M121.3,33.8c0,0,0.1,0,0.1,0C121.3,33.8,121.3,33.8,121.3,33.8L121.3,33.8z"/>
				<path fill="none" d="M138,26.5c-0.4-1.1-1.5-1.7-3.2-1.7c-0.5,0-1,0-1.4,0.1c0.4,0,0.9-0.1,1.4-0.1
					C136.5,24.9,137.6,25.4,138,26.5z"/>
				<path fill="none" d="M55.1,22.9c0.2-0.1,0.3-0.1,0.5-0.3C55.5,22.7,55.3,22.8,55.1,22.9c-0.2,0.1-0.4,0.1-0.6,0.1
					C54.8,23,54.9,22.9,55.1,22.9z"/>
				<path fill="none" d="M58.8,33.1C59,33,59.2,33,59.4,33C59.2,33,59,33,58.8,33.1z"/>
				<path fill="none" d="M60,33c0,0-0.1,0-0.1,0C59.9,33,59.9,33,60,33z"/>
				<path fill="none" d="M139.8,25C139.7,25,139.7,25,139.8,25C139.7,25,139.7,25,139.8,25L139.8,25z"/>
				<path fill="none" d="M141.5,27.2L141.5,27.2c0.7-0.3,1.3-0.6,1.8-0.6c0.5,0,0.8,0.1,1,0.2c-0.2-0.1-0.5-0.2-1-0.2
					C142.8,26.6,142.2,26.9,141.5,27.2z"/>
				<path fill="none" d="M145,33.8L145,33.8c-0.1,0-0.1,0-0.1-0.1C144.9,33.7,144.9,33.8,145,33.8z"/>
				<path fill="none" d="M132.5,27.7L132.5,27.7l-0.2,0h-0.1c-0.1,0-0.2,0-0.4-0.1v0.2h1.2c0.3-0.1,0.7-0.2,1.1-0.2
					C133.4,27.6,132.8,27.7,132.5,27.7z"/>
				<path fill="none" d="M119.4,33.4c-0.3,0.2-0.7,0.3-1,0.4C118.7,33.7,119,33.6,119.4,33.4z"/>
				<path fill="none" d="M124.7,23c0.4-0.5,0.9-0.8,1.6-0.9C125.7,22.3,125.1,22.5,124.7,23z"/>
				<path fill="none" d="M59.7,24.4C59.8,24.5,59.8,24.5,59.7,24.4C59.8,24.5,59.8,24.5,59.7,24.4z"/>
				<path fill="none" d="M141.4,25.3v0.3v0V25.3c0-0.1-0.1-0.3-0.3-0.3C141.3,25,141.4,25.1,141.4,25.3z"/>
				<path fill="none" d="M131.8,28.3c0,0,0,0.1,0,0.1c0.3-0.2,0.7-0.4,1.2-0.6h-1.2V28.3z"/>
				<path fill="none" d="M126.1,33.7c0.1,0,0.2-0.1,0.2-0.3v0C126.3,33.5,126.2,33.6,126.1,33.7z"/>
				<path fill="none" d="M54.6,35.6C54.5,35.6,54.5,35.6,54.6,35.6C54.5,35.6,54.5,35.6,54.6,35.6z"/>
				<path fill="none" d="M145.9,25.4c0.6,0.5,0.8,1.4,0.8,2.5h0C146.7,26.8,146.5,25.9,145.9,25.4z"/>
				<path fill="none" d="M133.3,28.8c0.1,0,0.2-0.1,0.4-0.1C133.6,28.7,133.4,28.8,133.3,28.8z"/>
				<path fill="none" d="M130.5,28.6h-4.3l0,0H130.5c0.1,0,0.2-0.1,0.2-0.1C130.7,28.5,130.6,28.6,130.5,28.6z"/>
				<path fill="none" d="M119.5,27.5c0-0.2-0.1-0.4-0.2-0.5C119.4,27.2,119.4,27.3,119.5,27.5z"/>
				<path fill="none" d="M132,33.1c-0.2-0.3-0.4-0.6-0.5-1C131.6,32.5,131.8,32.8,132,33.1z"/>
				<path fill="none" d="M59.2,20.2c-0.1,0-0.1,0-0.2,0C59.1,20.2,59.1,20.2,59.2,20.2C59.2,20.2,59.2,20.2,59.2,20.2z"/>
				<path fill="none" d="M110.2,26.5c-0.2,0-0.3,0-0.5,0C109.9,26.5,110,26.5,110.2,26.5L110.2,26.5z"/>
				<path fill="none" d="M146.7,28.3v5.1c0,0.2-0.1,0.3-0.3,0.3c0.2,0,0.3-0.1,0.3-0.3V28.3c0-0.2,0-0.3,0-0.5h0
					C146.7,28,146.7,28.1,146.7,28.3z"/>
				<path fill="none" d="M52.7,27.5C52.7,27.5,52.7,27.5,52.7,27.5C52.7,27.5,52.7,27.5,52.7,27.5z"/>
				<path fill="none" d="M54,22.9c0,0,0.1,0,0.1,0C54.1,22.9,54,22.9,54,22.9z"/>
				<path fill="none" d="M124.1,33.4C124.1,33.4,124.2,33.5,124.1,33.4C124.2,33.5,124.1,33.4,124.1,33.4L124.1,33.4z"/>
				<path fill="none" d="M59.4,20.3C59.4,20.3,59.5,20.3,59.4,20.3C59.5,20.3,59.4,20.3,59.4,20.3z"/>
				<path fill="none" d="M54.8,35.7c0.1,0,0.1,0,0.2,0C54.9,35.7,54.8,35.7,54.8,35.7C54.8,35.7,54.8,35.7,54.8,35.7z"/>
				<path fill="none" d="M139.8,33.8c-0.1,0-0.2,0-0.2-0.1C139.6,33.8,139.7,33.8,139.8,33.8l1.5,0c0.1,0,0.1,0,0.2-0.1
					c0,0-0.1,0.1-0.2,0.1H139.8z"/>
				<path fill="none" d="M134.6,32.3L134.6,32.3c-0.1,0-0.2,0-0.3,0C134.5,32.3,134.6,32.3,134.6,32.3z"/>
				<path fill="none" d="M110.2,32.2L110.2,32.2c-0.2,0-0.3,0-0.5,0C109.9,32.2,110,32.2,110.2,32.2z"/>
				<path fill="none" d="M63.9,22.4C63.9,22.4,64,22.4,63.9,22.4C64,22.4,63.9,22.4,63.9,22.4z"/>
				<path fill="none" d="M83.2,27.6c-0.2,0-0.5,0.1-0.8,0.2v0h1.1c0-0.1,0-0.2,0-0.2C83.5,27.6,83.4,27.6,83.2,27.6z"/>
				<path fill="none" d="M64.3,22.3C64.3,22.3,64.3,22.2,64.3,22.3C64.3,22.2,64.3,22.3,64.3,22.3z"/>
				<path fill="none" d="M134,32.2c-0.1,0-0.1,0-0.2-0.1C133.9,32.1,133.9,32.1,134,32.2z"/>
				<path fill="none" d="M138.2,33.6C138.2,33.6,138.2,33.6,138.2,33.6L138.2,33.6C138.2,33.6,138.2,33.6,138.2,33.6z"/>
				<path fill="none" d="M134.5,31.3c0,0,0.1,0,0.1,0c0.2,0,0.4,0,0.6-0.1v-0.3c-0.4,0-0.6,0-0.7,0.1
					C134.5,31,134.5,31.1,134.5,31.3z"/>
				<path fill="none" d="M60.7,20.6C60.7,20.6,60.7,20.6,60.7,20.6C60.7,20.6,60.7,20.6,60.7,20.6C60.7,20.6,60.7,20.6,60.7,20.6z"
					/>
				<path fill="none" d="M130.9,22.3c0,0-0.1,0-0.1,0c-0.1,0-0.3-0.1-0.4-0.1c0.2,0,0.3,0.1,0.4,0.1
					C130.8,22.3,130.9,22.3,130.9,22.3z"/>
				<path fill="none" d="M53.6,22.7c0,0,0.1,0,0.1,0.1C53.6,22.7,53.6,22.7,53.6,22.7z"/>
				<path fill="none" d="M52.9,27.7C52.8,27.7,52.8,27.6,52.9,27.7C52.8,27.6,52.8,27.7,52.9,27.7z"/>
				<path fill="none" d="M111.7,32.1L111.7,32.1c-0.1,0-0.4,0-0.6,0.1C111.3,32.1,111.5,32.1,111.7,32.1z"/>
				<path fill="none" d="M109,31.8c-0.2-0.2-0.3-0.4-0.4-0.6C108.8,31.5,108.9,31.7,109,31.8z"/>
				<path fill="none" d="M136.2,31.8c-0.2,0.1-0.5,0.2-0.7,0.3C135.8,32.1,136,32,136.2,31.8l0-1.9h0V31.8z"/>
				<path fill="none" d="M60.4,33.3c0,0-0.1,0-0.1-0.1C60.3,33.2,60.4,33.2,60.4,33.3z"/>
				<path fill="none" d="M99.5,27.7L99.5,27.7l-0.2,0h-0.1c-0.2,0-0.4-0.1-0.6-0.2c-0.2,0.1-0.4,0.2-0.7,0.2c-0.2,0-0.3,0-0.4,0h2.6
					c0.3-0.1,0.7-0.2,1.1-0.2C100.4,27.6,99.8,27.7,99.5,27.7z"/>
				<path fill="none" d="M136.2,27.9C136.2,27.9,136.2,27.9,136.2,27.9L136.2,27.9C136.2,27.9,136.2,27.9,136.2,27.9l0,0.7h0V27.9z"
					/>
				<path fill="none" d="M126.4,24.3c0.1-0.1,0.2-0.2,0.3-0.3C126.6,24.1,126.5,24.2,126.4,24.3z"/>
				<path fill="none" d="M126.3,25.2c0-0.3,0-0.5,0.1-0.7C126.3,24.7,126.3,24.9,126.3,25.2L126.3,25.2z"/>
				<path fill="none" d="M131.9,26.6c0,0.1,0.1,0.1,0.1,0.1C132,26.7,131.9,26.7,131.9,26.6z"/>
				<path fill="none" d="M134.8,26.6c-0.8,0-1.6,0-2.2,0.1C133.2,26.6,134,26.6,134.8,26.6c1,0,1.4,0.2,1.4,1.2h0
					C136.2,26.9,135.8,26.6,134.8,26.6z"/>
				<polygon fill="none" points="60.8,33.6 60.8,33.6 60.8,33.6 				"/>
				<path fill="none" d="M108.7,27.4c0.1-0.2,0.2-0.4,0.3-0.5C108.9,27,108.8,27.2,108.7,27.4z"/>
				<path fill="none" d="M135.8,33.5c0.2-0.1,0.4-0.2,0.5-0.3l0,0C136.2,33.4,136,33.5,135.8,33.5z"/>
				<path fill="none" d="M87.6,27.3c0,0.2,0,0.4,0,0.6h0.1v-0.5L87.6,27.3z"/>
				<path fill="none" d="M143.3,27.6c-0.2,0-0.5,0.1-0.8,0.2v0h1.1c0-0.1,0-0.2,0-0.2C143.6,27.6,143.5,27.6,143.3,27.6z"/>
				<path fill="none" d="M53.3,27.6c-0.1,0-0.2,0.1-0.2,0.1C53.1,27.7,53.2,27.7,53.3,27.6z"/>
				<path fill="none" d="M132.3,29.2c-0.3,0.2-0.5,0.5-0.7,0.8C131.8,29.7,132,29.5,132.3,29.2z"/>
				<path fill="#013564" d="M64.6,30C64.6,30,64.6,30,64.6,30c-0.1,0.2-0.1,0.3-0.1,0.3c0,0.1-0.1,0.1-0.2,0.1l0,0
					c0,0-0.1,0-0.1-0.1c0,0,0,0,0,0l0.4,1.1c0.4-0.1,0.8-0.5,1-1.1l0.9-2.4h-1.1L64.6,30z"/>
				<path fill="#013564" d="M63.3,25.7c0,0,0.1,0,0.1,0c0.1,0,0.1,0,0.2-0.1c0,0,0,0,0,0c0.1,0,0.1-0.1,0.1-0.2
					c0.1-0.2,0-0.4-0.2-0.5l0,0c0,0-0.1,0-0.1,0c-0.1,0-0.1,0-0.2,0.1c0,0,0,0,0,0c-0.1,0-0.1,0.1-0.1,0.2c0,0,0,0.1,0,0.2
					c0,0.1,0,0.1,0,0.1C63.2,25.6,63.2,25.7,63.3,25.7z"/>
				<polygon fill="#013564" points="63.3,30.8 62.3,27.9 63.3,30.8 				"/>
				<path fill="#013564" d="M68,23.5L68,23.5c0.2-0.8-0.2-1.4-0.8-1.7l-0.1,0l-0.1,0L65,21l-0.6-0.2l-0.4,0.5
					c-0.1,0.1-0.2,0.2-0.3,0.2c0,0-0.1,0-0.1,0c-0.2-0.1-0.2-0.3-0.2-0.4v-0.7l-0.7-0.2c-0.4-0.1-1-0.3-1.1-0.4l-0.1-0.1l-0.2,0
					c-0.1,0-0.3-0.1-0.4-0.1h0c-0.2,0-0.3,0-0.5,0.1c0.2,0.2,0.3,0.4,0.4,0.6l0.1,0.3c0,0,0,0,0,0c0,0,0,0,0,0c0,0,0,0,0,0
					c0,0,0.1,0,0.1,0c0,0,0.1,0.1,0.3,0.1c0.1,0,0.3,0.1,0.4,0.2c0.3,0.1,0.6,0.2,0.6,0.2c0,0.4,0.2,0.8,0.5,1.1
					c0.1,0.1,0.2,0.2,0.4,0.2c0.1,0,0.3,0.1,0.4,0.1c0.1,0,0.2,0,0.4-0.1c0,0,0.1,0,0.1,0c0.1,0,0.2-0.1,0.3-0.1c0,0,0.1,0,0.1-0.1
					c0.1-0.1,0.2-0.2,0.3-0.2c0,0,0,0,0,0l1.6,0.6l0.6,0.2c0.1,0.1,0.2,0.1,0.2,0.2c0,0.1,0.1,0.2,0,0.3l-1.7,4.6h1.1L68,23.5
					L68,23.5z"/>
				<path fill="#013564" d="M64.6,26.2c0,0,0.1,0,0.1,0c0.1,0,0.1,0,0.2-0.1c0,0,0,0,0,0c0.1,0,0.1-0.1,0.1-0.2c0,0,0,0,0,0
					c0,0,0-0.1,0-0.1c0,0,0,0,0,0c0-0.1,0-0.2-0.1-0.3c0,0-0.1-0.1-0.2-0.1l0,0c0,0-0.1,0-0.1,0c-0.1,0-0.1,0-0.2,0.1c0,0,0,0,0,0
					c-0.1,0-0.1,0.1-0.1,0.2c0,0,0,0.1,0,0.2C64.4,26,64.5,26.2,64.6,26.2z"/>
				<path fill="#013564" d="M54.2,26.7c0,0.1,0,0.1,0.1,0.2c0,0,0,0,0,0c0,0,0.1,0.1,0.1,0.1c0,0,0,0,0,0c0.1,0,0.1,0,0.2,0
					c0.1,0,0.2,0,0.2-0.1c0,0,0.1-0.1,0.1-0.2c0-0.1,0.1-0.2,0.1-0.2l0,0c0-0.1,0-0.1-0.1-0.2c0,0,0,0,0,0c0,0-0.1-0.1-0.1-0.1
					c0,0,0,0,0,0c-0.1,0-0.1,0-0.2,0c-0.1,0-0.2,0-0.2,0.1c0,0,0,0,0,0C54.3,26.4,54.2,26.6,54.2,26.7z"/>
				<path fill="#013564" d="M60.7,20.8C60.7,20.8,60.7,20.8,60.7,20.8c0,0.1,0.8,2.2,1.6,4.3C61.5,23,60.7,20.9,60.7,20.8
					C60.7,20.8,60.7,20.8,60.7,20.8z"/>
				<path fill="#013564" d="M50.2,23.9C50.2,23.9,50.2,23.9,50.2,23.9c0-0.1,0-0.2,0-0.3c0-0.1,0.1-0.3,0.3-0.3l2.7-1
					c0.1,0.1,0.2,0.2,0.3,0.3c0,0,0.1,0,0.1,0.1c0.1,0.1,0.2,0.1,0.3,0.2c0,0,0.1,0,0.1,0c0.1,0,0.3,0.1,0.5,0.1
					c0.2,0,0.4,0,0.6-0.1c0.2-0.1,0.3-0.1,0.5-0.3c0.4-0.3,0.7-0.8,0.7-1.4l2.7-1c0.1,0,0.1,0,0.2,0c0,0,0,0,0,0
					c0.1,0,0.2,0,0.2,0.1c0,0,0,0,0,0c0.1,0.1,0.1,0.1,0.1,0.2l0,0.1c0-0.2,0-0.4,0.2-0.6c0.1-0.1,0.2-0.2,0.4-0.3
					c-0.3-0.3-0.6-0.4-1-0.4c-0.2,0-0.4,0-0.5,0.1l-2.7,1l-0.7,0.2v0.7c0,0.2-0.1,0.6-0.5,0.7c-0.1,0-0.2,0.1-0.3,0.1
					c-0.1,0-0.4,0-0.5-0.2l-0.4-0.6l-0.7,0.2l-2.7,1c-0.4,0.1-0.7,0.4-0.8,0.7c-0.2,0.4-0.2,0.8-0.1,1.2l1.3,3.6h1.1L50.2,23.9z"/>
				<path fill="#013564" d="M62.9,26.9c-0.1-0.4-0.3-0.8-0.4-1.2C62.6,26.1,62.8,26.5,62.9,26.9z"/>
				<path fill="#013564" d="M59.1,24.9c0,0.1,0,0.1,0.1,0.2c0,0,0,0,0,0c0,0,0.1,0.1,0.1,0.1c0,0,0,0,0,0c0.1,0,0.1,0,0.2,0
					c0.1,0,0.2,0,0.2-0.1c0,0,0,0,0,0c0,0,0.1-0.1,0.1-0.1C60,25.1,60,25,60,24.8c0,0,0,0,0,0c0-0.1,0-0.1-0.1-0.2c0,0,0,0,0,0
					c0,0-0.1-0.1-0.1-0.1c0,0,0,0,0,0c-0.1,0-0.1,0-0.2,0c-0.1,0-0.2,0-0.2,0.1c-0.1,0-0.1,0.1-0.2,0.2
					C59.1,24.8,59.1,24.8,59.1,24.9L59.1,24.9z"/>
				<path fill="#013564" d="M63.3,30.8l0.5,1.3c0,0.1,0,0.1,0,0.2c0,0.2-0.1,0.3-0.3,0.4l-2.7,1l0,0l0,0c0,0,0,0,0,0
					c-0.1-0.1-0.2-0.2-0.3-0.3c0,0-0.1,0-0.1-0.1c-0.1-0.1-0.2-0.1-0.3-0.1c0,0-0.1,0-0.1,0c-0.1,0-0.3-0.1-0.5-0.1
					c-0.2,0-0.4,0-0.6,0.1c0,0,0,0,0,0c-0.7,0.2-1.2,0.9-1.2,1.6l-2.7,1c0,0,0,0,0,0c-0.1,0-0.1,0-0.2,0c0,0,0,0,0,0
					c-0.1,0-0.2,0-0.2-0.1c0,0,0,0,0,0c-0.1-0.1-0.1-0.1-0.2-0.2l-2.7-7.5h-1.1l2.9,7.9c0.2,0.6,0.8,1,1.4,1c0.2,0,0.4,0,0.5-0.1
					l2.7-1l0.7-0.2v-0.7c0-0.2,0.1-0.6,0.5-0.7c0.1,0,0.2-0.1,0.3-0.1c0.1,0,0.4,0,0.5,0.2l0.4,0.6l0.7-0.2l2.7-1
					c0.8-0.3,1.2-1.1,0.9-1.9l-0.1-0.3c-0.1,0-0.2,0-0.2,0C63.8,31.4,63.5,31.1,63.3,30.8z"/>
				<path fill="#013564" d="M55.9,26.3C55.9,26.3,55.9,26.4,55.9,26.3c0.1,0.1,0.1,0.1,0.2,0.1c0,0,0,0,0,0c0.1,0,0.1,0,0.2,0
					c0.1,0,0.2,0,0.2-0.1c0.1-0.1,0.2-0.3,0.2-0.4c0-0.1,0-0.1-0.1-0.2c0,0,0,0,0,0c0,0-0.1-0.1-0.1-0.1c0,0,0,0,0,0
					c-0.1,0-0.1,0-0.2,0c-0.1,0-0.2,0-0.2,0.1c0,0-0.1,0.1-0.1,0.1c-0.1,0.1-0.1,0.2-0.1,0.3C55.8,26.2,55.9,26.3,55.9,26.3z"/>
				<path fill="#013564" d="M60.6,20.6C60.6,20.6,60.6,20.6,60.6,20.6C60.6,20.6,60.6,20.6,60.6,20.6z"/>
				<path fill="#013564" d="M57.5,25.5c0,0.1,0,0.1,0.1,0.2c0,0,0,0,0,0c0,0,0.1,0.1,0.1,0.1c0,0,0,0,0,0c0.1,0,0.1,0,0.2,0
					c0.1,0,0.2,0,0.2-0.1c0.1,0,0.2-0.2,0.2-0.4c0-0.1,0-0.1-0.1-0.2c0,0,0,0,0,0c0,0-0.1-0.1-0.1-0.1c0,0,0,0,0,0
					c-0.1,0-0.1,0-0.2,0c-0.1,0-0.2,0-0.2,0.1c0,0,0,0,0,0C57.5,25.2,57.5,25.4,57.5,25.5z"/>
				<path fill="#013564" d="M63.1,27.3c0.1,0.2,0.1,0.4,0.2,0.6h0C63.2,27.7,63.1,27.5,63.1,27.3z"/>
				<path fill="#013564" d="M52.7,27.5C52.7,27.5,52.7,27.5,52.7,27.5c0.1,0.1,0.1,0.1,0.2,0.1c0,0,0,0,0,0c0.1,0,0.1,0,0.2,0
					c0.1,0,0.2,0,0.2-0.1c0,0,0,0,0,0c0.1-0.1,0.2-0.2,0.2-0.4c0-0.1,0-0.1-0.1-0.2c0,0,0,0,0,0c0,0-0.1-0.1-0.1-0.1c0,0,0,0,0,0
					c-0.1,0-0.1,0-0.2,0c-0.1,0-0.2,0-0.2,0.1c-0.1,0.1-0.1,0.2-0.2,0.3c0,0,0,0.1,0,0.1C52.6,27.4,52.6,27.4,52.7,27.5z"/>
				<path fill="#013564" d="M63.3,27.8L63.3,27.8c0.4,1.2,0.8,2.1,0.8,2.1c0,0.1,0.1,0.2,0.1,0.3c0-0.1-0.1-0.2-0.1-0.3
					C64,29.9,63.7,29,63.3,27.8z"/>
				<path fill="#013564" d="M64.2,30.2c0-0.1-0.1-0.2-0.1-0.3c0,0-0.3-0.9-0.8-2.1h-1l0,0l1,2.9c0.2,0.3,0.5,0.6,1,0.6
					c0.1,0,0.2,0,0.2,0L64.2,30.2C64.2,30.3,64.2,30.3,64.2,30.2z"/>
				<path fill="#013564" d="M59.8,20c-0.2,0.2-0.2,0.4-0.2,0.6l2.6,7.2h1c-0.1-0.2-0.1-0.4-0.2-0.6C63,27.1,63,27,62.9,26.9
					c-0.1-0.4-0.3-0.8-0.4-1.2c-0.1-0.2-0.1-0.4-0.2-0.5c-0.8-2.1-1.5-4.2-1.6-4.3c0,0,0,0,0,0c0-0.1,0-0.1,0-0.2c0,0,0,0,0,0
					c0,0,0,0,0,0l-0.1-0.3c-0.1-0.2-0.2-0.4-0.4-0.6C60.1,19.8,59.9,19.9,59.8,20z"/>
				<path fill="#013564" d="M78.4,31.1c-0.1,0-0.3-0.1-0.4-0.1h-3.2c-0.1,0-0.2,0-0.2,0c0-0.1,0-0.2,0-0.3v-1h3.3
					c0.2,0,0.4-0.1,0.6-0.2v-1.6h-0.3v0.5c0,0.1,0,0.2-0.1,0.2s-0.1,0.1-0.2,0.1h-4.3v2c0,0.4,0,0.7,0.2,0.9
					c0.2,0.3,0.5,0.5,1.1,0.5H78c0.1,0,0.2,0,0.2,0.1c0,0.1,0.1,0.1,0.1,0.2v1l0,0c0,0.1,0,0.1,0,0.2c0,0.1-0.1,0.2-0.3,0.2
					c-0.1,0-0.1,0-0.2,0c-0.1,0-0.1,0-0.2,0c-0.5,0.1-1.2,0.2-2.6,0.2c-0.5,0-0.9,0-1.3-0.1c-0.1,0-0.2,0-0.3-0.1
					c-0.6-0.1-1.1-0.4-1.4-0.8c-0.4-0.5-0.6-1.2-0.6-2.2v-2.9h-1v2.9c0,4.2,3.5,4.2,4.6,4.2c1.9,0,2.6-0.1,3.1-0.2
					c0.2,0,0.4-0.1,0.6-0.2c-0.2-0.2-0.4-0.6-0.4-0.9V31.1z"/>
				<path fill="#013564" d="M71.4,25.2c0-1,0.2-1.7,0.6-2.2c0.6-0.8,1.7-1,3-1c1.2,0,1.9,0.1,2.3,0.1c0.1,0,0.2,0,0.3,0
					c0.1,0,0.2,0,0.3,0.1c0,0,0,0,0,0c0.1,0,0.2,0.1,0.3,0.1c0,0,0,0.1,0,0.2v1c0,0.1,0,0.2-0.1,0.2c-0.1,0-0.1,0.1-0.2,0.1h-3.2
					c-0.5,0-0.8,0.1-1,0.3c-0.1,0.1-0.1,0.1-0.1,0.2c-0.1,0.2-0.2,0.5-0.2,0.9V27h4.3h0c0.2,0,0.2,0.1,0.3,0.2c0,0,0,0,0,0.1l0,0
					v0.6h0.3v-1.7C78.2,26,78,26,77.8,26h-3.3v-0.7c0-0.2,0-0.3,0-0.3c0.1,0,0.1,0,0.2,0H78c0.2,0,0.3,0,0.5-0.1
					c0.1-0.3,0.4-0.6,0.7-0.7c0.1-0.1,0.1-0.3,0.1-0.5v-1c0-0.5-0.2-1.1-1.1-1.3l-0.2,0c-0.5-0.1-1.2-0.2-3-0.2
					c-1.1,0-4.6,0-4.6,4.2v2.6h1V25.2z"/>
				<path fill="#013564" d="M86.6,28.3v5.1c0,0.1,0,0.2-0.1,0.2s-0.1,0.1-0.2,0.1l0,0h-1.5c-0.2,0-0.3-0.1-0.3-0.3v-5.1
					c0-0.2,0-0.4,0-0.5h-1c0,0.1,0,0.3,0,0.5v5.1c0,0.8,0.6,1.3,1.3,1.3h1.5c0.7,0,1.3-0.6,1.3-1.3v-5.1c0-0.1,0-0.3,0-0.5h-1
					C86.6,28,86.6,28.1,86.6,28.3z"/>
				<path fill="#013564" d="M81.5,33.5L81.5,33.5c0,0.1,0,0.2-0.1,0.2c-0.1,0.1-0.1,0.1-0.2,0.1h-1.5c-0.2,0-0.3-0.1-0.3-0.3v-5.6
					h-0.3v0.5c0,0.5-0.3,0.9-0.7,1.1v1.6c0.5,0.2,0.9,0.6,0.9,1.2v1c0,0.6-0.2,0.9-0.5,1.1c0.2,0.2,0.6,0.4,0.9,0.4h1.5
					c0.7,0,1.3-0.6,1.3-1.3v-5.6h-1V33.5z"/>
				<path fill="#013564" d="M87.1,27.2L87.1,27.2L87.1,27.2c-0.3-0.1-0.4-0.1-0.6-0.2c0,0.3,0.1,0.6,0.1,0.9h1c0-0.2,0-0.4,0-0.6
					L87.1,27.2z"/>
				<path fill="#013564" d="M84.4,27c-0.1-0.1-0.2-0.2-0.4-0.3c-0.2-0.1-0.4-0.1-0.7-0.1c-0.5,0-1.1,0.2-1.8,0.6v0.7h1v0
					c0.3-0.1,0.6-0.2,0.8-0.2c0.2,0,0.3,0,0.3,0c0,0.1,0,0.1,0,0.2h1C84.6,27.5,84.5,27.2,84.4,27z"/>
				<path fill="#013564" d="M78.5,24.8c-0.1,0.1-0.1,0.3-0.1,0.5v0.9c0.4,0.2,0.7,0.6,0.7,1.1v0.6h0.3v-2.6c0,0,0-0.1,0-0.1
					c0-0.1,0.1-0.2,0.3-0.2h1.4h0c0.2,0,0.3,0.1,0.3,0.3v0.3c0.3-0.2,0.6-0.3,0.8-0.4c0.5-0.2,1-0.3,1.8-0.3c1,0,1.6,0.3,2.1,0.8
					v-0.4c0-0.3,0.1-0.5,0.3-0.8c-0.5-0.4-1.3-0.7-2.3-0.7c-0.9,0-1.5,0.1-2.1,0.4C81.6,24,81.3,24,81.1,24h-1.4
					c-0.2,0-0.3,0-0.5,0.1C79.1,24.4,78.8,24.7,78.5,24.8z"/>
				<path fill="#013564" d="M87.3,26.2c-0.2,0-0.3-0.1-0.3-0.3v-0.7v0v0.7C87,26.1,87.1,26.2,87.3,26.2l0.1,0v0L87.3,26.2z"/>
				<path fill="#013564" d="M78.4,29.5c0.4-0.2,0.7-0.6,0.7-1.1v-0.5h-0.7V29.5z"/>
				<path fill="#013564" d="M78.4,26.1v1.7h0.7v-0.6C79.1,26.7,78.8,26.3,78.4,26.1z"/>
				<path fill="#013564" d="M79.3,33.3v-1c0-0.6-0.4-1-0.9-1.2v2.4c0,0.4,0.1,0.7,0.4,0.9C79.1,34.2,79.3,33.9,79.3,33.3z"/>
				<path fill="#013564" d="M78.5,24.8c0.3-0.1,0.6-0.4,0.7-0.7C78.9,24.2,78.6,24.5,78.5,24.8z"/>
				<path fill="#013564" d="M92.7,33.4v-2.1c-0.2-0.1-0.3-0.1-0.5-0.1h-0.5v-3.4h-1v3.5c0,0.4,0,0.6,0.1,0.7c0,0.1,0.1,0.1,0.2,0.1
					c0.1,0,0.2,0,0.3,0h0.8c0.1,0,0.2,0,0.2,0.1s0.1,0.1,0.1,0.2l0,0v1v0c0,0.1,0,0.2,0,0.3s-0.1,0.1-0.2,0.1
					c-0.4,0-0.7,0.1-1.1,0.1c-1.8,0-2.5-0.4-2.5-2.5v-3.5h-1v3.5c0,2.9,1.4,3.5,3.5,3.5c0.4,0,0.7,0,1.1-0.1l0.1,0
					c0.4,0,0.6-0.2,0.8-0.3C92.9,34.2,92.7,33.9,92.7,33.4z"/>
				<path fill="#013564" d="M88.7,26.5l-1.3-0.2c0.1,0.4,0.2,0.7,0.2,1l0.1,0v0.5h1V26.5z"/>
				<path fill="#013564" d="M87,25.3L87,25.3c0-0.1,0-0.2,0.1-0.3c0.1,0,0.1-0.1,0.2-0.1h1.5v-1.3c0-0.1,0.1-0.2,0.2-0.2
					c0,0,0.1,0,0.1,0l1.5-0.2l0,0h0l0,0c0.1,0,0.2,0.1,0.2,0.2v1.6h1.4l0,0c0.2,0,0.3,0.1,0.3,0.3v0.9c0,0.1,0,0.2-0.1,0.2
					c-0.1,0-0.1,0.1-0.2,0.1l0,0h-1.4v1.4h1v-0.4h0.4c0.2,0,0.4-0.1,0.6-0.1v-2.1c0-0.4,0.1-0.7,0.4-0.9c-0.2-0.2-0.6-0.4-0.9-0.4
					h-0.4v-0.6c0-0.7-0.5-1.2-1.2-1.2h0h-0.1l-0.1,0l-1.4,0.2c-0.7,0.1-1.2,0.6-1.2,1.3v0.3h-0.5c-0.4,0-0.8,0.2-1,0.5
					C86.5,24.7,86.8,25,87,25.3z"/>
				<path fill="#013564" d="M86,25.6c0.1,0.1,0.1,0.1,0.2,0.2c0.2,0.3,0.3,0.7,0.4,1.2c0.1,0.1,0.3,0.2,0.5,0.2l0,0l0,0l0.5,0.1
					c0-0.3-0.1-0.7-0.2-1l-0.1,0c-0.2,0-0.3-0.1-0.3-0.3v-0.7c-0.2-0.3-0.4-0.6-0.7-0.8c-0.2,0.2-0.3,0.5-0.3,0.8V25.6z"/>
				<path fill="#013564" d="M95.7,33.4c0,0.2-0.1,0.3-0.3,0.3H94h0c-0.1,0-0.1,0-0.1-0.1c-0.1-0.1-0.1-0.1-0.1-0.3v-5.6h-1v3.5
					c0.5,0.2,0.8,0.6,0.8,1.2v0.9c0.1,0.5-0.1,0.8-0.3,1c0,0-0.1,0.1-0.1,0.1c0.2,0.2,0.5,0.3,0.8,0.3h1.5c0.7,0,1.3-0.6,1.3-1.3V28
					c0.2-0.1,0.5-0.1,0.7-0.2h-1.7V33.4z"/>
				<path fill="#013564" d="M98.6,27.6c-0.3-0.2-0.5-0.4-0.6-0.8c0,0-0.1,0-0.1,0c-0.6,0-1.1,0.1-1.5,0.3c-0.2,0.1-0.4,0.2-0.6,0.3
					v0.5h1.7c0.1,0,0.3,0,0.4,0C98.2,27.8,98.4,27.7,98.6,27.6z"/>
				<path fill="#013564" d="M98.9,25.4c0-0.2,0.1-0.2,0.2-0.3l0,0C99,25.2,98.9,25.3,98.9,25.4l0,1c0,0.1,0,0.2,0.1,0.2
					c-0.1,0-0.1-0.1-0.1-0.2V25.4z"/>
				<path fill="#013564" d="M93.4,26.1c0,0.5-0.3,1-0.7,1.2v0.6h1v-2.6c0-0.1,0-0.2,0.1-0.2c0.1,0,0.1-0.1,0.2-0.1h1.4
					c0.1,0,0.2,0,0.2,0.1c0,0.1,0.1,0.1,0.1,0.2v0.6c0.2-0.1,0.4-0.3,0.6-0.4c0.4-0.2,0.8-0.3,1.1-0.4c0.2,0,0.3,0,0.5,0l0,0h0
					c0.1,0,0.1,0,0.1,0.1c0.1-0.3,0.3-0.6,0.6-0.8c-0.2-0.2-0.5-0.3-0.8-0.3c-0.4,0-0.9,0-1.6,0.3c-0.2-0.2-0.6-0.4-0.9-0.4H94
					c-0.4,0-0.7,0.1-0.9,0.4c0.2,0.2,0.4,0.6,0.4,0.9V26.1z"/>
				<path fill="#013564" d="M92.7,27.3c0.4-0.2,0.7-0.6,0.7-1.2v-0.9c0-0.4-0.1-0.7-0.4-0.9c-0.2,0.2-0.4,0.6-0.4,0.9V27.3z"/>
				<path fill="#013564" d="M93.5,33.4v-0.9c0-0.5-0.3-1-0.8-1.2v2.1c0,0.4,0.2,0.8,0.5,1c0,0,0.1-0.1,0.1-0.1
					C93.4,34.2,93.6,33.9,93.5,33.4z"/>
				<path fill="#013564" d="M99.1,25.2C99.2,25.1,99.2,25.1,99.1,25.2c0.7-0.2,1.6-0.3,2.7-0.3c1.5,0,2.5,0.4,3,1.3
					c0.3,0.4,0.4,1,0.4,1.6h0.2c0.1-0.6,0.3-1.2,0.5-1.7c-0.6-1.5-2-2.3-4.1-2.3c-1.1,0-2.1,0.1-2.8,0.3c-0.1,0-0.3,0.1-0.4,0.2
					C98.9,24.5,99.1,24.8,99.1,25.2z"/>
				<path fill="#013564" d="M98,25.1C98,25.1,98.1,25.1,98,25.1C98.1,25.1,98,25.1,98,25.1z"/>
				<path fill="#013564" d="M103.4,29.9h-1c-0.4,0-0.7,0-0.9,0.1c-0.1,0-0.2,0.1-0.3,0.1c-0.2,0.1-0.3,0.2-0.4,0.3
					c-0.1,0.2-0.2,0.5-0.2,0.8v0c0,0.5,0.2,0.8,0.5,0.9c0.2,0.1,0.4,0.1,0.6,0.1c0.3,0,0.6,0,0.9-0.1s0.5-0.2,0.7-0.3V29.9z
					 M102.4,31.2c-0.2,0.1-0.4,0.1-0.6,0.1c0,0-0.1,0-0.1,0c0-0.2,0-0.2,0-0.3c0.1,0,0.3-0.1,0.7-0.1V31.2z"/>
				<path fill="#013564" d="M103,26.9c-0.1-0.1-0.2-0.1-0.4-0.2c0,0-0.1,0-0.1,0c-0.2,0-0.4,0-0.6,0c-0.8,0-1.5,0-2.1,0.1
					c-0.2,0-0.3,0-0.5,0.1c0,0,0,0-0.1,0c0,0-0.1,0-0.1,0c0,0.2-0.1,0.4-0.2,0.5c-0.1,0.1-0.2,0.2-0.3,0.3c0.2,0.1,0.4,0.2,0.6,0.2
					h0.1h0.1l0.1,0c0.3-0.1,0.9-0.1,1.6-0.1c-0.4,0.1-0.7,0.1-1.1,0.2h3.2C103.3,27.4,103.2,27,103,26.9z"/>
				<path fill="#013564" d="M105.4,28.7c0-0.3,0-0.6,0.1-0.9h-0.2c0,0,0,0,0,0v5.7c0.1,0.1,0,0.2-0.2,0.2l0,0h-1.4
					c-0.2,0-0.3-0.1-0.3-0.3v-0.2c-0.4,0.2-0.7,0.4-1.1,0.5c-0.4,0.1-0.7,0.2-1.1,0.2c-0.6,0-1.1-0.1-1.6-0.4
					c-0.6-0.4-1.1-1-1.1-2.3v0c0-0.4,0.1-0.8,0.2-1.2s0.4-0.6,0.7-0.8c0.6-0.5,1.6-0.7,2.9-0.7h1v-0.7c0,0,0,0,0,0h-3.2
					c-2,0.6-2.5,2.1-2.5,3.4c0,2.3,1.4,3.7,3.7,3.7c0.6,0,1.2-0.1,1.8-0.4c0.2,0.1,0.4,0.2,0.7,0.2h1.4c0.5,0,1-0.3,1.1-0.7
					c0.1-0.2,0.1-0.5,0-0.7v-0.3c-0.6-0.8-0.9-1.9-0.9-3.1V28.7z"/>
				<path fill="#013564" d="M98,25.1L98,25.1C98,25.1,98.1,25.1,98,25.1c0.1,0.1,0.2,0.2,0.2,0.2v1.2c0,0,0,0.1,0,0.1
					c0,0,0,0.1-0.1,0.1c0,0-0.1,0.1-0.1,0.1c0.1,0.4,0.3,0.6,0.6,0.8c0.1-0.1,0.2-0.2,0.3-0.3c0.1-0.2,0.2-0.3,0.2-0.5
					c0,0-0.1,0-0.1,0c-0.1,0-0.1-0.1-0.1-0.2v-1c0-0.2,0.1-0.2,0.2-0.3c0-0.4-0.2-0.7-0.5-0.9C98.3,24.5,98.1,24.7,98,25.1z"/>
				<path fill="#013564" d="M106.5,27.8c0.1-0.8,0.4-1.5,0.9-2c0,0,0.1-0.1,0.1-0.1c0.1-0.1,0.3-0.3,0.4-0.4
					c0.6-0.4,1.4-0.6,2.3-0.6c0.4,0,0.9,0,1.5,0.1v-2.8c0-0.2,0.1-0.3,0.3-0.3h1.5c0.1,0,0.2,0,0.2,0.1c0,0.1,0.1,0.1,0.1,0.2v5.7h1
					v-0.3c-0.4-0.2-0.6-0.6-0.6-1.1v-1c0-0.5,0.2-0.9,0.6-1.1v-2.2c0-0.7-0.6-1.3-1.3-1.3H112c-0.7,0-1.3,0.6-1.3,1.3v1.7
					c-0.2,0-0.3,0-0.5,0c-2,0-3.5,0.8-4.2,2.3c0.2,0.5,0.3,1.1,0.3,1.7H106.5z"/>
				<path fill="#013564" d="M109.6,27.8c0.1-0.3,0.3-0.3,0.6-0.3c0.1,0,0.3,0,0.5,0v0.3h1v-1.2c-0.2,0-0.5,0-0.7-0.1
					c-0.1,0-0.3,0-0.4,0c-0.1,0-0.2,0-0.3,0c-0.2,0-0.3,0-0.5,0c-0.3,0.1-0.5,0.2-0.7,0.3c-0.1,0.1-0.2,0.3-0.3,0.5
					c-0.1,0.1-0.1,0.3-0.2,0.5H109.6z"/>
				<path fill="#013564" d="M113.7,33.1c0,0.2,0,0.3-0.4,0.4c-0.4,0.1-0.8,0.2-1.2,0.2c-0.7,0.1-1.3,0.2-2,0.2
					c-1.3,0-2.2-0.4-2.8-1.1c-0.6-0.7-0.9-1.7-0.9-2.9v-1.2c0-0.3,0-0.6,0.1-0.9h-0.2c0,0,0,0,0,0v5.2c0.8,1.2,2.1,1.8,3.9,1.8
					c1.1,0,2.3-0.2,3.4-0.4c0.3-0.1,0.6-0.2,0.9-0.5c0,0,0.1-0.1,0.1-0.2c-0.5-0.5-0.8-1.3-0.8-2.2V33.1z"/>
				<path fill="#013564" d="M110.7,27.8v3.3c-0.2,0-0.3,0-0.5,0c-0.4,0-0.7,0-0.7-1.2v-1.2c0-0.4,0-0.7,0.1-0.9h-1c0,0,0,0,0,0
					c0,0.1,0,0.3-0.1,0.4c0,0.1,0,0.3,0,0.5V30c0,0.5,0,0.9,0.2,1.3c0.1,0.2,0.2,0.4,0.4,0.6c0.2,0.2,0.4,0.3,0.7,0.3
					c0.1,0,0.3,0,0.5,0c0.1,0,0.3,0,0.4,0c0.1,0,0.3,0,0.4,0c0.3,0,0.5,0,0.6-0.1v-4.2H110.7z"/>
				<path fill="#013564" d="M113.7,27.8v2.9c0.1-0.7,0.4-1.5,1-2.1v-0.8H113.7z"/>
				<path fill="#013564" d="M114.7,31.3L114.7,31.3c0-0.2,0-0.3,0-0.4v0C114.7,31,114.7,31.1,114.7,31.3L114.7,31.3
					c0,0.1,0,0.2,0,0.4v0C114.7,31.5,114.7,31.4,114.7,31.3z"/>
				<path fill="#013564" d="M106.3,27.8h-0.8c0,0.3-0.1,0.6-0.1,0.9V30c0,1.3,0.3,2.3,0.9,3.1L106.3,27.8
					C106.3,27.9,106.3,27.9,106.3,27.8z"/>
				<path fill="#013564" d="M106.3,27.8c0-0.6-0.1-1.2-0.3-1.7c-0.2,0.5-0.4,1.1-0.5,1.7H106.3z"/>
				<path fill="#013564" d="M114.7,28.7v2.2c0.1-0.7,0.3-1.3,0.9-1.7c0.3-0.2,0.7-0.4,1.2-0.5s1.1-0.2,1.7-0.2h1v-0.7c0,0,0,0,0,0
					h-3.2C115.6,28,115.1,28.3,114.7,28.7z"/>
				<path fill="#013564" d="M118,23.9c-1.1,0-2.1,0.1-2.8,0.3c-0.2,0-0.3,0.1-0.5,0.2v3.2c0.2,0.1,0.4,0.2,0.7,0.2h0.1h0.1l0.1,0
					c0.3-0.1,0.9-0.1,1.6-0.1c-0.4,0.1-0.7,0.1-1.1,0.2h3.2c0-0.1,0-0.2,0-0.3c0-0.2-0.1-0.4-0.2-0.5c-0.1-0.2-0.3-0.3-0.6-0.4
					c-0.2,0-0.4-0.1-0.6-0.1c-0.8,0-1.5,0-2.1,0.1c-0.2,0-0.3,0-0.5,0.1c0,0,0,0-0.1,0c-0.1,0-0.1,0-0.2-0.1c-0.1,0-0.1-0.1-0.1-0.2
					v-1c0-0.2,0.1-0.3,0.3-0.3c0.2,0,0.3-0.1,0.5-0.1c0.2,0,0.4-0.1,0.7-0.1c0.4,0,0.9-0.1,1.4-0.1c1.1,0,2,0.2,2.6,0.7
					c0.6,0.5,0.9,1.2,0.9,2.2h1C122.5,25.3,120.8,23.9,118,23.9z"/>
				<path fill="#013564" d="M121.5,27.9v5.7c0.1,0.1,0,0.2-0.1,0.2c0,0-0.1,0-0.1,0l0,0h-1.4c-0.2,0-0.3-0.1-0.3-0.3v-0.2
					c-0.1,0.1-0.2,0.1-0.3,0.1c-0.3,0.2-0.7,0.3-1,0.4c-0.3,0.1-0.6,0.1-0.9,0.1c-0.6,0-1.1-0.1-1.6-0.4c-0.6-0.3-1-0.9-1.1-1.9V33
					c0.1,0.4,0,0.6-0.2,0.8c0.6,0.7,1.6,1.1,2.8,1.1c0.6,0,1.2-0.1,1.8-0.4c0.2,0.1,0.4,0.2,0.7,0.2h1.4c0.5,0,1-0.3,1.1-0.7
					c0.1-0.2,0.1-0.5,0.1-0.7v-5.5c0,0,0,0,0,0L121.5,27.9C121.5,27.9,121.5,27.9,121.5,27.9z"/>
				<path fill="#013564" d="M117.6,30c-0.2,0.1-0.4,0.1-0.5,0.3c-0.1,0.1-0.1,0.1-0.2,0.2c-0.1,0.2-0.2,0.5-0.2,0.8v0
					c0,0.6,0.2,0.8,0.6,0.9c0.1,0,0.3,0,0.5,0c0.3,0,0.6,0,0.9-0.1c0.3-0.1,0.5-0.2,0.7-0.3v-1.9h-1C118.2,29.9,117.9,29.9,117.6,30
					z M118.5,31.2c-0.2,0.1-0.4,0.1-0.6,0.1c0,0-0.1,0-0.1,0c0-0.2,0-0.2,0-0.3c0.1,0,0.3-0.1,0.7-0.1V31.2z"/>
				<path fill="#013564" d="M114.1,25.4v1c0,0.5,0.2,0.9,0.6,1.1v-3.2C114.3,24.6,114.1,25,114.1,25.4z"/>
				<path fill="#013564" d="M114.7,33v-1.3c0-0.1,0-0.2,0-0.4v0c0-0.1,0-0.2,0-0.4v-2.2c-0.6,0.6-0.9,1.3-1,2.1v0.9
					c0.1,0.9,0.4,1.6,0.8,2.2C114.7,33.6,114.8,33.4,114.7,33z"/>
				<path fill="#013564" d="M131.8,28.4c0,0,0-0.1,0-0.1v-0.5h-1v0.5c0,0.1,0,0.1-0.1,0.2c-0.1,0.1-0.1,0.1-0.2,0.1h-4.3v4.8v0
					c0,0.1-0.1,0.2-0.2,0.3c0,0-0.1,0-0.1,0l0,0h-1.6l0,0c-0.1,0-0.2-0.1-0.3-0.2c0,0,0-0.1,0-0.1v0v-5.5h-1v5.5
					c0,0.7,0.6,1.3,1.3,1.3h1.6c0.7,0,1.3-0.6,1.3-1.3v-3.8h3.3c0.1,0,0.2,0,0.3-0.1C131,29.1,131.4,28.7,131.8,28.4z"/>
				<path fill="#013564" d="M124.1,25.2L124.1,25.2c0-1,0.2-1.7,0.6-2.2s0.9-0.8,1.6-0.9c0.4-0.1,0.9-0.1,1.4-0.1
					c1.4,0,2.1,0.1,2.6,0.2c0.2,0,0.3,0.1,0.4,0.1c0.1,0,0.1,0,0.1,0c0.1,0,0.1,0.1,0.1,0.3v1c0,0.1-0.1,0.2-0.3,0.2h-3.2
					c-0.4,0-0.6,0.1-0.8,0.2c-0.1,0.1-0.2,0.2-0.3,0.3c0,0.1-0.1,0.1-0.1,0.2c0,0.2-0.1,0.4-0.1,0.7v1.7h4.3l0,0
					c0.2,0,0.3,0.1,0.3,0.3v0.7h1v-0.2c-0.6-0.1-0.9-0.6-0.9-1.2V26c-0.1,0-0.2-0.1-0.4-0.1h-3.3v-0.7c0-0.2,0-0.3,0-0.3
					c0.1,0,0.1,0,0.2,0h3.2c0.1,0,0.2,0,0.3,0c0.2-0.3,0.5-0.5,0.9-0.7c0.1-0.2,0.1-0.3,0.1-0.5v-1c0-0.5-0.2-1.1-1.1-1.3l-0.2,0
					c-0.5-0.1-1.2-0.2-3-0.2c-1.1,0-4.6,0-4.6,4.2v2.6h1V25.2z"/>
				<path fill="#013564" d="M138.5,33.5v-5.6h-0.3c0,0,0,0,0,0v5.7c0,0,0,0,0,0c0,0.1-0.1,0.2-0.2,0.2l0,0h-1.4l0,0
					c-0.2,0-0.3-0.1-0.3-0.3v-0.2c-0.2,0.1-0.4,0.2-0.5,0.3c-0.5,0.3-1.1,0.4-1.7,0.4c-0.7,0-1.3-0.1-1.8-0.5
					c-0.1-0.1-0.2-0.2-0.4-0.3c-0.2-0.3-0.4-0.6-0.5-1c0-0.2-0.1-0.5-0.1-0.7v0c0-0.4,0.1-0.8,0.2-1.2c0.1-0.3,0.4-0.6,0.7-0.8
					c0.3-0.2,0.6-0.3,1-0.4c0.1,0,0.2-0.1,0.4-0.1c0.5-0.1,1-0.1,1.6-0.1h1v-0.7c0,0,0,0,0,0H133c-0.5,0.1-0.9,0.3-1.2,0.6
					c-0.1,0.6-0.4,1-1,1.1c-0.3,0.6-0.4,1.2-0.4,1.7c0,2.3,1.4,3.7,3.7,3.7c0.6,0,1.2-0.1,1.8-0.4c0.2,0.1,0.4,0.2,0.7,0.2h1.4
					c0.3,0,0.6-0.1,0.8-0.3C138.6,34.2,138.5,33.9,138.5,33.5z"/>
				<path fill="#013564" d="M131.1,24.8c-0.1,0.2-0.2,0.4-0.2,0.6V26c0.5,0.2,0.9,0.6,0.9,1.2v0.5c0.1,0,0.2,0.1,0.4,0.1h0.1h0.1
					l0.1,0c0.3-0.1,0.9-0.1,1.6-0.1c-0.4,0.1-0.7,0.1-1.1,0.2h3.2c0-1-0.4-1.2-1.4-1.2c-0.8,0-1.6,0-2.2,0.1c-0.1,0-0.3,0-0.4,0
					c0,0,0,0-0.1,0c-0.1,0-0.1,0-0.2,0c0,0-0.1-0.1-0.1-0.1c0,0,0-0.1,0-0.1v-1c0-0.1,0-0.2,0.1-0.2c0-0.1,0.1-0.1,0.2-0.1
					c0.3-0.1,0.7-0.1,1.2-0.2c0.4,0,0.9-0.1,1.4-0.1c1.7,0,2.8,0.5,3.2,1.7c0.1,0.4,0.2,0.8,0.2,1.3h0.3v-2.5c-0.7-1-2-1.5-3.7-1.5
					c-1.1,0-2.1,0.1-2.8,0.3c0,0,0,0,0,0C131.7,24.5,131.4,24.7,131.1,24.8z"/>
				<path fill="#013564" d="M136.2,29.9h-1c-0.7,0-1.2,0.1-1.4,0.3c-0.3,0.2-0.3,0.6-0.3,1v0c0,0.4,0.1,0.6,0.3,0.8
					c0.1,0,0.1,0.1,0.2,0.1c0.1,0,0.2,0.1,0.4,0.1c0.1,0,0.2,0,0.3,0c0.1,0,0.3,0,0.4,0s0.3-0.1,0.4-0.1c0.3-0.1,0.5-0.2,0.7-0.3
					V29.9z M135.2,31.2c-0.2,0.1-0.4,0.1-0.6,0.1c0,0-0.1,0-0.1,0c0-0.2,0-0.2,0-0.3c0.1,0,0.3-0.1,0.7-0.1V31.2z"/>
				<path fill="#013564" d="M131.8,28.4c-0.4,0.3-0.8,0.7-1,1.1C131.4,29.4,131.7,29,131.8,28.4z"/>
				<path fill="#013564" d="M130.9,26v0.5c0,0.6,0.4,1.1,0.9,1.2v-0.5C131.8,26.6,131.4,26.1,130.9,26z"/>
				<path fill="#013564" d="M131.1,24.8c0.4-0.1,0.7-0.3,0.9-0.7C131.5,24.3,131.2,24.5,131.1,24.8z"/>
				<path fill="#013564" d="M146.7,27.8c0,0.2,0,0.3,0,0.5v5.1c0,0.2-0.1,0.3-0.3,0.3H145l0,0c-0.1,0-0.1,0-0.1-0.1
					c-0.1-0.1-0.1-0.1-0.1-0.3v-5.1c0-0.2,0-0.4,0-0.5h-1c0,0.1,0,0.3,0,0.5v5.1c0,0.8,0.6,1.3,1.3,1.3h1.5c0.7,0,1.3-0.6,1.3-1.3
					v-5.1c0-0.1,0-0.3,0-0.5H146.7z"/>
				<path fill="#013564" d="M144.6,27.5c0-0.3-0.2-0.6-0.4-0.7c-0.2-0.1-0.5-0.2-1-0.2c-0.5,0-1.1,0.2-1.8,0.6v0.7h1v0
					c0.3-0.1,0.6-0.2,0.8-0.2c0.2,0,0.3,0,0.3,0c0,0.1,0,0.1,0,0.2h1C144.7,27.7,144.7,27.6,144.6,27.5z"/>
				<path fill="#013564" d="M141.5,33.5c0,0.1-0.1,0.2-0.1,0.3c0,0-0.1,0.1-0.2,0.1h-1.5c-0.1,0-0.2,0-0.2-0.1
					c0-0.1-0.1-0.1-0.1-0.2v-5.6h-0.3c0,0,0,0,0,0v5.5c0.1,0.2,0,0.5-0.1,0.7c-0.1,0.2-0.2,0.3-0.3,0.4c0.2,0.2,0.6,0.4,0.9,0.4h1.5
					c0.7,0,1.3-0.6,1.3-1.3v-5.6h-1V33.5z"/>
				<path fill="#013564" d="M139.5,27.8v-2.6c0-0.1,0.1-0.2,0.2-0.3c0,0,0.1,0,0.1,0l0,0h1.4c0.2,0,0.3,0.1,0.3,0.3v0.3
					c0.9-0.6,1.5-0.8,2.6-0.8c0.9,0,1.4,0.2,1.9,0.6c0.6,0.5,0.8,1.4,0.8,2.5h1c0-1.4-0.4-4.1-3.7-4.1c-0.8,0-1.5,0.1-2.1,0.4
					c-0.2-0.1-0.5-0.2-0.7-0.2h-1.4c-0.7,0-1.3,0.6-1.3,1.3v0.1c0.5,0.6,0.7,1.5,0.7,2.5H139.5z"/>
				<path fill="#013564" d="M139.2,34c0.1-0.2,0.1-0.5,0.1-0.7v-5.5c0,0,0,0,0,0h-0.7v5.6c0,0.4,0.1,0.7,0.4,1
					C139,34.3,139.1,34.2,139.2,34z"/>
				<path fill="#013564" d="M139.2,27.8c0-1-0.3-1.8-0.7-2.5v2.5H139.2z"/>
				<polygon fill="#FFFFFF" points="60.7,20.6 60.7,20.6 60.7,20.6 				"/>
				<path fill="#FFFFFF" d="M63.1,25.6c0,0,0-0.1,0-0.1C63.1,25.5,63.1,25.5,63.1,25.6z"/>
				<path fill="#FFFFFF" d="M60.9,20.6c0,0,0.1,0.1,0.3,0.1C61,20.7,60.9,20.6,60.9,20.6z"/>
				<path fill="#FFFFFF" d="M64.2,30.3C64.2,30.3,64.2,30.3,64.2,30.3C64.2,30.3,64.2,30.3,64.2,30.3L64.2,30.3z"/>
				<path fill="#FFFFFF" d="M64.3,30.4c0.1,0,0.1,0,0.2-0.1C64.4,30.4,64.4,30.4,64.3,30.4z"/>
				<path fill="#FFFFFF" d="M60.7,20.6c0,0,0.1,0,0.1,0C60.8,20.6,60.8,20.6,60.7,20.6z"/>
				<path fill="#FFFFFF" d="M67,23c0-0.1-0.1-0.2-0.2-0.2l-0.6-0.2l0.6,0.2C66.9,22.8,67,22.9,67,23z"/>
				<path fill="#FFFFFF" d="M64.3,22.2c0.1-0.1,0.2-0.2,0.3-0.2C64.6,22.1,64.5,22.1,64.3,22.2z"/>
				<path fill="#FFFFFF" d="M63.9,22.4c-0.1,0-0.2,0.1-0.4,0.1c0,0,0,0,0,0C63.7,22.5,63.8,22.5,63.9,22.4z"/>
				<path fill="#FFFFFF" d="M64,22.4c0.1,0,0.2-0.1,0.3-0.1C64.2,22.3,64.1,22.4,64,22.4z"/>
				<path fill="#FFFFFF" d="M63.1,25.6c0,0.1,0.1,0.2,0.2,0.2c0,0,0.1,0,0.1,0c0,0,0,0,0,0c0,0-0.1,0-0.1,0
					C63.2,25.7,63.2,25.6,63.1,25.6z"/>
				<path fill="#FFFFFF" d="M61.1,20.7c0.1,0,0.3,0.1,0.4,0.2C61.4,20.8,61.3,20.8,61.1,20.7z"/>
				<path fill="#FFFFFF" d="M62.7,22.2c-0.3-0.3-0.5-0.7-0.5-1.1c0,0-0.3-0.1-0.6-0.2c0.3,0.1,0.6,0.2,0.6,0.2
					C62.2,21.5,62.4,21.9,62.7,22.2z"/>
				<path fill="#FFFFFF" d="M64.6,26.2c0,0,0.1,0,0.1,0c0,0,0,0,0,0C64.7,26.2,64.7,26.2,64.6,26.2c-0.1,0-0.2-0.2-0.3-0.3
					C64.4,26,64.5,26.2,64.6,26.2z"/>
				<path fill="#FFFFFF" d="M63.2,25.1C63.2,25.1,63.2,25.1,63.2,25.1C63.2,25.1,63.2,25.1,63.2,25.1z"/>
				<path fill="#FFFFFF" d="M65.1,26C65.1,26,65.1,26,65.1,26c0,0,0-0.1,0-0.1C65.2,25.9,65.1,25.9,65.1,26C65.1,26,65.1,26,65.1,26
					z"/>
				<path fill="#FFFFFF" d="M63.7,25.7C63.7,25.7,63.7,25.7,63.7,25.7C63.7,25.7,63.7,25.7,63.7,25.7z"/>
				<path fill="#FFFFFF" d="M63.5,25C63.5,25,63.5,25,63.5,25c0,0,0.1,0,0.1,0C63.5,25,63.5,25,63.5,25z"/>
				<path fill="#FFFFFF" d="M64.5,25.6C64.5,25.6,64.5,25.6,64.5,25.6C64.5,25.6,64.5,25.6,64.5,25.6z"/>
				<path fill="#FFFFFF" d="M64.6,30c0,0.1-0.1,0.2-0.1,0.3C64.5,30.2,64.6,30.1,64.6,30z"/>
				<path fill="#FFFFFF" d="M65,26.2C65,26.2,65,26.2,65,26.2C65,26.2,65,26.2,65,26.2z"/>
				<path fill="#FFFFFF" d="M64.8,25.5C64.8,25.5,64.8,25.5,64.8,25.5c0,0,0.1,0,0.1,0C64.8,25.5,64.8,25.5,64.8,25.5z"/>
				<path fill="#FFFFFF" d="M65,25.6c0.1,0.1,0.1,0.2,0.1,0.3C65.2,25.7,65.1,25.7,65,25.6z"/>
				<path fill="#FFFFFF" d="M63.3,27.8L63.3,27.8c0.4,1.2,0.7,2.1,0.7,2.1c0.1,0.1,0.1,0.2,0.1,0.3c0,0,0,0.1,0,0.1L63.3,27.8z"/>
				<path fill="#FFFFFF" d="M63.3,27.8l-2.6-7.3c0,0,0,0,0,0c0,0,0,0,0,0c0,0,0,0.1,0,0.2c0,0,0,0,0,0c0,0.1,0.8,2.2,1.6,4.3
					c0.1,0.2,0.1,0.4,0.2,0.5c0.2,0.4,0.3,0.8,0.4,1.2c0.1,0.1,0.1,0.3,0.2,0.4C63.1,27.5,63.2,27.7,63.3,27.8L63.3,27.8z"/>
				<path fill="#FFFFFF" d="M60.7,20.8c0-0.1,0-0.1,0-0.2C60.6,20.7,60.6,20.7,60.7,20.8z"/>
				<path fill="#FFFFFF" d="M60.6,20.6C60.6,20.6,60.7,20.6,60.6,20.6L60.6,20.6C60.7,20.6,60.6,20.6,60.6,20.6z"/>
				<path fill="#FFFFFF" d="M64.2,30.2C64.2,30.3,64.2,30.3,64.2,30.2L64.2,30.2C64.2,30.3,64.2,30.3,64.2,30.2z"/>
				<path fill="#FFFFFF" d="M62.5,25.7c-0.1-0.2-0.1-0.4-0.2-0.5C62.3,25.3,62.4,25.5,62.5,25.7z"/>
				<path fill="#FFFFFF" d="M63.1,27.3C63,27.1,63,27,62.9,26.9C63,27,63,27.1,63.1,27.3z"/>
				<path fill="#FFFFFF" d="M59.7,21.1L59.7,21.1l0,0.1c0.1,0.4,1.3,3.6,2.4,6.6h0.1l-2.6-7.2C59.6,20.9,59.7,21,59.7,21.1z"/>
				<path fill="#FFFFFF" d="M62.2,27.8c0.3,0.8,0.6,1.7,0.9,2.4c0,0.1,0.1,0.3,0.2,0.5L62.2,27.8L62.2,27.8L62.2,27.8z"/>
				<path fill="#FFFFFF" d="M57.7,34.7l-2.7,1c0,0,0,0,0,0c0,0,0,0,0,0L57.7,34.7c0-0.7,0.4-1.4,1.2-1.6c0,0,0,0,0,0c0,0,0,0,0,0
					C58.1,33.3,57.7,34,57.7,34.7z"/>
				<path fill="#FFFFFF" d="M50.2,23.9C50.2,23.9,50.2,23.9,50.2,23.9C50.2,23.9,50.2,23.9,50.2,23.9l1.4,3.9l0,0L50.2,23.9z"/>
				<path fill="#FFFFFF" d="M52.7,27.5c0-0.1-0.1-0.1-0.1-0.2c0,0,0-0.1,0-0.1c0,0,0,0.1,0,0.1C52.6,27.4,52.6,27.4,52.7,27.5z"/>
				<path fill="#FFFFFF" d="M51.6,27.8L51.6,27.8l2.7,7.5c0,0.1,0.1,0.2,0.2,0.2c-0.1-0.1-0.1-0.1-0.2-0.2L51.6,27.8z"/>
				<path fill="#FFFFFF" d="M60.4,33.3c0.1,0.1,0.2,0.2,0.3,0.3C60.7,33.5,60.5,33.4,60.4,33.3z"/>
				<path fill="#FFFFFF" d="M59.4,33c0.2,0,0.3,0,0.5,0.1C59.7,33,59.6,33,59.4,33C59.4,33,59.4,33,59.4,33z"/>
				<path fill="#FFFFFF" d="M63.5,32.6l-2.7,1l0,0L63.5,32.6c0.2-0.1,0.3-0.2,0.3-0.4C63.8,32.4,63.7,32.5,63.5,32.6z"/>
				<path fill="#FFFFFF" d="M53.3,26.8c0,0,0.1,0.1,0.1,0.1C53.3,26.9,53.3,26.9,53.3,26.8z"/>
				<path fill="#FFFFFF" d="M59.2,25.1c0-0.1-0.1-0.1-0.1-0.2C59.1,25,59.2,25.1,59.2,25.1z"/>
				<path fill="#FFFFFF" d="M59.8,25.3C59.8,25.3,59.8,25.3,59.8,25.3c0,0,0.1-0.1,0.1-0.1C59.9,25.2,59.9,25.2,59.8,25.3
					C59.8,25.3,59.8,25.3,59.8,25.3z"/>
				<path fill="#FFFFFF" d="M59.6,25.3C59.6,25.3,59.6,25.3,59.6,25.3c-0.1,0-0.1,0-0.2,0C59.5,25.3,59.5,25.3,59.6,25.3z"/>
				<path fill="#FFFFFF" d="M59.4,25.3c0,0-0.1-0.1-0.1-0.1C59.3,25.2,59.3,25.2,59.4,25.3z"/>
				<path fill="#FFFFFF" d="M60,24.6c0,0.1,0.1,0.1,0.1,0.2C60,24.7,60,24.7,60,24.6z"/>
				<path fill="#FFFFFF" d="M57.9,25C57.9,25,57.9,25,57.9,25c0.1,0,0.1,0,0.2,0C58,25,58,25,57.9,25z"/>
				<path fill="#FFFFFF" d="M57.5,25.5c0-0.1,0-0.3,0.2-0.4c0,0,0,0,0,0c0,0,0,0,0,0C57.5,25.2,57.5,25.4,57.5,25.5
					c0,0.1,0,0.1,0.1,0.2C57.5,25.6,57.5,25.6,57.5,25.5z"/>
				<path fill="#FFFFFF" d="M57.7,25.8c0,0-0.1-0.1-0.1-0.1C57.6,25.8,57.7,25.8,57.7,25.8z"/>
				<path fill="#FFFFFF" d="M58.1,25.1c0,0,0.1,0.1,0.1,0.1C58.2,25.1,58.2,25.1,58.1,25.1z"/>
				<path fill="#FFFFFF" d="M58.3,25.2c0,0.1,0.1,0.1,0.1,0.2C58.4,25.3,58.3,25.3,58.3,25.2z"/>
				<path fill="#FFFFFF" d="M57.9,25.9C57.9,25.9,58,25.9,57.9,25.9c-0.1,0-0.1,0-0.2,0C57.8,25.9,57.9,25.9,57.9,25.9z"/>
				<path fill="#FFFFFF" d="M54.8,35.7c-0.1,0-0.2,0-0.2-0.1C54.6,35.7,54.7,35.7,54.8,35.7z"/>
				<path fill="#FFFFFF" d="M59.2,20.2c0.1,0,0.2,0,0.2,0.1C59.4,20.3,59.3,20.2,59.2,20.2z"/>
				<path fill="#FFFFFF" d="M59.8,24.5c0,0,0.1,0.1,0.1,0.1C59.9,24.5,59.8,24.5,59.8,24.5z"/>
				<path fill="#FFFFFF" d="M56.3,25.6C56.3,25.6,56.3,25.6,56.3,25.6c0.1,0,0.1,0,0.2,0C56.4,25.6,56.3,25.6,56.3,25.6z"/>
				<path fill="#FFFFFF" d="M59.6,20.6L59.6,20.6L59.6,20.6c0-0.2-0.1-0.2-0.2-0.3C59.5,20.4,59.6,20.5,59.6,20.6L59.6,20.6z"/>
				<path fill="#FFFFFF" d="M60.3,33.2c-0.1-0.1-0.2-0.1-0.3-0.1C60.1,33.1,60.2,33.1,60.3,33.2z"/>
				<path fill="#FFFFFF" d="M53.7,22.7c0.1,0.1,0.2,0.1,0.3,0.2C53.9,22.9,53.8,22.8,53.7,22.7z"/>
				<path fill="#FFFFFF" d="M59.6,24.4C59.6,24.4,59.6,24.4,59.6,24.4c0.1,0,0.1,0,0.2,0C59.7,24.4,59.6,24.4,59.6,24.4z"/>
				<path fill="#FFFFFF" d="M56.3,21.2l2.7-1L56.3,21.2c0,0.5-0.2,1.1-0.7,1.4C56.1,22.3,56.3,21.8,56.3,21.2z"/>
				<path fill="#FFFFFF" d="M50.5,23.3l2.7-1c0.1,0.1,0.2,0.2,0.3,0.3c-0.1-0.1-0.2-0.2-0.3-0.3L50.5,23.3c-0.2,0.1-0.3,0.2-0.3,0.3
					C50.2,23.5,50.3,23.4,50.5,23.3z"/>
				<path fill="#FFFFFF" d="M54.6,23c-0.2,0-0.3,0-0.5-0.1C54.2,23,54.4,23,54.6,23C54.5,23,54.5,23,54.6,23z"/>
				<path fill="#FFFFFF" d="M54.9,26.3c0,0,0.1,0.1,0.1,0.1C55,26.3,54.9,26.3,54.9,26.3z"/>
				<path fill="#FFFFFF" d="M56.5,26.5c0.1-0.1,0.2-0.3,0.2-0.4c0-0.1,0-0.1-0.1-0.2c0,0.1,0.1,0.1,0.1,0.2
					C56.8,26.2,56.7,26.4,56.5,26.5z"/>
				<path fill="#FFFFFF" d="M54.7,26.2C54.7,26.2,54.7,26.2,54.7,26.2c0.1,0,0.1,0,0.2,0C54.8,26.2,54.7,26.2,54.7,26.2z"/>
				<path fill="#FFFFFF" d="M54.5,27.1c0,0-0.1-0.1-0.1-0.1C54.4,27,54.4,27,54.5,27.1z"/>
				<path fill="#FFFFFF" d="M56.1,26.5c0,0-0.1-0.1-0.1-0.1C56,26.4,56,26.4,56.1,26.5z"/>
				<path fill="#FFFFFF" d="M52.8,27.6c0,0-0.1-0.1-0.1-0.1C52.7,27.6,52.8,27.6,52.8,27.6z"/>
				<path fill="#FFFFFF" d="M54.2,26.7c0-0.1,0-0.3,0.2-0.4c0,0,0,0,0,0c0,0,0,0,0,0C54.3,26.4,54.2,26.6,54.2,26.7
					c0,0.1,0,0.1,0.1,0.2C54.3,26.9,54.2,26.8,54.2,26.7z"/>
				<path fill="#FFFFFF" d="M55.1,26.4c0,0.1,0.1,0.1,0.1,0.2C55.1,26.5,55.1,26.5,55.1,26.4z"/>
				<path fill="#FFFFFF" d="M55.1,26.6L55.1,26.6c0,0.1,0,0.2-0.1,0.2C55.1,26.8,55.1,26.7,55.1,26.6z"/>
				<path fill="#FFFFFF" d="M54.7,27.1C54.7,27.1,54.7,27.1,54.7,27.1c-0.1,0-0.1,0-0.2,0C54.6,27.1,54.6,27.1,54.7,27.1z"/>
				<path fill="#FFFFFF" d="M55.9,26.3c0-0.1-0.1-0.1-0.1-0.2c0-0.1,0-0.2,0.1-0.3c-0.1,0.1-0.1,0.2-0.1,0.3
					C55.8,26.2,55.9,26.3,55.9,26.3z"/>
				<path fill="#FFFFFF" d="M56.3,26.5C56.3,26.5,56.3,26.5,56.3,26.5c-0.1,0-0.1,0-0.2,0C56.2,26.5,56.2,26.5,56.3,26.5z"/>
				<path fill="#FFFFFF" d="M53,26.8C53,26.8,53,26.8,53,26.8c0.1,0,0.1,0,0.2,0C53.1,26.8,53.1,26.8,53,26.8z"/>
				<path fill="#FFFFFF" d="M56.5,25.7c0,0,0.1,0.1,0.1,0.1C56.6,25.7,56.5,25.7,56.5,25.7z"/>
				<path fill="#FFFFFF" d="M53.3,27.6C53.3,27.6,53.3,27.6,53.3,27.6C53.3,27.6,53.3,27.6,53.3,27.6c0.1-0.1,0.2-0.2,0.2-0.4
					c0-0.1,0-0.1-0.1-0.2c0,0.1,0.1,0.1,0.1,0.2C53.5,27.4,53.4,27.5,53.3,27.6z"/>
				<path fill="#FFFFFF" d="M53.1,27.7C53.1,27.7,53.1,27.7,53.1,27.7c-0.1,0-0.1,0-0.2,0C52.9,27.7,53,27.7,53.1,27.7z"/>
				<polygon fill="#FFFFFF" points="62.3,27.9 62.2,27.8 62.2,27.8 				"/>
				
					<rect x="57.1" y="24.2" transform="matrix(-0.3411 -0.94 0.94 -0.3411 58.9355 89.8009)" fill="#FFFFFF" width="7.7" height="0"/>
				<path fill="#FFFFFF" d="M78.1,27.2c0-0.1-0.1-0.2-0.3-0.2h0C78,27,78.1,27.1,78.1,27.2z"/>
				<path fill="#FFFFFF" d="M71.4,25.2c0-1,0.2-1.7,0.6-2.2C71.6,23.5,71.4,24.2,71.4,25.2v2.6l0,0V25.2z"/>
				<path fill="#FFFFFF" d="M73.4,33.7c-0.6-0.1-1.1-0.4-1.4-0.8C72.3,33.3,72.8,33.6,73.4,33.7z"/>
				<path fill="#FFFFFF" d="M77.3,22.1c0.1,0,0.2,0,0.3,0C77.5,22.2,77.4,22.1,77.3,22.1z"/>
				<path fill="#FFFFFF" d="M78,33.7c-0.1,0-0.1,0-0.2,0C77.9,33.7,78,33.7,78,33.7c0.2,0,0.3-0.1,0.3-0.2
					C78.3,33.6,78.2,33.7,78,33.7z"/>
				<path fill="#FFFFFF" d="M73.7,33.8c0.4,0.1,0.9,0.1,1.3,0.1c1.4,0,2.1-0.1,2.6-0.2c-0.5,0.1-1.2,0.2-2.6,0.2
					C74.5,33.9,74.1,33.9,73.7,33.8z"/>
				<path fill="#FFFFFF" d="M73.6,28.6L73.6,28.6h4.3c0.1,0,0.1,0,0.2-0.1c-0.1,0-0.1,0.1-0.2,0.1H73.6z"/>
				<path fill="#FFFFFF" d="M71.4,27.8L71.4,27.8v2.9c0,1,0.2,1.7,0.6,2.2c-0.4-0.5-0.6-1.2-0.6-2.2V27.8z"/>
				<path fill="#FFFFFF" d="M78.3,22.4c0-0.1-0.1-0.1-0.3-0.1c0,0,0,0,0,0c0,0,0,0,0,0C78.2,22.3,78.2,22.3,78.3,22.4z"/>
				<path fill="#FFFFFF" d="M74.8,23.9c-0.5,0-0.8,0.1-1,0.3C74,24,74.4,23.9,74.8,23.9H78c0.1,0,0.1,0,0.2-0.1
					c-0.1,0-0.1,0.1-0.2,0.1H74.8z"/>
				<path fill="#FFFFFF" d="M81.5,33.5L81.5,33.5c0,0.1,0,0.2-0.1,0.2C81.4,33.7,81.5,33.6,81.5,33.5z"/>
				<path fill="#FFFFFF" d="M86.3,33.8c0.1,0,0.1,0,0.2-0.1C86.5,33.7,86.4,33.8,86.3,33.8L86.3,33.8z"/>
				<path fill="#FFFFFF" d="M86.6,27.8L86.6,27.8c0-0.3,0-0.6-0.1-0.9l0,0C86.6,27.2,86.6,27.5,86.6,27.8z"/>
				<path fill="#FFFFFF" d="M86.6,28.3v5.1c0,0.1,0,0.2-0.1,0.2c0.1-0.1,0.1-0.1,0.1-0.2V28.3c0-0.2,0-0.3,0-0.5l0,0
					C86.6,28,86.6,28.1,86.6,28.3z"/>
				<path fill="#FFFFFF" d="M79.7,25c-0.1,0-0.2,0.1-0.3,0.2C79.5,25,79.6,25,79.7,25z"/>
				<path fill="#FFFFFF" d="M81.4,25.3v0.3v0V25.3c0-0.1-0.1-0.3-0.3-0.3h0C81.3,25,81.4,25.1,81.4,25.3z"/>
				<path fill="#FFFFFF" d="M86,25.6L86,25.6c-0.4-0.5-1-0.8-2.1-0.8c-0.7,0-1.2,0.1-1.8,0.3c0.5-0.2,1-0.3,1.8-0.3
					C84.9,24.8,85.6,25.1,86,25.6z"/>
				<path fill="#FFFFFF" d="M86.1,25.8c0-0.1-0.1-0.1-0.2-0.2l0,0C86,25.7,86.1,25.7,86.1,25.8z"/>
				<path fill="#FFFFFF" d="M86.5,27L86.5,27c-0.1-0.5-0.2-0.9-0.4-1.2C86.3,26.1,86.5,26.5,86.5,27z"/>
				<path fill="#FFFFFF" d="M90.8,31.4c0,0.4,0,0.6,0.1,0.7C90.8,32,90.8,31.7,90.8,31.4l0-3.5h0V31.4z"/>
				<path fill="#FFFFFF" d="M92.4,25.2v0.9c0,0.1,0,0.2-0.1,0.2c0.1,0,0.1-0.1,0.1-0.2V25.2c0-0.1-0.1-0.3-0.3-0.3l0,0
					C92.4,24.9,92.4,25.1,92.4,25.2z"/>
				<path fill="#FFFFFF" d="M90.8,23.3v1.6h0L90.8,23.3c0-0.1-0.1-0.2-0.2-0.2l0,0C90.7,23.1,90.8,23.2,90.8,23.3z"/>
				<path fill="#FFFFFF" d="M92.2,26.4c0.1,0,0.1,0,0.2-0.1C92.3,26.4,92.2,26.4,92.2,26.4L92.2,26.4z"/>
				<path fill="#FFFFFF" d="M92.5,32.5c0-0.1,0-0.1-0.1-0.2C92.5,32.3,92.5,32.4,92.5,32.5L92.5,32.5z"/>
				<path fill="#FFFFFF" d="M90.9,32.1c0,0.1,0.1,0.1,0.2,0.1C91,32.2,90.9,32.1,90.9,32.1z"/>
				<path fill="#FFFFFF" d="M92.5,33.4L92.5,33.4c0,0.1,0,0.2,0,0.3C92.6,33.7,92.6,33.6,92.5,33.4z"/>
				<rect x="90.8" y="26.4" fill="#FFFFFF" width="0" height="1.4"/>
				<path fill="#FFFFFF" d="M91.4,32.2c-0.1,0-0.3,0-0.3,0C91.1,32.2,91.2,32.2,91.4,32.2L91.4,32.2z"/>
				<path fill="#FFFFFF" d="M90.5,23.1L90.5,23.1L89,23.3c0,0-0.1,0-0.1,0c0,0,0.1,0,0.1,0L90.5,23.1z"/>
				<path fill="#FFFFFF" d="M93.7,25.2c0-0.1,0-0.2,0.1-0.2C93.7,25,93.7,25.1,93.7,25.2v2.6l0,0V25.2z"/>
				<path fill="#FFFFFF" d="M93.7,33.4v-5.6l0,0V33.4c0,0.1,0.1,0.2,0.1,0.3C93.8,33.7,93.7,33.6,93.7,33.4z"/>
				<path fill="#FFFFFF" d="M97.9,26.8c-0.6,0-1.1,0.1-1.5,0.3C96.8,26.9,97.3,26.8,97.9,26.8C98,26.8,98,26.8,97.9,26.8L97.9,26.8
					C98,26.8,98,26.8,97.9,26.8z"/>
				<path fill="#FFFFFF" d="M98,25.1c0,0-0.1-0.1-0.1-0.1h0C97.9,25,98,25,98,25.1L98,25.1z"/>
				<polygon fill="#FFFFFF" points="98,25.1 98,25.1 98,25.1 				"/>
				<path fill="#FFFFFF" d="M98.2,26.5c0,0,0,0.1,0,0.1C98.2,26.6,98.2,26.6,98.2,26.5v-1.2c0-0.1,0-0.1-0.1-0.2
					c0,0.1,0.1,0.1,0.1,0.2V26.5z"/>
				<path fill="#FFFFFF" d="M98,26.8L98,26.8c0,0,0.1,0,0.1-0.1C98.1,26.8,98,26.8,98,26.8z"/>
				<path fill="#FFFFFF" d="M99.6,33.6c0.5,0.3,1,0.4,1.6,0.4c0.4,0,0.8-0.1,1.1-0.2c-0.4,0.1-0.7,0.2-1.1,0.2
					C100.7,33.9,100.1,33.8,99.6,33.6z"/>
				<path fill="#FFFFFF" d="M102.4,33.8c0.4-0.1,0.7-0.3,1.1-0.5l0,0C103.1,33.5,102.7,33.6,102.4,33.8z"/>
				<path fill="#FFFFFF" d="M102.6,26.7c0,0-0.1,0-0.1,0C102.5,26.7,102.6,26.7,102.6,26.7z"/>
				<path fill="#FFFFFF" d="M103,26.9c0.2,0.2,0.3,0.5,0.3,1l0,0C103.3,27.4,103.2,27,103,26.9z"/>
				<path fill="#FFFFFF" d="M103.3,28.6v-0.7c0,0,0,0,0,0l0,0c0,0,0,0,0,0V28.6l-1,0c-1.4,0-2.3,0.2-2.9,0.7
					c0.6-0.5,1.6-0.7,2.9-0.7H103.3z"/>
				<path fill="#FFFFFF" d="M99.2,26.8C99.2,26.8,99.2,26.8,99.2,26.8L99.2,26.8C99.2,26.8,99.2,26.8,99.2,26.8
					C99.3,26.8,99.3,26.8,99.2,26.8c0.2,0,0.4,0,0.6-0.1C99.6,26.7,99.5,26.7,99.2,26.8C99.3,26.8,99.3,26.8,99.2,26.8z"/>
				<path fill="#FFFFFF" d="M101.8,32.3L101.8,32.3c-0.3,0-0.4,0-0.6-0.1C101.3,32.2,101.5,32.3,101.8,32.3z"/>
				<path fill="#FFFFFF" d="M105.3,27.9v5.7c0.1,0.1,0,0.2-0.2,0.2l0,0c0.2,0,0.3-0.1,0.2-0.2V27.9
					C105.3,27.9,105.3,27.9,105.3,27.9L105.3,27.9C105.3,27.9,105.3,27.9,105.3,27.9z"/>
				<path fill="#FFFFFF" d="M105.3,27.8L105.3,27.8c0-0.7-0.1-1.2-0.4-1.6C105.1,26.6,105.3,27.2,105.3,27.8z"/>
				<path fill="#FFFFFF" d="M102.4,29.9c-0.4,0-0.7,0-0.9,0.1C101.7,29.9,102,29.9,102.4,29.9L102.4,29.9z"/>
				<path fill="#FFFFFF" d="M99,26.7c0,0,0.1,0,0.1,0v0C99.1,26.7,99.1,26.7,99,26.7z"/>
				<path fill="#FFFFFF" d="M108.5,28.7L108.5,28.7c0-0.2,0-0.3,0-0.5C108.5,28.4,108.5,28.6,108.5,28.7z"/>
				<path fill="#FFFFFF" d="M110.2,32.2c0.1,0,0.3,0,0.4,0C110.5,32.2,110.3,32.2,110.2,32.2L110.2,32.2z"/>
				<path fill="#FFFFFF" d="M107.4,25.8c0.1-0.1,0.3-0.3,0.4-0.4C107.7,25.5,107.6,25.6,107.4,25.8z"/>
				<path fill="#FFFFFF" d="M110.2,26.5L110.2,26.5c0.1,0,0.2,0,0.3,0C110.4,26.5,110.3,26.5,110.2,26.5z"/>
				<path fill="#FFFFFF" d="M106.4,28.7c0-0.3,0-0.6,0.1-0.9l0,0C106.4,28.1,106.4,28.4,106.4,28.7l0,1.2c0,1.2,0.3,2.2,0.9,2.9
					c-0.6-0.7-0.9-1.7-0.9-2.9V28.7z"/>
				<rect x="113.7" y="27.8" fill="#FFFFFF" width="0" height="2.9"/>
				<path fill="#FFFFFF" d="M113.7,33.1c0,0.2,0,0.3-0.4,0.4c-0.4,0.1-0.8,0.2-1.2,0.2c0.4-0.1,0.8-0.1,1.2-0.2
					C113.7,33.4,113.8,33.3,113.7,33.1v-1.4c0,0,0,0,0,0V33.1z"/>
				<path fill="#FFFFFF" d="M111.7,22.2c0-0.2,0.1-0.3,0.3-0.3h1.5c0.1,0,0.2,0,0.2,0.1c0-0.1-0.1-0.1-0.2-0.1H112
					C111.8,21.9,111.7,22,111.7,22.2v2.8l0,0V22.2z"/>
				<path fill="#FFFFFF" d="M107.3,25.9c-0.5,0.5-0.7,1.2-0.9,2l0,0C106.6,27,106.9,26.4,107.3,25.9z"/>
				<path fill="#FFFFFF" d="M113.7,27.8L113.7,27.8v-5.7c0-0.1,0-0.1-0.1-0.2c0,0.1,0.1,0.1,0.1,0.2V27.8z"/>
				<rect x="111.7" y="27.8" fill="#FFFFFF" width="0" height="4.2"/>
				<path fill="#FFFFFF" d="M108.6,27.8C108.6,27.9,108.6,27.9,108.6,27.8C108.6,27.9,108.6,27.9,108.6,27.8L108.6,27.8z"/>
				<path fill="#FFFFFF" d="M110.5,26.5c0.1,0,0.3,0,0.4,0C110.8,26.5,110.7,26.5,110.5,26.5z"/>
				<rect x="111.7" y="26.6" fill="#FFFFFF" width="0" height="1.2"/>
				<path fill="#FFFFFF" d="M108.7,27.4c-0.1,0.1-0.1,0.3-0.2,0.5l0,0C108.6,27.7,108.7,27.5,108.7,27.4z"/>
				<path fill="#FFFFFF" d="M113.7,31.7v-0.9c0,0.2,0,0.3,0,0.5C113.7,31.4,113.7,31.5,113.7,31.7z"/>
				<rect x="113.7" y="30.7" fill="#FFFFFF" width="0" height="0.9"/>
				<path fill="#FFFFFF" d="M114.7,31.3c0,0.1,0,0.2,0,0.4v-0.8C114.7,31,114.7,31.1,114.7,31.3L114.7,31.3z"/>
				<path fill="#FFFFFF" d="M119.4,33.4c0.1,0,0.2-0.1,0.3-0.1l0,0C119.5,33.3,119.4,33.3,119.4,33.4z"/>
				<path fill="#FFFFFF" d="M115.8,33.6c0.5,0.3,1,0.4,1.6,0.4c0.3,0,0.6,0,0.9-0.1c-0.3,0.1-0.6,0.1-0.9,0.1
					C116.8,33.9,116.3,33.8,115.8,33.6z"/>
				<path fill="#FFFFFF" d="M115.9,25c0.2,0,0.4-0.1,0.7-0.1C116.4,25,116.1,25,115.9,25z"/>
				<path fill="#FFFFFF" d="M119.5,28.6L119.5,28.6l-1,0c-0.7,0-1.3,0.1-1.7,0.2c0.5-0.1,1.1-0.2,1.7-0.2H119.5z"/>
				<path fill="#FFFFFF" d="M115.6,29.2c0.3-0.2,0.7-0.4,1.2-0.5C116.3,28.8,115.9,29,115.6,29.2z"/>
				<path fill="#FFFFFF" d="M121.5,27.8c0-1-0.3-1.7-0.9-2.2C121.2,26.1,121.5,26.8,121.5,27.8L121.5,27.8z"/>
				<path fill="#FFFFFF" d="M121.5,27.9v5.7c0.1,0.1,0,0.2-0.1,0.2c0.1,0,0.2-0.1,0.1-0.2V27.9C121.5,27.9,121.5,27.9,121.5,27.9
					L121.5,27.9C121.5,27.9,121.5,27.9,121.5,27.9z"/>
				<path fill="#FFFFFF" d="M117.1,30.2c0.1-0.1,0.3-0.2,0.5-0.3C117.4,30,117.2,30.1,117.1,30.2z"/>
				<path fill="#FFFFFF" d="M115.4,26.8c-0.1,0-0.1,0-0.2-0.1C115.3,26.7,115.3,26.8,115.4,26.8C115.5,26.8,115.5,26.8,115.4,26.8
					c0.2,0,0.4,0,0.6-0.1C115.8,26.7,115.6,26.7,115.4,26.8C115.5,26.8,115.5,26.8,115.4,26.8z"/>
				<path fill="#FFFFFF" d="M117.6,30c0.2-0.1,0.5-0.1,0.9-0.1C118.2,29.9,117.9,29.9,117.6,30z"/>
				<path fill="#FFFFFF" d="M117.9,32.3L117.9,32.3c-0.2,0-0.4,0-0.5,0C117.5,32.3,117.7,32.3,117.9,32.3z"/>
				<path fill="#FFFFFF" d="M131.1,22.6v1c0,0.1-0.1,0.2-0.3,0.2h-3.2c-0.4,0-0.6,0.1-0.8,0.2c0.2-0.1,0.5-0.2,0.8-0.2h3.2
					c0.2,0,0.3-0.1,0.3-0.2L131.1,22.6c0-0.2,0-0.3-0.1-0.3C131,22.3,131.1,22.4,131.1,22.6z"/>
				<path fill="#FFFFFF" d="M124.1,25.2L124.1,25.2c0-1,0.2-1.7,0.6-2.2C124.4,23.5,124.1,24.2,124.1,25.2z"/>
				<path fill="#FFFFFF" d="M130.8,28.3c0,0.1,0,0.1-0.1,0.2C130.8,28.4,130.8,28.4,130.8,28.3v-0.5l0,0V28.3z"/>
				<path fill="#FFFFFF" d="M124.2,33.5c0,0.1,0.1,0.2,0.3,0.2l0,0C124.3,33.7,124.2,33.6,124.2,33.5z"/>
				<path fill="#FFFFFF" d="M130.5,26.9L130.5,26.9c0.2,0,0.3,0.1,0.3,0.3v0.7l0,0v-0.7C130.8,27,130.7,26.9,130.5,26.9z"/>
				<path fill="#FFFFFF" d="M126,33.7c0,0,0.1,0,0.1,0C126,33.7,126,33.7,126,33.7L126,33.7z"/>
				<path fill="#FFFFFF" d="M134.8,24.9c-0.5,0-1,0-1.4,0.1c-0.5,0-0.9,0.1-1.2,0.2c-0.1,0-0.2,0.1-0.2,0.1c0,0.1-0.1,0.1-0.1,0.2v1
					c0,0.1,0,0.1,0,0.1c0,0.1,0.1,0.1,0.1,0.1c0.1,0,0.1,0,0.2,0c0,0,0,0,0.1,0c0.1,0,0.2,0,0.4,0c0.6-0.1,1.4-0.1,2.2-0.1
					c1,0,1.4,0.2,1.4,1.2h2c0-0.5-0.1-0.9-0.2-1.3C137.6,25.4,136.5,24.9,134.8,24.9z"/>
				<path fill="#FFFFFF" d="M134.4,32.3c-0.2,0-0.3,0-0.4-0.1C134.1,32.2,134.2,32.2,134.4,32.3z"/>
				<path fill="#FFFFFF" d="M135.3,29.9c-0.7,0-1.2,0.1-1.4,0.3C134.1,30,134.6,29.9,135.3,29.9L135.3,29.9z"/>
				<path fill="#FFFFFF" d="M133.5,31.3c0-0.5,0.1-0.8,0.3-1C133.6,30.5,133.5,30.8,133.5,31.3L133.5,31.3c0,0.4,0.1,0.7,0.3,0.8
					C133.6,31.9,133.5,31.7,133.5,31.3L133.5,31.3z"/>
				<path fill="#FFFFFF" d="M134.6,32.3c0.1,0,0.3,0,0.4,0C134.9,32.3,134.8,32.3,134.6,32.3L134.6,32.3z"/>
				<path fill="#FFFFFF" d="M136.2,28.6L136.2,28.6l-1,0c-0.6,0-1.1,0.1-1.6,0.1c0.5-0.1,1-0.1,1.6-0.1H136.2z"/>
				<path fill="#FFFFFF" d="M136.4,33.5v-0.2l0,0V33.5c0,0.1,0.1,0.3,0.3,0.3l0,0C136.5,33.8,136.4,33.6,136.4,33.5z"/>
				<path fill="#FFFFFF" d="M138,33.8L138,33.8c0.1,0,0.3-0.1,0.2-0.2C138.3,33.7,138.2,33.8,138,33.8z"/>
				<path fill="#FFFFFF" d="M132.3,33.4c0.5,0.4,1.2,0.5,1.8,0.5c0.6,0,1.1-0.1,1.7-0.4c-0.5,0.3-1.1,0.4-1.7,0.4
					C133.5,33.9,132.8,33.8,132.3,33.4z"/>
				<path fill="#FFFFFF" d="M133.4,24.9c-0.5,0-0.9,0.1-1.2,0.2c-0.1,0-0.2,0.1-0.2,0.1c0-0.1,0.1-0.1,0.2-0.1
					C132.5,25,132.9,25,133.4,24.9z"/>
				<path fill="#FFFFFF" d="M132.2,26.8c-0.1,0-0.1,0-0.2,0C132.1,26.7,132.1,26.8,132.2,26.8C132.2,26.8,132.2,26.8,132.2,26.8
					c0.2,0,0.3,0,0.5,0C132.5,26.7,132.4,26.7,132.2,26.8C132.2,26.8,132.2,26.8,132.2,26.8z"/>
				<path fill="#FFFFFF" d="M132.3,29.2c0.3-0.2,0.6-0.3,1-0.4C132.9,28.9,132.6,29,132.3,29.2z"/>
				<path fill="#FFFFFF" d="M146.7,27.8c0-1.1-0.2-2-0.8-2.5c-0.4-0.4-1-0.6-1.9-0.6c-1.1,0-1.6,0.2-2.6,0.8v0v0v-0.3
					c0-0.1-0.1-0.3-0.3-0.3h-1.4c0,0-0.1,0-0.1,0c-0.1,0-0.2,0.1-0.2,0.3v2.6h2v-0.7l0,0l0,0c0.7-0.3,1.3-0.6,1.8-0.6
					c0.5,0,0.8,0.1,1,0.2c0.2,0.1,0.3,0.4,0.4,0.7c0,0.1,0,0.2,0,0.3H146.7z"/>
				<path fill="#FFFFFF" d="M144.6,27.5c0,0.1,0,0.2,0,0.3l0,0C144.7,27.7,144.7,27.6,144.6,27.5z"/>
				<path fill="#FFFFFF" d="M144,24.8c0.9,0,1.4,0.2,1.9,0.6C145.4,25,144.9,24.8,144,24.8c-1.1,0-1.6,0.2-2.6,0.8v0
					C142.4,25,142.9,24.8,144,24.8z"/>
				<path fill="#FFFFFF" d="M139.5,27.8L139.5,27.8v5.6c0,0.1,0,0.2,0.1,0.2c0-0.1-0.1-0.1-0.1-0.2V27.8z"/>
				<path fill="#FFFFFF" d="M139.5,25.3c0-0.1,0.1-0.2,0.2-0.3C139.6,25,139.5,25.1,139.5,25.3v2.6l0,0V25.3z"/>
				<rect x="141.5" y="27.2" fill="#FFFFFF" width="0" height="0.7"/>
				<path fill="#FFFFFF" d="M141.5,33.5c0,0.1-0.1,0.2-0.1,0.3C141.5,33.7,141.5,33.6,141.5,33.5v-5.6l0,0V33.5z"/>
				<path fill="#FFFFFF" d="M144.7,33.4v-5.1c0-0.2,0-0.4,0-0.5l0,0c0,0.2,0,0.3,0,0.5V33.4c0,0.1,0.1,0.2,0.1,0.3
					C144.7,33.7,144.7,33.6,144.7,33.4z"/>
			</g>
		</g>
		<g>
			<ellipse fill="#F3B400" cx="116.3" cy="169.5" rx="6" ry="2.2"/>
			<path fill="#013564" d="M116.3,173.2c-3.8,0-7.5-1.1-7.5-3.7c0-2.6,3.8-3.7,7.5-3.7s7.5,1.1,7.5,3.7
				C123.8,172,120,173.2,116.3,173.2z M112.3,169.5c0.8,0.3,2.1,0.6,4,0.6s3.2-0.3,4-0.6c-0.8-0.3-2.1-0.6-4-0.6
				S113.1,169.2,112.3,169.5z"/>
		</g>
		<g>
			<ellipse fill="#E63F36" cx="133.9" cy="169.5" rx="6" ry="2.2"/>
			<path fill="#013564" d="M133.9,173.2c-3.8,0-7.5-1.1-7.5-3.7c0-2.6,3.8-3.7,7.5-3.7s7.5,1.1,7.5,3.7
				C141.5,172,137.7,173.2,133.9,173.2z M130,169.5c0.8,0.3,2.1,0.6,4,0.6s3.2-0.3,4-0.6c-0.8-0.3-2.1-0.6-4-0.6
				S130.7,169.2,130,169.5z"/>
		</g>
		<g>
			<ellipse fill="#F3B400" cx="116.3" cy="167.3" rx="6" ry="2.2"/>
			<path fill="#013564" d="M116.3,171c-3.8,0-7.5-1.1-7.5-3.7s3.8-3.7,7.5-3.7s7.5,1.1,7.5,3.7S120,171,116.3,171z M112.3,167.3
				c0.8,0.3,2.1,0.6,4,0.6s3.2-0.3,4-0.6c-0.8-0.3-2.1-0.6-4-0.6S113.1,167,112.3,167.3z"/>
		</g>
		<g>
			<ellipse fill="#E63F36" cx="133.9" cy="167.3" rx="6" ry="2.2"/>
			<path fill="#013564" d="M133.9,171c-3.8,0-7.5-1.1-7.5-3.7s3.8-3.7,7.5-3.7s7.5,1.1,7.5,3.7S137.7,171,133.9,171z M130,167.3
				c0.8,0.3,2.1,0.6,4,0.6s3.2-0.3,4-0.6c-0.8-0.3-2.1-0.6-4-0.6S130.7,167,130,167.3z"/>
		</g>
		<g>
			<circle fill="#E63F36" cx="74.3" cy="152.3" r="6.8"/>
			<path fill="#013564" d="M74.3,160.5c-4.6,0-8.3-3.7-8.3-8.3s3.7-8.3,8.3-8.3s8.3,3.7,8.3,8.3S78.9,160.5,74.3,160.5z M74.3,147
				c-2.9,0-5.2,2.3-5.2,5.2s2.3,5.2,5.2,5.2s5.2-2.3,5.2-5.2S77.2,147,74.3,147z"/>
		</g>
		<path fill="#013564" d="M74.3,170.2c-0.8,0-1.5-0.7-1.5-1.5V159c0-0.8,0.7-1.5,1.5-1.5s1.5,0.7,1.5,1.5v9.7
			C75.9,169.5,75.2,170.2,74.3,170.2z"/>
		<path fill="#013564" d="M86.3,177.7H62.4c-2.1,0-3.8-1.7-3.8-3.8c0-0.1,0-0.1,0-0.2l1-7.7c0.1-2,1.7-3.7,3.8-3.7h21.8
			c2.1,0,3.7,1.6,3.8,3.7l1,7.7c0,0.1,0,0.1,0,0.2C90.1,176,88.4,177.7,86.3,177.7z M61.7,174c0,0.4,0.3,0.7,0.7,0.7h23.8
			c0.4,0,0.7-0.3,0.7-0.7l-1-7.7c0-0.1,0-0.1,0-0.2c0-0.4-0.3-0.7-0.7-0.7H63.4c-0.4,0-0.7,0.3-0.7,0.7c0,0.1,0,0.1,0,0.2L61.7,174z
			"/>
	</g>
	<g>
		<polygon fill="#236D95" points="177.5,48.6 20.5,48.6 15.3,42.1 182.7,42.1 		"/>
		<path fill="#013564" d="M177.5,50.1H20.5c-0.5,0-0.9-0.2-1.2-0.6l-5.1-6.4c-0.4-0.5-0.4-1.1-0.2-1.6c0.3-0.5,0.8-0.9,1.4-0.9
			h167.3c0.6,0,1.1,0.3,1.4,0.9c0.3,0.5,0.2,1.2-0.2,1.6l-5.1,6.4C178.5,49.9,178,50.1,177.5,50.1z M21.2,47.1h155.6l2.7-3.4h-161
			L21.2,47.1z"/>
	</g>
</g>
</svg>
