<?xml version="1.0" encoding="utf-8"?>
<!-- Generator: Adobe Illustrator 18.0.0, SVG Export Plug-In . SVG Version: 6.00 Build 0)  -->
<!DOCTYPE svg PUBLIC "-//W3C//DTD SVG 1.1//EN" "http://www.w3.org/Graphics/SVG/1.1/DTD/svg11.dtd">
<svg version="1.1" id="Layer_1" xmlns="http://www.w3.org/2000/svg" xmlns:xlink="http://www.w3.org/1999/xlink" x="0px" y="0px"
	 viewBox="0 0 859 273" enable-background="new 0 0 859 273" xml:space="preserve">
<g>
	<g>
		<polyline fill="#FFFFFF" points="154,225.9 154,115.5 66.7,115.5 66.7,225.9 		"/>
		<polygon fill="#E5E6E7" points="155,225.9 153,225.9 153,116.5 67.7,116.5 67.7,225.9 65.7,225.9 65.7,114.5 155,114.5 		"/>
	</g>
	<g>
		<line fill="#FFFFFF" x1="752.8" y1="144.4" x2="752.8" y2="225.9"/>
		<rect x="751.8" y="144.4" fill="#E5E6E7" width="2" height="81.4"/>
	</g>
	<path fill="#E5E6E7" d="M144.5,144.9H79.4v-14.6h65.1V144.9z M80.4,143.9h63.1v-12.6H80.4V143.9z"/>
	<polygon fill="#E5E6E7" points="84.1,167.6 79.4,167.6 79.4,153 144.5,153 144.5,167.1 143.5,167.1 143.5,154 80.4,154 80.4,166.6 
		84.1,166.6 	"/>
	<g>
		<rect x="209.4" y="35.8" fill="#FFFFFF" width="87.3" height="190.1"/>
		<path fill="#1A6AB3" d="M297.6,226.9h-89.3V34.8h89.3V226.9z M210.4,224.9h85.3V36.8h-85.3V224.9z"/>
	</g>
	<g>
		<path fill="#2BB573" d="M102.9,228.8L102.9,228.8c-10.4,0-18.8-8.5-18.7-18.8l0.1-33.9c0-10.3,8.4-18.6,18.7-18.6
			c5.1,0,9.8,2,13.3,5.5c3.5,3.5,5.4,8.3,5.4,13.3l-0.1,33.9C121.5,220.4,113.2,228.8,102.9,228.8z M103.1,159.4
			c-9.2,0-16.7,7.5-16.8,16.6L86.2,210c0,9.2,7.4,16.7,16.6,16.8l0.1,1v-1c9.2,0,16.7-7.5,16.7-16.6l0.1-33.9
			c0-4.5-1.7-8.7-4.8-11.8C111.7,161.2,107.5,159.4,103.1,159.4z"/>
		<path fill="#208856" d="M102.9,239.5c-0.6,0-1-0.4-1-1v-56.7c0-0.6,0.4-1,1-1s1,0.4,1,1v56.7C103.9,239,103.5,239.5,102.9,239.5z"
			/>
		<path fill="#208856" d="M102.9,210.8c-0.4,0-0.7-0.2-0.9-0.5l-6.2-11.8c-0.3-0.5-0.1-1.1,0.4-1.3c0.5-0.3,1.1-0.1,1.3,0.4
			l6.2,11.8c0.3,0.5,0.1,1.1-0.4,1.3C103.3,210.8,103.1,210.8,102.9,210.8z"/>
		<path fill="#208856" d="M102.9,221.6c-0.2,0-0.4-0.1-0.6-0.2c-0.4-0.3-0.5-1-0.2-1.4l8.3-10.8c0.3-0.4,1-0.5,1.4-0.2
			c0.4,0.3,0.5,1,0.2,1.4l-8.3,10.8C103.5,221.5,103.2,221.6,102.9,221.6z"/>
		<path fill="#208856" d="M102.9,193.4c-0.2,0-0.4-0.1-0.6-0.2c-0.4-0.3-0.5-1-0.2-1.4l5.3-6.9c0.3-0.4,1-0.5,1.4-0.2
			c0.4,0.3,0.5,1,0.2,1.4l-5.3,6.9C103.5,193.3,103.2,193.4,102.9,193.4z"/>
	</g>
	<g>
		<path fill="#2BB573" d="M503.9,228.8L503.9,228.8c-10.4,0-18.8-8.5-18.7-18.8l0.1-22.4c0-10.3,8.4-18.6,18.7-18.6
			c10.4,0,18.8,8.5,18.7,18.8l-0.1,22.4C522.6,220.4,514.2,228.8,503.9,228.8z M504.1,171c-9.2,0-16.7,7.5-16.8,16.6l-0.1,22.4
			c0,9.2,7.4,16.7,16.6,16.8l0.1,1v-1c9.2,0,16.7-7.5,16.7-16.6l0.1-22.4C520.8,178.5,513.4,171,504.1,171z"/>
		<path fill="#208856" d="M504,239.5c-0.6,0-1-0.4-1-1v-56.7c0-0.6,0.4-1,1-1s1,0.4,1,1v56.7C505,239,504.6,239.5,504,239.5z"/>
		<path fill="#208856" d="M504,210.8c-0.4,0-0.7-0.2-0.9-0.5l-6.2-11.8c-0.3-0.5-0.1-1.1,0.4-1.3c0.5-0.3,1.1-0.1,1.3,0.4l6.2,11.8
			c0.3,0.5,0.1,1.1-0.4,1.3C504.3,210.8,504.2,210.8,504,210.8z"/>
		<path fill="#208856" d="M504,221.6c-0.2,0-0.4-0.1-0.6-0.2c-0.4-0.3-0.5-1-0.2-1.4l8.3-10.8c0.3-0.4,1-0.5,1.4-0.2
			c0.4,0.3,0.5,1,0.2,1.4l-8.3,10.8C504.6,221.5,504.3,221.6,504,221.6z"/>
		<path fill="#208856" d="M504,193.4c-0.2,0-0.4-0.1-0.6-0.2c-0.4-0.3-0.5-1-0.2-1.4l5.3-6.9c0.3-0.4,1-0.5,1.4-0.2
			c0.4,0.3,0.5,1,0.2,1.4l-5.3,6.9C504.6,193.3,504.3,193.4,504,193.4z"/>
	</g>
	<rect x="439.1" y="243.2" fill="#E5E6E7" width="396.5" height="3"/>
	<rect x="5.2" y="243.2" fill="#E5E6E7" width="388.4" height="3"/>
	<rect x="171.9" y="118.5" fill="#1A6AB3" width="75" height="120"/>
	<polygon fill="#FF8100" points="321.9,200.8 246.9,184.4 246.9,238.5 321.9,238.5 	"/>
	<rect x="181.6" y="129.8" fill="#4887C2" width="14.7" height="29.3"/>
	<rect x="202" y="129.8" fill="#4887C2" width="14.7" height="29.3"/>
	<rect x="222.5" y="129.8" fill="#4887C2" width="14.7" height="29.3"/>
	<rect x="181.6" y="167.1" fill="#4887C2" width="14.7" height="29.3"/>
	<rect x="181.6" y="211.8" fill="#4887C2" width="14.7" height="14.8"/>
	<rect x="222.5" y="211.8" fill="#4887C2" width="14.7" height="14.8"/>
	<rect x="252.2" y="211.8" fill="#FF9A33" width="39.6" height="14.8"/>
	<rect x="202" y="167.1" fill="#4887C2" width="14.7" height="29.3"/>
	<path fill="#4887C2" d="M216.7,233.8H202v-22c0-4.1,3.3-7.3,7.3-7.3h0c4.1,0,7.3,3.3,7.3,7.3V233.8z"/>
	<polygon fill="#FF5F58" points="171.9,159.1 144,139.1 116.1,159.1 116.1,238.5 171.9,238.5 	"/>
	<polygon fill="#106580" points="780.4,191.7 752.5,171.7 724.6,191.7 724.6,238.5 780.4,238.5 	"/>
	<rect x="125.9" y="167.1" fill="#F38073" width="14.7" height="29.3"/>
	<rect x="125.9" y="211.8" fill="#F38073" width="14.7" height="14.8"/>
	<rect x="146.3" y="167.1" fill="#F38073" width="14.7" height="29.3"/>
	<path fill="#F38073" d="M161,233.8h-14.7v-22c0-4.1,3.3-7.3,7.3-7.3h0c4.1,0,7.3,3.3,7.3,7.3V233.8z"/>
	<path fill="#408398" d="M759.8,233.8h-14.7v-22c0-4.1,3.3-7.3,7.3-7.3l0,0c4.1,0,7.3,3.3,7.3,7.3V233.8z"/>
	<path fill="#FF9A33" d="M311.3,233.8h-14.7v-22c0-4.1,3.3-7.3,7.3-7.3l0,0c4.1,0,7.3,3.3,7.3,7.3V233.8z"/>
	<rect x="222.5" y="167.1" fill="#4887C2" width="14.7" height="29.3"/>
	<rect x="527.9" y="83.1" fill="#F3B400" width="75" height="155.4"/>
	<rect x="537.6" y="129.8" fill="#F5C333" width="14.7" height="29.3"/>
	<rect x="558" y="129.8" fill="#F5C333" width="14.7" height="29.3"/>
	<rect x="578.5" y="129.8" fill="#F5C333" width="14.7" height="29.3"/>
	<rect x="537.6" y="167.1" fill="#F5C333" width="14.7" height="29.3"/>
	<rect x="537.6" y="211.8" fill="#F5C333" width="14.7" height="14.8"/>
	<rect x="578.5" y="211.8" fill="#F5C333" width="14.7" height="14.8"/>
	<rect x="558" y="167.1" fill="#F5C333" width="14.7" height="29.3"/>
	<path fill="#F5C333" d="M572.7,233.8H558v-22c0-4.1,3.3-7.3,7.3-7.3l0,0c4.1,0,7.3,3.3,7.3,7.3V233.8z"/>
	<rect x="578.5" y="167.1" fill="#F5C333" width="14.7" height="29.3"/>
	<rect x="537.6" y="91.6" fill="#F5C333" width="14.7" height="29.3"/>
	<rect x="558" y="91.6" fill="#F5C333" width="14.7" height="29.3"/>
	<rect x="578.5" y="91.6" fill="#F5C333" width="14.7" height="29.3"/>
	<path fill="#FF9A33" d="M318.6,203.7c0,0-0.1,0-0.1,0l-69.8-15.2c-0.3-0.1-0.4-0.3-0.4-0.6c0.1-0.3,0.3-0.4,0.6-0.4l69.8,15.2
		c0.3,0.1,0.4,0.3,0.4,0.6C319,203.5,318.8,203.7,318.6,203.7z"/>
	<path fill="#013564" d="M47.3,253.2c-0.6,0-1-0.4-1-1V162c0-0.6,0.4-1,1-1s1,0.4,1,1v90.1C48.3,252.7,47.8,253.2,47.3,253.2z"/>
	<g>
		<polyline fill="#E5E6E7" points="416,110.3 404,130.8 399.5,244.5 416,247.4 		"/>
		<path fill="#013564" d="M416,137.2c-0.4,0-0.8-0.2-0.9-0.6c-0.2-0.5,0-1.1,0.5-1.3l8.8-3.8c0.5-0.2,1.1,0,1.3,0.5
			c0.2,0.5,0,1.1-0.5,1.3l-8.8,3.8C416.3,137.1,416.1,137.2,416,137.2z"/>
		<path fill="#013564" d="M416,137.2c-0.1,0-0.3,0-0.4-0.1l-8.7-3.8c-0.5-0.2-0.7-0.8-0.5-1.3c0.2-0.5,0.8-0.7,1.3-0.5l8.7,3.8
			c0.5,0.2,0.7,0.8,0.5,1.3C416.8,136.9,416.4,137.2,416,137.2z"/>
		<g>
			<path fill="#A09E9F" d="M432.5,245.5c-0.5,0-1-0.4-1-1L427,131.1l-11-18.8l-11,18.8l-4.5,113.5c0,0.6-0.5,1-1,1c-0.6,0-1-0.5-1-1
				l4.5-114l13-22.2l13,22.2l0,0.2l4.5,113.7C433.5,245,433.1,245.5,432.5,245.5C432.5,245.5,432.5,245.5,432.5,245.5z"/>
			<path fill="#A09E9F" d="M416,248.4c-0.6,0-1-0.4-1-1V136.8l-8.1-3.6c-0.5-0.2-0.7-0.8-0.5-1.3c0.2-0.5,0.8-0.7,1.3-0.5l9.3,4.1
				v111.9C417,248,416.6,248.4,416,248.4z"/>
			<path fill="#A09E9F" d="M416,137.2c-0.4,0-0.8-0.2-0.9-0.6c-0.2-0.5,0-1.1,0.5-1.3l8.8-3.8c0.5-0.2,1.1,0,1.3,0.5
				c0.2,0.5,0,1.1-0.5,1.3l-8.8,3.8C416.3,137.1,416.1,137.2,416,137.2z"/>
		</g>
	</g>
	<g>
		<path fill="#2BB573" d="M351.4,176.2l-0.1,33.9c0,9.8-8,17.7-17.8,17.6h0c-9.8,0-17.7-8-17.6-17.8l0.1-33.9
			c0-9.8,8-17.7,17.8-17.6h0C343.6,158.5,351.5,166.4,351.4,176.2z"/>
		<path fill="#208856" d="M333.7,239.5c-0.6,0-1-0.4-1-1v-62.8c0-0.6,0.4-1,1-1s1,0.4,1,1v62.8C334.7,239,334.2,239.5,333.7,239.5z"
			/>
		<path fill="#208856" d="M333.7,210.8c-0.4,0-0.7-0.2-0.9-0.5l-8.7-16.7c-0.3-0.5-0.1-1.1,0.4-1.3c0.5-0.3,1.1-0.1,1.3,0.4
			l8.7,16.7c0.3,0.5,0.1,1.1-0.4,1.3C334,210.8,333.8,210.8,333.7,210.8z"/>
		<path fill="#208856" d="M333.7,221.6c-0.2,0-0.4-0.1-0.6-0.2c-0.4-0.3-0.5-1-0.2-1.4l8.3-10.8c0.3-0.4,1-0.5,1.4-0.2
			c0.4,0.3,0.5,1,0.2,1.4l-8.3,10.8C334.3,221.5,334,221.6,333.7,221.6z"/>
		<path fill="#208856" d="M333.7,193.4c-0.2,0-0.4-0.1-0.6-0.2c-0.4-0.3-0.5-1-0.2-1.4l8.3-10.8c0.3-0.4,1-0.5,1.4-0.2
			c0.4,0.3,0.5,1,0.2,1.4l-8.3,10.8C334.3,193.3,334,193.4,333.7,193.4z"/>
	</g>
	<path fill="#4887C2" d="M239.6,68.9h-15.7V50.2h15.7V68.9z M224.9,67.9h13.7V51.2h-13.7V67.9z"/>
	<path fill="#4887C2" d="M260,68.9h-15.7V50.2H260V68.9z M245.3,67.9H259V51.2h-13.7V67.9z"/>
	<path fill="#4887C2" d="M280.4,92.5h-15.7V73.7h15.7V92.5z M265.7,91.5h13.7V74.7h-13.7V91.5z"/>
	<path fill="#4887C2" d="M239.6,116h-15.7V97.3h15.7V116z M224.9,115h13.7V98.3h-13.7V115z"/>
	<path fill="#4887C2" d="M260,116h-15.7V97.3H260V116z M245.3,115H259V98.3h-13.7V115z"/>
	<path fill="#4887C2" d="M280.4,139.6h-15.7v-18.8h15.7V139.6z M265.7,138.6h13.7v-16.8h-13.7V138.6z"/>
	<path fill="#4887C2" d="M280.4,186.7h-15.7v-18.8h15.7V186.7z M265.7,185.7h13.7v-16.8h-13.7V185.7z"/>
	<g>
		<line fill="#FFFFFF" x1="665.5" y1="225.9" x2="665.5" y2="130.8"/>
		<rect x="664.5" y="130.8" fill="#E5E6E7" width="2" height="95.1"/>
	</g>
	<path fill="none" stroke="#E5E6E7" stroke-width="2" stroke-miterlimit="10" d="M752.8,225.9"/>
	<path fill="none" stroke="#E5E6E7" stroke-width="2" stroke-miterlimit="10" d="M752.8,144.4"/>
	<g>
		<polyline fill="#FFFFFF" points="665.5,106.7 665.5,58.4 752.8,58.4 752.8,93.6 		"/>
		<polygon fill="#E5E6E7" points="666.5,106.7 664.5,106.7 664.5,57.4 753.8,57.4 753.8,93.6 751.8,93.6 751.8,59.4 666.5,59.4 		
			"/>
	</g>
	<path fill="#E5E6E7" d="M738.3,92.5h-15.7V73.7h15.7V92.5z M723.6,91.5h13.7V74.7h-13.7V91.5z"/>
	<path fill="#E5E6E7" d="M717.8,92.5h-15.7V73.7h15.7V92.5z M703.2,91.5h13.7V74.7h-13.7V91.5z"/>
	<path fill="#E5E6E7" d="M697.4,92.5h-15.7V73.7h15.7V92.5z M682.7,91.5h13.7V74.7h-13.7V91.5z"/>
	<path fill="#E5E6E7" d="M738.3,162.7h-15.7v-18.8h15.7V162.7z M723.6,161.7h13.7v-16.8h-13.7V161.7z"/>
	<path fill="#E5E6E7" d="M697.4,139.6h-15.7v-18.8h15.7V139.6z M682.7,138.6h13.7v-16.8h-13.7V138.6z"/>
	<g>
		<path fill="#FFFFFF" d="M184.2,69.2L184.2,69.2c0-3.6-2.9-6.4-6.4-6.4h-20c-3.6,0-6.4-2.9-6.4-6.4v0c0-3.6-2.9-6.4-6.4-6.4h-42.6
			c-3.6,0-6.4,2.9-6.4,6.4v0c0,3.6-2.9,6.4-6.4,6.4h-20c-3.6,0-6.4,2.9-6.4,6.4v0c0,3.6,2.9,6.4,6.4,6.4h11.8c3.6,0,6.4,2.9,6.4,6.4
			v0c0,3.6,2.9,6.4,6.4,6.4h125.4c3.6,0,6.4-2.9,6.4-6.4v0c0-3.6-2.9-6.4-6.4-6.4h-28.7C187.1,75.7,184.2,72.8,184.2,69.2z"/>
		<path fill="#E5E6E7" d="M219.4,89.5H94c-4.1,0-7.4-3.3-7.4-7.4c0-3-2.4-5.4-5.4-5.4H69.3c-4.1,0-7.4-3.3-7.4-7.4s3.3-7.4,7.4-7.4
			h20c3,0,5.4-2.4,5.4-5.4c0-4.1,3.3-7.4,7.4-7.4h42.6c4.1,0,7.4,3.3,7.4,7.4c0,3,2.4,5.4,5.4,5.4h20c4.1,0,7.4,3.3,7.4,7.4
			c0,3,2.4,5.4,5.4,5.4h28.7c4.1,0,7.4,3.3,7.4,7.4S223.5,89.5,219.4,89.5z M69.3,63.8c-3,0-5.4,2.4-5.4,5.4c0,3,2.4,5.4,5.4,5.4
			h11.8c4.1,0,7.4,3.3,7.4,7.4c0,3,2.4,5.4,5.4,5.4h125.4c3,0,5.4-2.4,5.4-5.4s-2.4-5.4-5.4-5.4h-28.7c-4.1,0-7.4-3.3-7.4-7.4
			c0-3-2.4-5.4-5.4-5.4h-20c-4.1,0-7.4-3.3-7.4-7.4c0-3-2.4-5.4-5.4-5.4h-42.6c-3,0-5.4,2.4-5.4,5.4c0,4.1-3.3,7.4-7.4,7.4H69.3z"/>
	</g>
	<g>
		<path fill="#FFFFFF" d="M819.8,118.5L819.8,118.5c0-3.6-2.9-6.4-6.4-6.4h-40c-3.6,0-6.4-2.9-6.4-6.4v0c0-3.6-2.9-6.4-6.4-6.4
			h-42.6c-3.6,0-6.4,2.9-6.4,6.4v0c0,3.6-2.9,6.4-6.4,6.4h-64.7c-3.6,0-6.4,2.9-6.4,6.4v0c0,3.6,2.9,6.4,6.4,6.4h56.4
			c3.6,0,6.4,2.9,6.4,6.4l0,0c0,3.6,2.9,6.4,6.4,6.4H845c3.6,0,6.4-2.9,6.4-6.4l0,0c0-3.6-2.9-6.4-6.4-6.4h-18.7
			C822.7,125,819.8,122.1,819.8,118.5z"/>
		<path fill="#E5E6E7" d="M845,138.9H709.6c-4.1,0-7.4-3.3-7.4-7.4c0-3-2.4-5.4-5.4-5.4h-56.4c-4.1,0-7.4-3.3-7.4-7.4
			s3.3-7.4,7.4-7.4H705c3,0,5.4-2.4,5.4-5.4c0-4.1,3.3-7.4,7.4-7.4h42.6c4.1,0,7.4,3.3,7.4,7.4c0,3,2.4,5.4,5.4,5.4h40
			c4.1,0,7.4,3.3,7.4,7.4c0,3,2.4,5.4,5.4,5.4H845c4.1,0,7.4,3.3,7.4,7.4C852.4,135.5,849.1,138.9,845,138.9z M640.3,113.1
			c-3,0-5.4,2.4-5.4,5.4s2.4,5.4,5.4,5.4h56.4c4.1,0,7.4,3.3,7.4,7.4c0,3,2.4,5.4,5.4,5.4H845c3,0,5.4-2.4,5.4-5.4
			c0-3-2.4-5.4-5.4-5.4h-18.7c-4.1,0-7.4-3.3-7.4-7.4c0-3-2.4-5.4-5.4-5.4h-40c-4.1,0-7.4-3.3-7.4-7.4c0-3-2.4-5.4-5.4-5.4h-42.6
			c-3,0-5.4,2.4-5.4,5.4c0,4.1-3.3,7.4-7.4,7.4H640.3z"/>
	</g>
	<path fill="#013564" d="M54.2,166.2H40.3c-0.6,0-1-0.4-1-1s0.4-1,1-1h13.9c0.6,0,1,0.4,1,1S54.8,166.2,54.2,166.2z"/>
	<path fill="#013564" d="M54.2,169.5H40.3c-0.6,0-1-0.4-1-1s0.4-1,1-1h13.9c0.6,0,1,0.4,1,1S54.8,169.5,54.2,169.5z"/>
	<path fill="#013564" d="M81.6,179.8c-16.4,0-27.9-4.1-28-4.2c-0.5-0.2-0.8-0.8-0.6-1.3c0.2-0.5,0.8-0.8,1.3-0.6
		c0.2,0.1,17.4,6.2,39.7,3.2c20.5-2.7,49.7-14,72-52.1c0.3-0.5,0.9-0.6,1.4-0.4c0.5,0.3,0.6,0.9,0.4,1.4
		c-22.7,38.9-52.5,50.3-73.5,53.1C89.7,179.6,85.5,179.8,81.6,179.8z"/>
	<path fill="#013564" d="M795.2,253.2c-0.6,0-1-0.4-1-1V162c0-0.6,0.4-1,1-1s1,0.4,1,1v90.1C796.2,252.7,795.7,253.2,795.2,253.2z"
		/>
	<path fill="#013564" d="M802.1,166.2h-13.9c-0.6,0-1-0.4-1-1s0.4-1,1-1h13.9c0.6,0,1,0.4,1,1S802.7,166.2,802.1,166.2z"/>
	<path fill="#013564" d="M802.1,169.5h-13.9c-0.6,0-1-0.4-1-1s0.4-1,1-1h13.9c0.6,0,1,0.4,1,1S802.7,169.5,802.1,169.5z"/>
	<g>
		<polygon fill="#8061C8" points="682.5,178.5 612.9,178.5 602.9,192.5 602.9,238.5 692.5,238.5 692.5,192.5 		"/>
		<path fill="#9880D3" d="M624.1,233.8h-14.7v-22c0-4.1,3.3-7.3,7.3-7.3l0,0c4.1,0,7.3,3.3,7.3,7.3V233.8z"/>
		<rect x="630.9" y="210.3" fill="#9880D3" width="56" height="18.9"/>
		<g>
			<path fill="#FFFFFF" d="M614.1,192.5c0,3.1-2.5,5.6-5.6,5.6c-3.1,0-5.6-2.5-5.6-5.6"/>
			<path fill="#FFFFFF" d="M625.3,192.5c0,3.1-2.5,5.6-5.6,5.6c-3.1,0-5.6-2.5-5.6-5.6"/>
			<path fill="#FFFFFF" d="M636.5,192.5c0,3.1-2.5,5.6-5.6,5.6c-3.1,0-5.6-2.5-5.6-5.6"/>
			<path fill="#FFFFFF" d="M647.7,192.5c0,3.1-2.5,5.6-5.6,5.6c-3.1,0-5.6-2.5-5.6-5.6"/>
			<path fill="#FFFFFF" d="M658.9,192.5c0,3.1-2.5,5.6-5.6,5.6c-3.1,0-5.6-2.5-5.6-5.6"/>
			<path fill="#FFFFFF" d="M670.1,192.5c0,3.1-2.5,5.6-5.6,5.6c-3.1,0-5.6-2.5-5.6-5.6"/>
			<path fill="#FFFFFF" d="M681.3,192.5c0,3.1-2.5,5.6-5.6,5.6c-3.1,0-5.6-2.5-5.6-5.6"/>
			<path fill="#FFFFFF" d="M692.5,192.5c0,3.1-2.5,5.6-5.6,5.6c-3.1,0-5.6-2.5-5.6-5.6"/>
		</g>
		<path fill="#9880D3" d="M685.9,189.5h-75.5c-0.3,0-0.5-0.2-0.5-0.5s0.2-0.5,0.5-0.5h75.5c0.3,0,0.5,0.2,0.5,0.5
			S686.2,189.5,685.9,189.5z"/>
		<g>
			<rect x="622.9" y="162" fill="#FFFFFF" width="50.4" height="19.6"/>
			<path fill="#8061C8" d="M674.4,182.7h-52.4V161h52.4V182.7z M623.9,180.7h48.4V163h-48.4V180.7z"/>
		</g>
		<rect x="628.5" y="166.6" fill="#9880D3" width="24.8" height="2.6"/>
		<rect x="628.5" y="170.5" fill="#9880D3" width="36" height="2.6"/>
		<rect x="628.5" y="174.5" fill="#9880D3" width="14.5" height="2.6"/>
	</g>
	<g>
		<path fill="#2BB573" d="M718.6,176.2l-0.1,33.9c0,9.8-8,17.7-17.8,17.6l0,0c-9.8,0-17.7-8-17.6-17.8l0.1-33.9
			c0-9.8,8-17.7,17.8-17.6h0C710.7,158.5,718.6,166.4,718.6,176.2z"/>
		<path fill="#208856" d="M700.8,239.5c-0.6,0-1-0.4-1-1v-62.8c0-0.6,0.4-1,1-1s1,0.4,1,1v62.8C701.8,239,701.4,239.5,700.8,239.5z"
			/>
		<path fill="#208856" d="M700.8,210.8c-0.4,0-0.7-0.2-0.9-0.5l-8.7-16.7c-0.3-0.5-0.1-1.1,0.4-1.3c0.5-0.3,1.1-0.1,1.3,0.4
			l8.7,16.7c0.3,0.5,0.1,1.1-0.4,1.3C701.1,210.8,701,210.8,700.8,210.8z"/>
		<path fill="#208856" d="M700.8,221.6c-0.2,0-0.4-0.1-0.6-0.2c-0.4-0.3-0.5-1-0.2-1.4l8.3-10.8c0.3-0.4,1-0.5,1.4-0.2
			c0.4,0.3,0.5,1,0.2,1.4l-8.3,10.8C701.4,221.5,701.1,221.6,700.8,221.6z"/>
		<path fill="#208856" d="M700.8,193.4c-0.2,0-0.4-0.1-0.6-0.2c-0.4-0.3-0.5-1-0.2-1.4l8.3-10.8c0.3-0.4,1-0.5,1.4-0.2
			c0.4,0.3,0.5,1,0.2,1.4l-8.3,10.8C701.4,193.3,701.1,193.4,700.8,193.4z"/>
	</g>
	<circle fill="#408398" cx="752.5" cy="189.4" r="3.9"/>
	<rect x="34.3" y="257.8" fill="#E5E6E7" width="62.5" height="2"/>
	<rect x="519.1" y="251.2" fill="#E5E6E7" width="51.7" height="2"/>
	<rect x="752.5" y="257.8" fill="#E5E6E7" width="51.7" height="2"/>
	<rect x="229.8" y="251.2" fill="#E5E6E7" width="130.3" height="2"/>
	<rect x="275.4" y="263.6" fill="#E5E6E7" width="38.5" height="2"/>
	<rect x="654.1" y="263.6" fill="#E5E6E7" width="38.5" height="2"/>
	<path fill="#FF8100" d="M455.1,106.3l-62-27.3l5.1-11.7l1.6,0.8c1.6,0.7,3.5-0.1,4.2-1.6c0.3-0.8,0.4-1.6,0.1-2.4
		c-0.3-0.8-0.9-1.4-1.7-1.7l-1.6-0.6l0.6-1.5l4.5-10.2l62,27.3L462.8,89l-1.4-0.6c-0.4-0.2-0.8-0.3-1.3-0.3c-1.2,0-2.4,0.7-2.9,1.9
		c-0.7,1.6,0,3.5,1.6,4.2l1.4,0.6L455.1,106.3z M397.1,77.5l56.5,24.9l2.7-6.2c-2.2-1.7-3-4.7-1.9-7.3c1-2.2,3.2-3.7,5.6-3.7
		c0.3,0,0.7,0,1,0.1l2.7-6.2l-56.5-24.9l-2.7,6.2c1,0.7,1.8,1.7,2.2,2.8c0.6,1.5,0.6,3.2-0.1,4.7c-1,2.2-3.2,3.7-5.6,3.7
		c-0.4,0-0.9,0-1.3-0.1L397.1,77.5z"/>
	<g>
		<path fill="#FFFFFF" d="M37.2,34.4c0.8,1.5,0.1,3.8-1.7,5.2c1,1.9,2.1,3.8,3.1,5.7c14.8-11,30.5-17,44.8-18.2
			c-1-2.6-2-5.2-3.1-7.8c-0.1,0-0.1,0-0.2,0c-1.7,0.2-3.8-1.2-4.7-3.2c-0.8-2-0.1-3.9,1.7-4.2c0.1,0,0.1,0,0.2,0
			c-1-2.5-2.1-5.1-3.1-7.5C59.5,7.7,43.8,15.8,29.5,28.8c1,1.8,2,3.6,3.1,5.4C34.3,32.8,36.4,32.9,37.2,34.4z"/>
	</g>
	<g>
		<path fill="#FFFFFF" d="M802.9,71.9c1,0.6,1,2.1,0,2.7l-3.9,2.3c-0.2,0.1-0.4,0.4-0.6,0.6l-2.1,4.2c-0.5,1.1-1.9,1.1-2.4,0
			l-2.1-4.2c-0.1-0.3-0.3-0.5-0.6-0.6l-3.9-2.3c-1-0.6-1-2.1,0-2.7l3.9-2.3c0.2-0.1,0.4-0.4,0.6-0.6l2.1-4.2c0.5-1.1,1.9-1.1,2.4,0
			l2.1,4.2c0.1,0.3,0.3,0.5,0.6,0.6"/>
		<path fill="#FF5F58" d="M795.2,84.1c-1.1,0-2.1-0.6-2.6-1.7l-2.1-4.2l-3.8-2.3c-0.9-0.6-1.5-1.6-1.5-2.7c0-1.1,0.6-2.1,1.5-2.7
			l3.9-2.3l2.1-4.2c0.5-1,1.5-1.7,2.6-1.7s2.1,0.6,2.6,1.7l2.1,4.2l3.8,2.3c0.9,0.6,1.5,1.6,1.5,2.7c0,1.1-0.6,2.1-1.5,2.7l-3.9,2.3
			l-2.1,4.2C797.3,83.5,796.3,84.1,795.2,84.1z M795.2,65.8l-1.9,3.9c-0.3,0.5-0.7,1-1.1,1.3l-3.9,2.3l3.9,2.3
			c0.5,0.3,0.9,0.7,1.1,1.3l1.9,3.9l1.9-3.9c0.3-0.5,0.7-1,1.2-1.3l3.9-2.3l-3.9-2.3c-0.5-0.3-0.9-0.7-1.1-1.3L795.2,65.8z"/>
	</g>
	<path fill="#106580" d="M43.2,128.5c-0.3,0-0.7-0.1-1-0.3c-0.6-0.5-0.7-1.5-0.2-2.1c0.5-0.6,1.5-0.7,2.1-0.2c0,0,0,0,0,0
		c0.6,0.5,0.7,1.5,0.2,2.1C44.1,128.3,43.7,128.5,43.2,128.5z M39.4,125c-0.3,0-0.7-0.1-0.9-0.3c0,0-0.1-0.1-0.1-0.1
		c-0.6-0.6-0.6-1.5,0-2.1c0.6-0.6,1.5-0.6,2.1,0c0.6,0.5,0.7,1.4,0.2,2C40.2,124.8,39.8,125,39.4,125z M35.8,121.1
		c-0.4,0-0.8-0.1-1.1-0.4c0,0-0.1-0.1-0.1-0.1c-0.5-0.6-0.4-1.6,0.2-2.1c0.6-0.5,1.5-0.4,2.1,0.2c0.5,0.6,0.5,1.5-0.1,2.1
		C36.5,121,36.1,121.1,35.8,121.1z M32.5,117c-0.4,0-0.9-0.2-1.2-0.6c0,0-0.1-0.1-0.1-0.1c-0.5-0.7-0.3-1.6,0.4-2.1
		c0.7-0.5,1.6-0.3,2.1,0.4c0.5,0.6,0.3,1.5-0.3,2C33.1,116.9,32.8,117,32.5,117z M29.6,112.6c-0.5,0-1-0.3-1.3-0.7
		c-0.4-0.7-0.2-1.6,0.4-2c0.7-0.5,1.6-0.3,2.1,0.4c0,0.1,0.1,0.1,0.1,0.2c0.4,0.7,0.1,1.6-0.7,2C30,112.6,29.8,112.6,29.6,112.6z
		 M27.1,108c-0.6,0-1.1-0.3-1.3-0.8c-0.4-0.7-0.1-1.6,0.7-2c0.7-0.4,1.6-0.1,2,0.7l0,0c0.4,0.7,0.1,1.6-0.7,2
		C27.6,108,27.3,108,27.1,108z M25.1,103.2c-0.6,0-1.1-0.3-1.4-0.9c0,0,0-0.1,0-0.1c-0.3-0.8,0.2-1.6,0.9-1.9
		c0.8-0.3,1.6,0.1,1.9,0.9c0.3,0.7-0.1,1.6-0.8,1.9C25.5,103.1,25.3,103.2,25.1,103.2z M23.5,98.1c-0.7,0-1.3-0.5-1.5-1.1
		c-0.2-0.8,0.3-1.6,1-1.8c0.8-0.2,1.6,0.2,1.9,1c0,0.1,0,0.1,0,0.2c0.1,0.8-0.4,1.6-1.2,1.7C23.7,98.1,23.6,98.1,23.5,98.1z
		 M21.9,87.8c-0.7,0-1.4-0.5-1.5-1.3c0-0.1,0-0.2,0-0.3c0-0.8,0.7-1.5,1.5-1.5c0.8,0,1.5,0.6,1.5,1.4c0,0.8-0.5,1.4-1.3,1.6
		C22.1,87.8,22,87.8,21.9,87.8z M21.8,82.5c-0.8,0-1.5-0.7-1.5-1.5s0.7-1.5,1.5-1.5s1.5,0.7,1.5,1.5v0
		C23.3,81.8,22.6,82.5,21.8,82.5z M22.1,77.3c-0.8,0-1.5-0.7-1.5-1.5c0-0.1,0-0.2,0-0.2c0.1-0.8,0.9-1.4,1.7-1.3
		c0.8,0.1,1.4,0.8,1.3,1.6C23.6,76.7,22.9,77.3,22.1,77.3z M22.9,72.1c-0.2,0-0.3,0-0.5-0.1c-0.7-0.2-1.2-1-1-1.7
		c0.2-0.8,0.9-1.3,1.7-1.2c0.8,0.1,1.4,0.9,1.3,1.7c0,0.1,0,0.2-0.1,0.3C24.1,71.7,23.5,72.1,22.9,72.1z M24,66.9
		c-0.1,0-0.2,0-0.2,0c-0.8-0.1-1.4-0.9-1.2-1.7c0-0.1,0-0.1,0-0.2c0.2-0.8,1.1-1.3,1.9-1c0.8,0.2,1.2,1,1,1.8
		C25.3,66.4,24.7,66.9,24,66.9z M27.3,56.9c-0.1,0-0.3,0-0.4-0.1c-0.8-0.2-1.3-1.1-1-1.9c0-0.1,0.1-0.2,0.1-0.3c0.4-0.7,1.3-1,2-0.7
		c0.7,0.4,1,1.2,0.7,1.9C28.5,56.6,27.9,56.9,27.3,56.9z M29.5,52.2c-0.3,0-0.5-0.1-0.8-0.2c-0.7-0.4-1-1.3-0.5-2.1
		c0.4-0.7,1.3-1,2-0.6c0.7,0.4,1,1.3,0.6,2c0,0,0,0.1-0.1,0.1C30.5,51.9,30,52.2,29.5,52.2z"/>
	<path fill="#106580" d="M387.6,58.4c-0.4,0-0.9-0.2-1.2-0.6c0,0-0.1-0.1-0.1-0.1c-0.5-0.7-0.3-1.6,0.4-2.1c0.7-0.5,1.6-0.3,2.1,0.4
		c0.5,0.6,0.3,1.5-0.3,2C388.2,58.3,387.9,58.4,387.6,58.4z M381,50.2c-0.4,0-0.8-0.2-1.1-0.5c-0.5-0.6-0.5-1.5,0-2.1
		c0.6-0.6,1.5-0.6,2.1,0c0,0,0.1,0.1,0.1,0.1c0.5,0.6,0.4,1.6-0.2,2.1C381.7,50.1,381.3,50.2,381,50.2z M377.4,46.3
		c-0.4,0-0.8-0.2-1.1-0.5c-0.5-0.6-0.5-1.5,0-2.1c0.6-0.6,1.5-0.6,2.1,0c0,0,0.1,0.1,0.1,0.1c0.5,0.6,0.4,1.6-0.2,2.1
		C378.1,46.2,377.7,46.3,377.4,46.3z M373.6,42.7c-0.3,0-0.7-0.1-0.9-0.3c0,0-0.1-0.1-0.1-0.1c-0.6-0.6-0.6-1.5,0-2.1
		c0.6-0.6,1.5-0.6,2.1,0c0.6,0.5,0.7,1.4,0.2,2C374.5,42.5,374.1,42.7,373.6,42.7z M369.6,39.3c-0.3,0-0.7-0.1-1-0.3
		c-0.6-0.5-0.7-1.5-0.2-2.1c0.5-0.6,1.5-0.7,2.1-0.2c0,0,0,0,0,0c0.6,0.5,0.7,1.5,0.2,2.1C370.5,39.1,370.1,39.3,369.6,39.3z
		 M365.5,36.1c-0.3,0-0.6-0.1-0.9-0.3c-0.7-0.5-0.8-1.4-0.4-2.1c0.5-0.7,1.4-0.9,2.1-0.4c0,0,0.1,0.1,0.1,0.1
		c0.6,0.5,0.8,1.5,0.2,2.1C366.3,35.9,365.9,36.1,365.5,36.1z M356.6,30.4c-0.3,0-0.5-0.1-0.7-0.2c-0.7-0.4-1-1.3-0.6-2
		c0.4-0.7,1.3-1,2-0.7c0.1,0,0.1,0.1,0.2,0.1c0.7,0.5,0.9,1.4,0.4,2.1C357.6,30.2,357.1,30.4,356.6,30.4z M352,27.9
		c-0.2,0-0.5-0.1-0.7-0.2c-0.7-0.4-1-1.3-0.7-2c0.4-0.7,1.3-1,2-0.7l0,0c0.7,0.4,1,1.3,0.7,2C353.1,27.6,352.5,27.9,352,27.9z
		 M347.2,25.7c-0.1,0-0.3,0-0.4-0.1c-0.1,0-0.2-0.1-0.3-0.1c-0.7-0.4-1-1.3-0.7-2c0.4-0.7,1.2-1,1.9-0.7c0.7,0.3,1.1,1.1,0.9,1.8
		C348.5,25.3,347.9,25.7,347.2,25.7z M342.4,23.7c-0.2,0-0.4,0-0.5-0.1c-0.8-0.3-1.2-1.1-0.9-1.9c0.3-0.8,1.1-1.2,1.9-0.9
		c0,0,0.1,0,0.1,0c0.8,0.3,1.1,1.2,0.8,2C343.5,23.4,343,23.7,342.4,23.7z M332.4,20.4c-0.1,0-0.2,0-0.2,0c-0.1,0-0.1,0-0.2,0
		c-0.8-0.2-1.3-1.1-1-1.9c0.2-0.8,1-1.2,1.8-1c0.8,0.2,1.3,0.9,1.1,1.7C333.7,19.9,333.1,20.4,332.4,20.4z M327.3,19.1
		c-0.1,0-0.2,0-0.2,0c-0.1,0-0.1,0-0.2,0c-0.8-0.2-1.3-1.1-1-1.9c0.2-0.8,1-1.2,1.8-1c0.8,0.2,1.3,0.9,1.1,1.7
		C328.6,18.6,328,19.1,327.3,19.1z M264.6,18.9c-0.7,0-1.4-0.5-1.5-1.3c-0.1-0.8,0.4-1.5,1.2-1.7c0.7-0.2,1.5,0.3,1.7,1
		c0.3,0.8-0.2,1.6-0.9,1.9c-0.1,0-0.2,0.1-0.3,0.1C264.8,18.9,264.7,18.9,264.6,18.9z M322.1,18.1c-0.1,0-0.2,0-0.3,0
		c-0.8-0.2-1.3-0.9-1.2-1.7c0.1-0.8,0.9-1.4,1.7-1.3c0.1,0,0.2,0,0.3,0.1c0.8,0.3,1.2,1.1,0.9,1.9C323.3,17.7,322.8,18.1,322.1,18.1
		z M316.9,17.2c-0.1,0-0.2,0-0.2,0c-0.8-0.1-1.4-0.9-1.2-1.7s0.9-1.4,1.7-1.3c0,0,0,0,0,0c0.8,0.1,1.4,0.9,1.2,1.7
		C318.3,16.7,317.7,17.2,316.9,17.2z M280.2,16.6c-0.7,0-1.4-0.5-1.5-1.3c-0.1-0.8,0.5-1.6,1.3-1.7c0.9-0.1,1.7,0.6,1.7,1.5
		c0,0.8-0.6,1.4-1.4,1.5C280.3,16.6,280.3,16.6,280.2,16.6z M311.7,16.6c-0.1,0-0.2,0-0.2,0c-0.8-0.1-1.4-0.9-1.3-1.7
		c0.1-0.8,0.8-1.4,1.6-1.3c0.8,0.1,1.4,0.7,1.4,1.5C313.2,15.9,312.6,16.6,311.7,16.6z M285.5,16.2c-0.8,0-1.5-0.7-1.5-1.5
		c0-0.8,0.6-1.5,1.4-1.5c0.7-0.1,1.4,0.5,1.6,1.3c0.1,0.8-0.4,1.6-1.2,1.7C285.6,16.2,285.5,16.2,285.5,16.2z M306.5,16.1
		C306.5,16.1,306.4,16.1,306.5,16.1c-0.9,0-1.5-0.7-1.5-1.5c0-0.9,0.9-1.6,1.8-1.5c0.8,0.1,1.4,0.9,1.2,1.7
		C307.8,15.6,307.2,16.1,306.5,16.1z M290.7,15.9c-0.8,0-1.5-0.7-1.5-1.5c0-0.8,0.6-1.5,1.4-1.5c0.8,0,1.4,0.5,1.6,1.3
		c0.1,0.8-0.4,1.6-1.2,1.7C290.9,15.9,290.8,15.9,290.7,15.9z M301.2,15.9C301.2,15.9,301.2,15.9,301.2,15.9c-0.9,0-1.5-0.7-1.5-1.5
		c0-0.9,0.9-1.6,1.8-1.5c0.8,0.1,1.4,0.9,1.2,1.7C302.6,15.4,302,15.9,301.2,15.9z M296,15.8c-0.8,0-1.5-0.7-1.5-1.5
		s0.7-1.5,1.5-1.5h0c0.8,0,1.5,0.7,1.5,1.5S296.8,15.8,296,15.8z"/>
	<path fill="#F3B400" d="M721,67.1c-1.8,0-3.2-1.3-3.3-3.1l-0.5-6.2c0-0.1-0.1-0.2-0.2-0.3l-5.4-3.1c-1.1-0.6-1.7-1.8-1.6-3.1
		s0.9-2.4,2.1-2.9l5.8-2.4c0.1,0,0.2-0.1,0.2-0.2l1.3-6.1c0.3-1.5,1.7-2.6,3.3-2.6c1,0,1.9,0.4,2.5,1.2l4,4.8
		c0.1,0.1,0.2,0.1,0.3,0.1l6.2-0.6c1.3-0.1,2.6,0.5,3.2,1.7c0.6,1.1,0.6,2.3-0.1,3.4l-3.3,5.3c-0.1,0.1-0.1,0.2,0,0.3l2.5,5.7
		c0.5,1,0.4,2.2-0.3,3.2c-0.8,1.2-2.2,1.8-3.6,1.4l-6.1-1.5c-0.2,0-0.2,0-0.3,0.1l-4.7,4.2C722.6,66.8,721.8,67.1,721,67.1z
		 M722.6,40.1c0,0-0.3,0-0.3,0.3l-1.3,6.1c-0.2,1.1-1,2-2,2.4l-5.8,2.4c-0.1,0.1-0.2,0.1-0.2,0.3c0,0.1,0,0.2,0.2,0.3l5.4,3.1
		c0.9,0.6,1.6,1.5,1.6,2.6l0.5,6.2c0,0.3,0.2,0.3,0.3,0.3c0.1,0,0.1,0,0.2-0.1l4.7-4.2c0.8-0.7,1.9-1,3-0.8l6.1,1.5
		c0.3,0,0.3-0.1,0.4-0.1c0.1-0.1,0-0.3,0-0.3l-2.5-5.7c-0.4-1-0.4-2.2,0.2-3.1l3.3-5.3c0.1-0.1,0.1-0.2,0-0.3c0-0.1-0.1-0.2-0.3-0.2
		l-6.3,0.6c-1.1,0.1-2.2-0.3-2.9-1.2l-4-4.8C722.8,40.2,722.7,40.1,722.6,40.1z"/>
	<g>
		<path fill="#FFFFFF" d="M592,42.2c-0.8,1.5-0.1,3.8,1.7,5.2c-1,1.9-2.1,3.8-3.1,5.7c-14.8-11-30.5-17-44.8-18.2
			c1-2.6,2-5.2,3.1-7.8c0.1,0,0.1,0,0.2,0c1.7,0.2,3.8-1.2,4.7-3.2c0.8-2,0.1-3.9-1.7-4.2c-0.1,0-0.1,0-0.2,0c1-2.5,2.1-5.1,3.1-7.5
			c14.8,3.2,30.5,11.4,44.8,24.4c-1,1.8-2,3.6-3.1,5.4C594.9,40.6,592.8,40.7,592,42.2z"/>
	</g>
	<path fill="#106580" d="M619.4,113.8c-0.3,0-0.6-0.1-0.8-0.3c-0.7-0.5-0.9-1.4-0.4-2.1c0,0,0.1-0.1,0.1-0.1
		c0.5-0.6,1.5-0.8,2.1-0.2c0.6,0.5,0.7,1.4,0.3,2.1C620.3,113.6,619.8,113.8,619.4,113.8z M622.4,109.5c-0.2,0-0.4,0-0.6-0.1
		c-0.8-0.3-1.1-1.2-0.8-1.9c0-0.1,0.1-0.2,0.1-0.3c0.5-0.7,1.4-0.9,2.1-0.4c0.7,0.4,0.9,1.3,0.5,2
		C623.4,109.2,622.9,109.5,622.4,109.5z M624.9,104.9c-0.3,0-0.5-0.1-0.7-0.2c-0.7-0.4-0.9-1.2-0.6-1.9c0.3-0.7,1.1-1.1,1.9-0.8
		c0.8,0.3,1.2,1.1,0.9,1.9c0,0.1-0.1,0.2-0.1,0.3C625.9,104.6,625.4,104.9,624.9,104.9z M628.1,94.9c-0.8,0-1.5-0.7-1.5-1.5
		c0-0.1,0-0.3,0.1-0.4c0.2-0.8,1.1-1.3,1.9-1c0.8,0.2,1.2,1,1.1,1.7C629.4,94.4,628.8,94.9,628.1,94.9z M628.5,89.7
		c-0.8,0-1.5-0.7-1.5-1.5s0.7-1.5,1.5-1.5s1.5,0.7,1.5,1.5v0C630,89,629.3,89.7,628.5,89.7z M628,84.5c-0.7,0-1.4-0.5-1.5-1.2
		c-0.1-0.8,0.3-1.5,1.1-1.7c0.8-0.2,1.6,0.2,1.9,1c0,0.1,0.1,0.3,0.1,0.4C629.5,83.8,628.8,84.5,628,84.5z M626.7,79.4
		c-0.7,0-1.3-0.4-1.4-1.1c-0.2-0.8,0.2-1.6,1-1.8c0.8-0.2,1.6,0.2,1.9,1c0,0,0,0.1,0,0.1c0.2,0.8-0.2,1.6-1,1.9
		C627,79.4,626.8,79.4,626.7,79.4z M624.6,74.5c-0.5,0-1.1-0.3-1.3-0.8c-0.4-0.7-0.2-1.5,0.5-2c0.7-0.5,1.6-0.3,2.1,0.4
		c0.1,0.1,0.1,0.2,0.2,0.4c0.3,0.8-0.2,1.6-0.9,1.9C625,74.5,624.8,74.5,624.6,74.5z M622,70c-0.4,0-0.9-0.2-1.2-0.6
		c0,0-0.1-0.1-0.1-0.1c-0.5-0.7-0.3-1.6,0.4-2.1c0.7-0.5,1.6-0.3,2.1,0.4c0.5,0.6,0.3,1.5-0.3,2C622.6,69.9,622.3,70,622,70z
		 M618.8,65.8c-0.4,0-0.8-0.1-1.1-0.4c0,0-0.1-0.1-0.1-0.1c-0.5-0.6-0.4-1.6,0.2-2.1c0.6-0.5,1.5-0.4,2.1,0.2
		c0.5,0.6,0.5,1.5-0.1,2.1C619.6,65.7,619.2,65.8,618.8,65.8z M615.3,61.9c-0.3,0-0.6-0.1-0.8-0.3c-0.1-0.1-0.2-0.2-0.3-0.3
		c-0.5-0.6-0.4-1.6,0.2-2.1c0.6-0.5,1.5-0.4,2,0.1c0.5,0.5,0.6,1.3,0.2,1.9C616.2,61.7,615.7,61.9,615.3,61.9z M611.4,58.4
		c-0.3,0-0.7-0.1-1-0.4c-0.6-0.5-0.7-1.3-0.3-2c0.5-0.7,1.4-0.9,2.1-0.4c0.1,0.1,0.3,0.2,0.3,0.3c0.5,0.6,0.4,1.6-0.2,2.1
		C612.1,58.2,611.7,58.4,611.4,58.4z M607.3,55.1c-0.3,0-0.6-0.1-0.9-0.3c-0.6-0.5-0.8-1.4-0.3-2c0.5-0.7,1.4-0.9,2.1-0.4
		c0.1,0.1,0.2,0.1,0.2,0.2c0.6,0.6,0.6,1.5,0,2.1C608,54.9,607.7,55.1,607.3,55.1z M602.9,52.2c-0.3,0-0.5-0.1-0.8-0.2
		c0,0-0.1,0-0.1-0.1c-0.7-0.5-0.9-1.4-0.4-2.1c0.5-0.7,1.4-0.9,2-0.4c0.7,0.4,0.9,1.3,0.5,2C603.9,51.9,603.4,52.2,602.9,52.2z"/>
</g>
<path fill="#106580" d="M25.5,61.9c-0.1,0-0.2,0-0.2,0c-0.8-0.1-1.4-0.9-1.2-1.7c0-0.1,0-0.1,0-0.2c0.2-0.8,1.1-1.3,1.9-1
	c0.8,0.2,1.2,1,1,1.8C26.8,61.4,26.2,61.9,25.5,61.9z"/>
<path fill="#106580" d="M22.5,93c-0.1,0-0.2,0-0.2,0c-0.8-0.1-1.4-0.9-1.2-1.7c0-0.1,0-0.1,0-0.2c0.2-0.8,1.1-1.3,1.9-1
	c0.8,0.2,1.2,1,1,1.8C23.8,92.5,23.2,93,22.5,93z"/>
<path fill="#106580" d="M259.5,20.1c-0.1,0-0.2,0-0.2,0c-0.8-0.1-1.4-0.9-1.2-1.7c0-0.1,0-0.1,0-0.2c0.2-0.8,1.1-1.3,1.9-1
	c0.8,0.2,1.2,1,1,1.8C260.8,19.7,260.2,20.1,259.5,20.1z"/>
<path fill="#106580" d="M269.8,18c-0.1,0-0.2,0-0.2,0c-0.8-0.1-1.4-0.9-1.2-1.7c0-0.1,0-0.1,0-0.2c0.2-0.8,1.1-1.3,1.9-1
	c0.8,0.2,1.2,1,1,1.8C271.1,17.5,270.5,18,269.8,18z"/>
<path fill="#106580" d="M275,17.2c-0.1,0-0.2,0-0.2,0c-0.8-0.1-1.4-0.9-1.2-1.7c0-0.1,0-0.1,0-0.2c0.2-0.8,1.1-1.3,1.9-1
	c0.8,0.2,1.2,1,1,1.8C276.3,16.8,275.7,17.2,275,17.2z"/>
<path fill="#106580" d="M337.4,21.9c-0.1,0-0.2,0-0.2,0c-0.8-0.1-1.4-0.9-1.2-1.7c0-0.1,0-0.1,0-0.2c0.2-0.8,1.1-1.3,1.9-1
	c0.8,0.2,1.2,1,1,1.8C338.7,21.4,338.1,21.9,337.4,21.9z"/>
<path fill="#106580" d="M361.2,33.1c-0.1,0-0.2,0-0.2,0c-0.8-0.1-1.4-0.9-1.2-1.7c0-0.1,0-0.1,0-0.2c0.2-0.8,1.1-1.3,1.9-1
	c0.8,0.2,1.2,1,1,1.8C362.4,32.6,361.8,33.1,361.2,33.1z"/>
<path fill="#106580" d="M384.4,54.2c-0.1,0-0.2,0-0.2,0c-0.8-0.1-1.4-0.9-1.2-1.7c0-0.1,0-0.1,0-0.2c0.2-0.8,1.1-1.3,1.9-1
	c0.8,0.2,1.2,1,1,1.8C385.7,53.7,385.1,54.2,384.4,54.2z"/>
<path fill="#106580" d="M626.8,100.1c-0.1,0-0.2,0-0.2,0c-0.8-0.1-1.4-0.9-1.2-1.7c0-0.1,0-0.1,0-0.2c0.2-0.8,1.1-1.3,1.9-1
	c0.8,0.2,1.2,1,1,1.8C628.1,99.6,627.5,100.1,626.8,100.1z"/>
</svg>
