<?xml version="1.0" encoding="utf-8"?>
<!-- Generator: Adobe Illustrator 18.0.0, SVG Export Plug-In . SVG Version: 6.00 Build 0)  -->
<!DOCTYPE svg PUBLIC "-//W3C//DTD SVG 1.1//EN" "http://www.w3.org/Graphics/SVG/1.1/DTD/svg11.dtd">
<svg version="1.1" id="Layer_1" xmlns="http://www.w3.org/2000/svg" xmlns:xlink="http://www.w3.org/1999/xlink" x="0px" y="0px"
	 viewBox="0 0 217 44" enable-background="new 0 0 217 44" xml:space="preserve">
<g>
	<g>
		<g>
			<g>
				<path fill="#BCBEC0" d="M43.2,11.2l-4.5-1.6c-0.8,0.9-2,1.3-3.2,0.9c-1.2-0.4-1.9-1.5-1.9-2.7c0,0-2.4-0.8-2.7-1
					c-0.4-0.1-0.6-0.2-0.4,0.4c0.2,0.4,6.9,18.8,6.9,18.8c0.5,1.4,0.9,1.3,1.3,0.1l5-13.8C43.8,11.8,43.6,11.4,43.2,11.2z M37,16.9
					c-0.1,0.4-0.6,0.6-1,0.5c-0.4-0.1-0.6-0.6-0.5-1c0.1-0.4,0.6-0.6,1-0.5C37,16.1,37.2,16.5,37,16.9z M39.7,17.9
					c-0.1,0.4-0.6,0.6-1,0.5c-0.4-0.1-0.6-0.6-0.5-1s0.6-0.6,1-0.5C39.7,17.1,39.9,17.5,39.7,17.9z"/>
			</g>
		</g>
		<g>
			<g>
				<path fill="#BCBEC0" d="M27.1,6.1l-5.6,2c0,1.5-0.9,2.9-2.4,3.4c-1.5,0.5-3.1,0.1-4-1.1l-5.6,2c-0.5,0.2-0.8,0.7-0.6,1.2
					l8.6,23.6c0.2,0.5,0.7,0.8,1.2,0.6l5.6-2c0-1.5,0.9-2.9,2.4-3.4c1.5-0.5,3.1-0.1,4,1.1l5.6-2c0.5-0.2,0.8-0.7,0.6-1.2L28.3,6.7
					C28.2,6.2,27.6,5.9,27.1,6.1z M15.3,21.3c-0.6,0.4-1.4,0-1.5-0.7c0-0.3,0.1-0.7,0.4-0.9c0.6-0.4,1.4,0,1.5,0.7
					C15.7,20.8,15.6,21.1,15.3,21.3z M18.7,20.1c-0.6,0.4-1.4,0-1.5-0.7c0-0.3,0.1-0.7,0.4-0.9c0.6-0.4,1.4,0,1.5,0.7
					C19.1,19.5,19,19.9,18.7,20.1z M22,18.9c-0.6,0.4-1.4,0-1.5-0.7c0-0.3,0.1-0.7,0.4-0.9c0.6-0.4,1.4,0,1.5,0.7
					C22.5,18.3,22.3,18.7,22,18.9z M25.4,17.6c-0.6,0.4-1.4,0-1.5-0.7c0-0.3,0.1-0.7,0.4-0.9c0.6-0.4,1.4,0,1.5,0.7
					C25.8,17.1,25.7,17.5,25.4,17.6z M28.8,16.4c-0.6,0.4-1.4,0-1.5-0.7c0-0.3,0.1-0.7,0.4-0.9c0.6-0.4,1.4,0,1.5,0.7
					C29.2,15.9,29.1,16.2,28.8,16.4z"/>
			</g>
		</g>
		<path fill="#BCBEC0" d="M66.3,33.8c-1,0.2-2.3,0.5-6.2,0.5c-4.2,0-7.5-1.1-7.5-6.6V16.3c0-5.5,3.3-6.6,7.5-6.6
			c3.9,0,5.1,0.3,6.2,0.5c0.5,0.1,0.6,0.2,0.6,0.7v2.1c0,0.4-0.3,0.6-0.6,0.6h-6.6c-1.9,0-2.6,0.6-2.6,2.8v3.5h8.8
			c0.4,0,0.6,0.3,0.6,0.6v2.3c0,0.4-0.3,0.6-0.6,0.6h-8.8v4.2c0,2.1,0.7,2.8,2.6,2.8h6.6c0.4,0,0.6,0.3,0.6,0.6v2.1
			C66.9,33.6,66.8,33.8,66.3,33.8z"/>
		<path fill="#BCBEC0" d="M83.5,34h-3c-0.4,0-0.6-0.3-0.6-0.7V22.8c0-2.8-0.3-3.6-2.8-3.6c-1.1,0-2.3,0.5-3.7,1.2v13
			c0,0.4-0.3,0.7-0.6,0.7h-3c-0.4,0-0.6-0.3-0.6-0.7v-17c0-0.4,0.3-0.6,0.6-0.6h2.8c0.4,0,0.6,0.3,0.6,0.6v0.7
			c1.9-1.2,3.1-1.6,5.3-1.6c4.7,0,5.6,3.1,5.6,7.3v10.6C84.1,33.7,83.9,34,83.5,34z"/>
		<path fill="#BCBEC0" d="M95.8,34c-0.8,0.1-1.5,0.2-2.2,0.2c-3.7,0-5.2-0.8-5.2-5.2V18.9l-3-0.5c-0.4-0.1-0.6-0.3-0.6-0.6v-1.5
			c0-0.4,0.3-0.6,0.6-0.6h3v-2.7c0-0.4,0.3-0.6,0.6-0.6l3-0.5c0,0,0.1,0,0.1,0c0.3,0,0.5,0.2,0.5,0.5v3.3h2.9c0.4,0,0.6,0.3,0.6,0.6
			v1.9c0,0.4-0.3,0.6-0.6,0.6h-2.9v10.2c0,1.6,0.1,1.8,1.3,1.8h1.7c0.4,0,0.7,0.2,0.7,0.5v2C96.4,33.8,96.2,34,95.8,34z"/>
		<path fill="#BCBEC0" d="M107.4,19.6c-1.8,0-3.1,0.5-4.5,1.2v12.5c0,0.4-0.3,0.7-0.6,0.7h-3c-0.4,0-0.6-0.3-0.6-0.7v-17
			c0-0.4,0.3-0.6,0.6-0.6h2.8c0.4,0,0.6,0.3,0.6,0.6v1.2c1.6-1.2,3.3-1.6,4.6-1.6c0.4,0,0.6,0.3,0.6,0.6V19
			C108,19.3,107.7,19.6,107.4,19.6z"/>
		<path fill="#BCBEC0" d="M122.2,34h-2.8c-0.4,0-0.6-0.3-0.6-0.6v-0.5c-1.5,0.9-3,1.4-4.6,1.4c-2.7,0-5.6-1-5.6-5.4v-0.1
			c0-3.7,2.3-5.6,7.9-5.6h2v-1.4c0-2.1-0.9-2.6-2.9-2.6c-2.1,0-4.2,0.1-5.3,0.3c-0.1,0-0.1,0-0.2,0c-0.3,0-0.6-0.1-0.6-0.6v-2.1
			c0-0.4,0.2-0.6,0.6-0.7c1.3-0.3,3.2-0.5,5.4-0.5c4.6,0,7.1,2,7.1,6.2v11.7C122.8,33.7,122.6,34,122.2,34z M118.6,26h-2
			c-3,0-3.6,0.9-3.6,2.8v0.1c0,1.6,0.7,2,2.3,2c1.2,0,2.4-0.4,3.3-0.9V26z"/>
		<path fill="#BCBEC0" d="M139.2,33.4c-2,0.5-4.4,0.8-6.5,0.8c-5.2,0-7.8-3.1-7.8-8.1v-2.5c0-5.1,2.5-8.1,7.8-8.1
			c0.8,0,1.9,0.1,3.1,0.2V10c0-0.4,0.3-0.6,0.6-0.6h3c0.4,0,0.6,0.3,0.6,0.6v22.6C140.1,33,140,33.2,139.2,33.4z M135.8,19.2
			c-0.9-0.1-2.3-0.2-3.1-0.2c-2.8,0-3.5,2-3.5,4.6v2.5c0,2.7,0.7,4.6,3.5,4.6c1.2,0,2.5-0.1,3.1-0.2V19.2z"/>
		<path fill="#BCBEC0" d="M155.6,34h-2.8c-0.4,0-0.6-0.3-0.6-0.6v-0.5c-1.5,0.9-3,1.4-4.6,1.4c-2.7,0-5.6-1-5.6-5.4v-0.1
			c0-3.7,2.3-5.6,7.9-5.6h2v-1.4c0-2.1-0.9-2.6-2.9-2.6c-2.1,0-4.2,0.1-5.3,0.3c-0.1,0-0.1,0-0.2,0c-0.3,0-0.6-0.1-0.6-0.6v-2.1
			c0-0.4,0.2-0.6,0.6-0.7c1.3-0.3,3.2-0.5,5.4-0.5c4.6,0,7.1,2,7.1,6.2v11.7C156.2,33.7,155.9,34,155.6,34z M151.9,26h-2
			c-3,0-3.6,0.9-3.6,2.8v0.1c0,1.6,0.7,2,2.3,2c1.2,0,2.4-0.4,3.3-0.9V26z"/>
		<g>
			<g>
				<path fill="#BCBEC0" d="M175.1,13.5h-6.6c-1.9,0-2.6,0.6-2.6,2.8v3.5h8.8c0.4,0,0.6,0.3,0.6,0.6v2.3c0,0.4-0.3,0.6-0.6,0.6h-8.8
					v9.9c0,0.4-0.3,0.6-0.6,0.6h-3.2c-0.4,0-0.6-0.3-0.6-0.6V16.3c0-5.5,3.3-6.6,7.5-6.6c3.9,0,5.1,0.3,6.2,0.5
					c0.5,0.1,0.6,0.2,0.6,0.7v2.1C175.8,13.2,175.5,13.5,175.1,13.5z"/>
			</g>
		</g>
		<g>
			<g>
				<path fill="#BCBEC0" d="M190.2,34h-2.8c-0.4,0-0.6-0.3-0.6-0.6v-0.5c-1.5,0.9-3,1.4-4.6,1.4c-2.7,0-5.6-1-5.6-5.4v-0.1
					c0-3.7,2.3-5.6,7.9-5.6h2v-1.4c0-2.1-0.9-2.6-2.9-2.6c-2.1,0-4.2,0.1-5.3,0.3c-0.1,0-0.1,0-0.2,0c-0.3,0-0.6-0.1-0.6-0.6v-2.1
					c0-0.4,0.2-0.6,0.6-0.7c1.3-0.3,3.2-0.5,5.4-0.5c4.6,0,7.1,2,7.1,6.2v11.7C190.8,33.7,190.5,34,190.2,34z M186.5,26h-2
					c-3,0-3.6,0.9-3.6,2.8v0.1c0,1.6,0.7,2,2.3,2c1.2,0,2.4-0.4,3.3-0.9V26z"/>
			</g>
		</g>
		<g>
			<g>
				<path fill="#BCBEC0" d="M207.5,34h-3c-0.4,0-0.6-0.3-0.6-0.7V22.8c0-2.8-0.3-3.6-2.8-3.6c-1.1,0-2.3,0.5-3.7,1.2v13
					c0,0.4-0.3,0.7-0.6,0.7h-3c-0.4,0-0.6-0.3-0.6-0.7v-17c0-0.4,0.3-0.6,0.6-0.6h2.8c0.4,0,0.6,0.3,0.6,0.6v0.7
					c1.9-1.2,3.1-1.6,5.3-1.6c4.7,0,5.6,3.1,5.6,7.3v10.6C208.2,33.7,207.9,34,207.5,34z"/>
			</g>
		</g>
	</g>
</g>
</svg>
