<?xml version="1.0" encoding="utf-8"?>
<!-- Generator: Adobe Illustrator 18.0.0, SVG Export Plug-In . SVG Version: 6.00 Build 0)  -->
<!DOCTYPE svg PUBLIC "-//W3C//DTD SVG 1.1//EN" "http://www.w3.org/Graphics/SVG/1.1/DTD/svg11.dtd">
<svg version="1.1" id="Layer_1" xmlns="http://www.w3.org/2000/svg" xmlns:xlink="http://www.w3.org/1999/xlink" x="0px" y="0px"
	 viewBox="0 0 558 149" enable-background="new 0 0 558 149" xml:space="preserve">
<g>
	<g>
		<path fill="#FFFFFF" d="M216.4,128.2C216.4,128.2,216.4,128.2,216.4,128.2c-2.3,0-4.6-1.1-6-3l-6.6-8.9l-28.5,7.8
			c-2.7,0.7-5.7-0.1-7.5-2.2c-1.9-2.1-2.4-5.1-1.4-7.7l15.2-38.4c1.1-2.7,3.6-4.5,6.5-4.7l2.8-0.1l-0.7-1c-0.2-0.2-0.3-0.4-0.4-0.7
			c0-0.1-0.1-0.2-0.1-0.3c-0.1-0.1-0.1-0.3-0.2-0.4c-0.1-0.2-0.1-0.4-0.2-0.6l-0.1-0.4c-0.1-0.4-0.2-0.9-0.2-1.3l0-0.4
			c0-0.2,0-0.6,0-0.9c0-0.1,0-0.3,0.1-0.4c0-0.3,0.1-0.6,0.2-0.9l0.1-0.4c0.1-0.4,0.3-0.8,0.5-1.2L190,62c0.2-0.2,0.3-0.5,0.5-0.8
			c0.1-0.1,0.1-0.1,0.2-0.2c0.1-0.1,0.2-0.2,0.3-0.3l24.7-25.1c1.8-1.8,4.5-2.6,7-2L346,62.8c2.7,0.5,5,2.5,5.8,5.2
			c0.8,2.5,0.2,5.2-1.6,7.1l-0.1,0.1c0,0,0,0-0.1,0.1l-0.2,0.2c-0.2,0.2-0.4,0.4-0.6,0.5l-0.3,0.2c-0.1,0.1-0.2,0.2-0.4,0.2
			c-0.1,0.1-0.3,0.2-0.4,0.3c-0.1,0-0.2,0.1-0.3,0.1l-0.1,0.1l-0.4,0.2l-128.3,50.6c-0.2,0.1-0.4,0.1-0.6,0.2
			C217.8,128.1,217.1,128.2,216.4,128.2z M207.3,106.1l9.6,12.8l122.5-48.4l-118-27.9l-21.5,21.9l73.8,2.1l0.1,9l-84.2,4.6
			l-13.7,34.6L207.3,106.1z"/>
		<g>
			<g>
				<g>
					<polyline fill="#FFFFFF" points="344.6,70.1 216.4,120.8 206.7,107.9 					"/>
					<path fill="#2F91C7" d="M216.4,123.7c-0.9,0-1.8-0.4-2.4-1.2l-9.7-12.9c-1-1.3-0.7-3.1,0.6-4.1c1.3-1,3.1-0.7,4.1,0.6l8.3,11.1
						l126.2-49.8c1.5-0.6,3.2,0.1,3.8,1.7c0.6,1.5-0.1,3.2-1.7,3.8l-128.2,50.6C217.1,123.6,216.7,123.7,216.4,123.7z"/>
				</g>
				<g>
					<polygon fill="#FFFFFF" points="188.5,78.6 173.3,117 344.6,70.1 					"/>
					<path fill="#2F91C7" d="M173.3,119.9c-0.8,0-1.6-0.3-2.2-1c-0.7-0.8-1-2-0.5-3l15.2-38.4c0.4-1.1,1.4-1.8,2.6-1.9l156.1-8.5
						c1.5-0.1,2.8,1,3.1,2.5s-0.7,2.9-2.1,3.3L174,119.8C173.8,119.9,173.5,119.9,173.3,119.9z M190.5,81.4l-12.4,31.2l139.2-38.1
						L190.5,81.4z"/>
				</g>
				<g>
					<polygon fill="#FFFFFF" points="344.6,70.1 196.3,65.9 220.9,40.9 					"/>
					<path fill="#2F91C7" d="M344.6,73.1C344.6,73.1,344.6,73.1,344.6,73.1l-148.4-4.2c-1.2,0-2.2-0.8-2.6-1.8
						c-0.4-1.1-0.2-2.3,0.6-3.2l24.7-25.1c0.7-0.7,1.8-1,2.8-0.8l123.5,29.2c1.4,0.2,2.4,1.4,2.4,2.9
						C347.6,71.8,346.3,73.1,344.6,73.1C344.6,73.1,344.6,73.1,344.6,73.1z M203.1,63.2L316,66.4l-94.1-22.3L203.1,63.2z"/>
				</g>
				<g>
					<line fill="#FFFFFF" x1="196.3" y1="65.9" x2="205.3" y2="77.7"/>
					<path fill="#2F91C7" d="M205.3,80.6c-0.9,0-1.8-0.4-2.3-1.2l-9-11.8c-1-1.3-0.7-3.1,0.5-4.1c1.3-1,3.1-0.7,4.1,0.5l9,11.8
						c1,1.3,0.7,3.1-0.5,4.1C206.5,80.4,205.9,80.6,205.3,80.6z"/>
				</g>
			</g>
		</g>
	</g>
	<g>
		<path fill="#106580" d="M12.8,29.8c-0.5,0-1-0.2-1.4-0.6c-0.4-0.4-0.6-0.9-0.6-1.4c0-0.5,0.2-1,0.6-1.4c0.8-0.8,2.1-0.7,2.8,0
			c0.4,0.4,0.6,0.9,0.6,1.4c0,0.5-0.2,1-0.6,1.4C13.8,29.6,13.3,29.8,12.8,29.8z"/>
		<path fill="#106580" d="M133.7,79.7c-1.1,0-2-0.9-2-2s0.9-2,2-2h0c1.1,0,2,0.9,2,2S134.8,79.7,133.7,79.7z M125.7,79.6
			c-1.1,0-2-0.9-2-2s0.9-2,2-2h0c1.1,0,2,0.9,2,2S126.9,79.6,125.7,79.6z M141.7,79.4c-1.1,0-2-0.9-2-2c0-1,0.8-1.9,1.8-2
			c0.9-0.1,1.8,0.4,2.1,1.4c0.3,1-0.2,2.2-1.3,2.5C142.1,79.3,141.9,79.4,141.7,79.4z M117.8,79.3c-0.1,0-0.2,0-0.2,0
			c-1-0.1-1.8-1-1.8-2c0-1.1,0.9-2,2-2c0.2,0,0.4,0,0.6,0.1c1,0.3,1.6,1.5,1.3,2.5C119.4,78.8,118.6,79.3,117.8,79.3z M149.6,78.8
			c-1.1,0-2-0.9-2-2c0-1,0.8-1.9,1.8-2c0.9-0.1,1.8,0.4,2.1,1.4c0.3,1-0.2,2.2-1.3,2.5C150,78.7,149.8,78.8,149.6,78.8z M109.9,78.6
			c-0.1,0-0.2,0-0.2,0c-1-0.1-1.8-1-1.8-2c0-1.1,0.9-2,2-2c0.2,0,0.4,0,0.6,0.1c1,0.3,1.6,1.5,1.3,2.5
			C111.5,78.1,110.7,78.6,109.9,78.6z M102,77.6c-0.1,0-0.2,0-0.3,0c-1.1-0.2-1.8-1.2-1.7-2.3c0.2-1.1,1.2-1.8,2.3-1.7
			c0,0,0,0,0.1,0c1.1,0.2,1.8,1.2,1.6,2.3C103.8,76.9,102.9,77.6,102,77.6z M94.1,76.2c-0.1,0-0.3,0-0.4,0C92.7,76,92,75,92.1,74
			c0.2-1.1,1.2-1.9,2.3-1.7c0.1,0,0.2,0,0.4,0.1c1,0.3,1.6,1.5,1.3,2.5C95.8,75.7,95,76.2,94.1,76.2z M86.4,74.5c-0.1,0-0.2,0-0.3,0
			c-0.1,0-0.2,0-0.2-0.1c-1.1-0.3-1.7-1.4-1.4-2.5c0.3-1,1.4-1.6,2.4-1.4c1,0.2,1.7,1.2,1.5,2.3C88.2,73.8,87.3,74.5,86.4,74.5z
			 M71.1,69.9c-0.2,0-0.5,0-0.7-0.1c-1-0.4-1.5-1.5-1.2-2.5c0.4-1,1.5-1.6,2.5-1.3c0.1,0,0.1,0,0.2,0.1c1,0.4,1.5,1.6,1.1,2.6
			C72.7,69.4,71.9,69.9,71.1,69.9z M63.7,67c-0.2,0-0.4,0-0.6-0.1c-0.1,0-0.2-0.1-0.4-0.1c-1-0.5-1.4-1.7-0.9-2.7
			c0.5-0.9,1.6-1.4,2.6-1c0.9,0.4,1.5,1.4,1.2,2.4C65.4,66.4,64.6,67,63.7,67z M56.5,63.7c-0.3,0-0.6-0.1-0.9-0.2
			c-1-0.5-1.4-1.7-0.9-2.7c0.5-1,1.7-1.4,2.7-0.9l0,0c1,0.5,1.4,1.7,0.9,2.7C57.9,63.3,57.2,63.7,56.5,63.7z M49.4,60
			c-0.3,0-0.7-0.1-1-0.3c-0.9-0.5-1.3-1.7-0.8-2.6c0.5-1,1.7-1.4,2.7-0.9c0.1,0,0.2,0.1,0.2,0.1c0.9,0.6,1.2,1.9,0.6,2.8
			C50.7,59.7,50.1,60,49.4,60z M42.6,56c-0.4,0-0.7-0.1-1-0.3c0,0-0.1,0-0.1-0.1c-0.9-0.6-1.2-1.9-0.6-2.8c0.6-0.9,1.8-1.2,2.7-0.6
			c0.9,0.6,1.2,1.8,0.6,2.7C43.9,55.6,43.2,56,42.6,56z M36,51.5c-0.4,0-0.8-0.1-1.2-0.4c-0.9-0.6-1.1-1.8-0.5-2.7
			c0.6-0.9,1.9-1.2,2.8-0.6c0,0,0.1,0.1,0.1,0.1c0.9,0.7,1,1.9,0.3,2.8C37.1,51.3,36.5,51.5,36,51.5z M29.6,46.7
			c-0.5,0-0.9-0.2-1.3-0.5c-0.8-0.7-1-2-0.3-2.8s1.9-1,2.8-0.3c0,0,0,0,0,0c0.8,0.7,1,2,0.3,2.8C30.8,46.4,30.2,46.7,29.6,46.7z
			 M23.6,41.5c-0.4,0-0.9-0.1-1.2-0.4c-0.1,0-0.1-0.1-0.2-0.2c-0.8-0.8-0.8-2,0-2.8c0.8-0.8,2-0.8,2.8-0.1c0.8,0.7,0.9,1.9,0.2,2.7
			C24.8,41.2,24.2,41.5,23.6,41.5z M17.9,35.9c-0.5,0-1.1-0.2-1.5-0.6c-0.7-0.8-0.7-2,0.1-2.8c0.8-0.8,2-0.8,2.8,0
			c0.1,0.1,0.1,0.1,0.2,0.2c0.7,0.9,0.6,2.1-0.3,2.8C18.8,35.7,18.4,35.9,17.9,35.9z"/>
		<path fill="#106580" d="M173.3,75.4c-0.5,0-1-0.2-1.4-0.6c-0.4-0.4-0.6-0.9-0.6-1.4c0-0.5,0.2-1,0.6-1.4c0.8-0.7,2.1-0.7,2.8,0
			c0.4,0.4,0.6,0.9,0.6,1.4c0,0.5-0.2,1-0.6,1.4C174.3,75.2,173.8,75.4,173.3,75.4z"/>
	</g>
	<path fill="#E5E6E7" d="M94.5,44.4l1.4-11.7l1.1,0c2.2-0.1,4.1-1.9,4.3-4c0.1-0.9-0.1-1.8-0.7-2.4c-0.5-0.6-1.3-1-2.3-1l-0.2,0
		c-0.1,0-0.1,0-0.2,0l-1.2,0.1l0.1-1.2l1.2-10.5l67.1-2.7l-1.4,11.6l-0.9,0c-2.1,0.1-4,1.9-4.3,4c-0.1,0.9,0.1,1.8,0.7,2.4
		c0.5,0.6,1.3,1,2.3,1l1.3,0l-1.4,11.6L94.5,44.4z M97.7,34.7l-0.9,7.6l63.1-2.5l0.9-7.7c-1.1-0.2-2.1-0.7-2.8-1.5
		c-0.9-1.1-1.4-2.5-1.2-4c0.3-2.7,2.6-5.1,5.3-5.6l0.9-7.7l-63.1,2.5L99,23.5c1.2,0.1,2.3,0.7,3.1,1.6c0.9,1.1,1.4,2.5,1.2,4
		C103,31.9,100.5,34.3,97.7,34.7z"/>
	<g>
		<path fill="#FFFFFF" d="M441.5,96c0.3-2.6,2.6-4.7,5.2-4.8l1.1-9.6l-65.1,2.6l-1.1,9.6c0.1,0,0.2,0,0.3,0c2.6-0.1,4.4,1.9,4.1,4.5
			c-0.3,2.6-2.6,4.7-5.2,4.8c-0.1,0-0.2,0-0.3,0l-1.1,9.6l65.1-2.6l1.1-9.6C443,100.6,441.2,98.6,441.5,96z"/>
		<path fill="#E5E6E7" d="M378.2,113.7l1.4-11.7l1.1,0c2.1-0.1,4.1-1.9,4.3-4c0.1-0.9-0.1-1.8-0.7-2.4c-0.5-0.6-1.3-1-2.3-1l-0.2,0
			c-0.1,0-0.1,0-0.2,0l-1.2,0.1l0.1-1.2l1.2-10.5l67.1-2.7l-1.4,11.6l-0.9,0c-2.1,0.1-4,1.9-4.3,4c-0.1,0.9,0.1,1.8,0.7,2.4
			c0.5,0.6,1.3,1,2.3,1l1.3,0l-1.4,11.6L378.2,113.7z M381.4,104l-0.9,7.6l63.1-2.5l0.9-7.7c-1.1-0.2-2.1-0.7-2.8-1.5
			c-0.9-1.1-1.4-2.5-1.2-4c0.3-2.7,2.6-5.1,5.3-5.6l0.9-7.7l-63.1,2.5l-0.9,7.7c1.2,0.1,2.3,0.7,3.1,1.6c0.9,1.1,1.4,2.5,1.2,4
			C386.7,101.2,384.2,103.6,381.4,104z"/>
	</g>
	<path fill="#E5E6E7" d="M327.1,39.5l1-8.7l0.9,0l0.1,1v-1c1.3-0.1,2.5-1.2,2.6-2.4c0.1-0.5-0.1-1-0.4-1.4c-0.3-0.4-0.8-0.5-1.3-0.5
		l-0.2,0l-1.2,0.1l0.1-1.2l0.9-7.4l46.6-1.9l-1,8.6l-0.9,0c-1.3,0.1-2.5,1.2-2.6,2.4c-0.1,0.5,0.1,1,0.4,1.4
		c0.3,0.4,0.8,0.5,1.3,0.5l1.2,0l0,1.2l-0.9,7.4L327.1,39.5z M329.9,32.8l-0.5,4.6l42.5-1.7l0.6-4.7c-0.7-0.2-1.3-0.6-1.8-1.1
		c-0.7-0.8-1-1.8-0.9-3c0.2-2,1.8-3.6,3.7-4.1l0.6-4.7l-42.5,1.7l-0.6,4.7c0.8,0.2,1.5,0.5,2,1.1c0.7,0.8,1,1.8,0.9,3
		C333.5,30.7,331.9,32.4,329.9,32.8z"/>
	<g>
		<path fill="#FFFFFF" d="M80.4,126.6c0.2-1.8,1.8-3.2,3.6-3.3l0.8-6.6l-44.6,1.8l-0.8,6.6c0.1,0,0.1,0,0.2,0c1.8-0.1,3,1.3,2.8,3.1
			c-0.2,1.8-1.8,3.2-3.6,3.3c-0.1,0-0.1,0-0.2,0l-0.8,6.6l44.6-1.8l0.8-6.6C81.4,129.7,80.1,128.3,80.4,126.6z"/>
		<path fill="#E5E6E7" d="M36.7,139l1-8.7l1,0c1.3-0.1,2.5-1.2,2.6-2.4c0.1-0.5-0.1-1-0.4-1.4c-0.3-0.4-0.8-0.5-1.3-0.5l-0.2,0
			l-1.2,0.1l0.1-1.2l0.9-7.4l46.6-1.9l-1,8.6l-0.9,0c-1.3,0.1-2.5,1.2-2.6,2.4c-0.1,0.5,0.1,1,0.4,1.4c0.3,0.4,0.8,0.5,1.3,0.5
			l1.2,0l0,1.2l-0.9,7.4L36.7,139z M39.5,132.3l-0.5,4.6l42.5-1.7l0.6-4.7c-0.7-0.2-1.3-0.6-1.8-1.1c-0.7-0.8-1-1.8-0.9-3
			c0.2-2,1.8-3.6,3.7-4.1l0.6-4.7L41,119.4l-0.6,4.7c0.8,0.2,1.5,0.5,2,1.1c0.7,0.8,1,1.8,0.9,3C43.2,130.2,41.5,131.9,39.5,132.3z"
			/>
	</g>
	<path fill="#106580" d="M543.8,72.4c-0.2,0-0.5,0-0.7-0.1c-1-0.4-1.6-1.5-1.2-2.5c0.4-1,1.5-1.6,2.5-1.2c0,0,0.1,0,0.1,0
		c1,0.4,1.6,1.5,1.2,2.6C545.3,72,544.6,72.4,543.8,72.4z M536.2,69.7c-0.2,0-0.5,0-0.7-0.1c-1-0.4-1.6-1.5-1.2-2.5
		c0.4-1,1.5-1.6,2.5-1.2c0,0,0.1,0,0.1,0c1,0.4,1.6,1.5,1.2,2.6C537.8,69.2,537,69.7,536.2,69.7z M362.2,67.9
		c-0.9,0-1.6-0.6-1.9-1.4c-0.3-1,0.2-2.1,1.3-2.5c0,0,0.1,0,0.1,0c1.1-0.3,2.2,0.3,2.5,1.4s-0.3,2.2-1.4,2.5
		C362.6,67.9,362.4,67.9,362.2,67.9z M528.6,67.3c-0.2,0-0.3,0-0.5-0.1c0,0-0.1,0-0.2,0c-1-0.3-1.6-1.5-1.3-2.5
		c0.3-1,1.4-1.6,2.5-1.3c1,0.3,1.6,1.4,1.4,2.4C530.3,66.7,529.5,67.3,528.6,67.3z M370,66c-0.8,0-1.6-0.5-1.9-1.4
		c-0.3-1,0.2-2.2,1.3-2.5c0.1,0,0.3-0.1,0.4-0.1c1.1-0.1,2.1,0.6,2.2,1.7c0.1,1-0.5,2-1.5,2.2C370.3,66,370.2,66,370,66z
		 M520.9,65.2c-0.1,0-0.2,0-0.3,0c-0.1,0-0.3,0-0.4-0.1c-1-0.3-1.6-1.5-1.3-2.5c0.3-1,1.4-1.6,2.4-1.3c1,0.2,1.6,1.2,1.5,2.2
		C522.7,64.4,521.9,65.2,520.9,65.2z M377.8,64.3c-1,0-1.8-0.7-2-1.7c-0.2-1.1,0.5-2.1,1.6-2.3c1-0.2,2.1,0.4,2.3,1.5
		c0.3,1.1-0.4,2.2-1.5,2.4c-0.1,0-0.1,0-0.2,0C378.1,64.3,378,64.3,377.8,64.3z M513.1,63.3c-0.1,0-0.3,0-0.4,0
		c-1.1-0.2-1.8-1.2-1.6-2.3c0.2-1.1,1.2-1.8,2.3-1.6c0.1,0,0.1,0,0.2,0c1.1,0.3,1.7,1.4,1.5,2.4C514.8,62.7,514,63.3,513.1,63.3z
		 M385.7,62.8c-1,0-1.8-0.7-2-1.7c-0.2-1.1,0.5-2.1,1.6-2.3c1-0.2,2.1,0.4,2.3,1.5c0.3,1.1-0.4,2.2-1.5,2.4c-0.1,0-0.1,0-0.2,0
		C385.9,62.8,385.8,62.8,385.7,62.8z M505.3,61.7c-0.1,0-0.3,0-0.4,0c-1.1-0.2-1.8-1.2-1.6-2.3c0.2-1.1,1.2-1.8,2.3-1.6
		c0.1,0,0.1,0,0.2,0c1.1,0.3,1.7,1.4,1.5,2.4C507,61.1,506.1,61.7,505.3,61.7z M393.6,61.5c-1,0-1.8-0.7-2-1.7
		c-0.2-1.1,0.6-2.1,1.6-2.3c0,0,0.1,0,0.1,0c1.1-0.1,2.1,0.6,2.2,1.7c0.1,1.1-0.6,2.1-1.7,2.2C393.8,61.5,393.7,61.5,393.6,61.5z
		 M401.6,60.3c-1,0-1.8-0.7-2-1.7c-0.2-1.1,0.6-2.1,1.6-2.3c0,0,0.1,0,0.1,0c1.1-0.1,2.1,0.6,2.2,1.7c0.1,1.1-0.6,2.1-1.7,2.2
		C401.7,60.3,401.6,60.3,401.6,60.3z M409.5,59.3c-1,0-1.8-0.7-2-1.7c-0.2-1.1,0.6-2.1,1.6-2.3c1.2-0.2,2.3,0.8,2.3,2
		c0,1-0.8,1.9-1.8,2C409.6,59.3,409.6,59.3,409.5,59.3z M417.5,58.5c-1,0-1.8-0.7-2-1.7c-0.2-1.1,0.6-2.1,1.6-2.3
		c1.2-0.2,2.3,0.8,2.3,2c0,1-0.8,1.9-1.8,2C417.6,58.5,417.5,58.5,417.5,58.5z M481.5,58.3c-0.1,0-0.2,0-0.3,0
		c-1.1-0.2-1.8-1.2-1.6-2.3c0.2-1,1.1-1.8,2.2-1.7c1,0.1,1.8,0.9,1.8,2C483.5,57.4,482.6,58.3,481.5,58.3z M425.5,57.8
		c-1.1,0-2-0.9-2-2c0-1.1,0.8-1.9,1.9-2c1,0,2,0.7,2.1,1.7c0.1,1.1-0.6,2.1-1.7,2.2C425.6,57.8,425.5,57.8,425.5,57.8z M473.5,57.7
		c0,0-0.1,0-0.1,0c-1.1-0.1-1.9-0.9-1.9-2c0-1.2,1.1-2.1,2.3-2c1.1,0.1,1.9,1.1,1.7,2.2C475.4,56.9,474.5,57.7,473.5,57.7z
		 M433.5,57.3c-1.1,0-2-0.9-2-2c0-1.1,0.8-1.9,1.9-2c1-0.1,2,0.7,2.1,1.7c0.1,1.1-0.6,2.1-1.7,2.2C433.6,57.3,433.5,57.3,433.5,57.3
		z M465.5,57.2c0,0-0.1,0-0.1,0c-1.1-0.1-1.9-0.9-1.9-2c0-1.2,1.1-2.1,2.3-2c1.1,0.1,1.9,1.1,1.7,2.2
		C467.4,56.5,466.5,57.2,465.5,57.2z M441.5,57c-1.1,0-2-0.9-2-2c0-1.1,0.8-1.9,1.9-2c1-0.1,2,0.7,2.1,1.7c0.1,1.1-0.6,2.1-1.7,2.2
		C441.6,57,441.6,57,441.5,57z M457.5,57c-1.1,0-2-0.9-2-2s0.9-2,2-2h0c1.1,0,2,0.9,2,2S458.6,57,457.5,57z M449.5,56.9
		c-1.1,0-2-0.9-2-2s0.9-2,2-2h0c1.1,0,2,0.9,2,2S450.6,56.9,449.5,56.9z"/>
	
		<rect x="116.6" y="100.2" transform="matrix(4.735637e-02 0.9989 -0.9989 4.735637e-02 231.7428 -3.3141)" fill="#FFFFFF" width="2" height="39.3"/>
	
		<rect x="140" y="107.7" transform="matrix(4.735637e-02 0.9989 -0.9989 4.735637e-02 261.4818 -19.5033)" fill="#FFFFFF" width="2" height="39.3"/>
	
		<rect x="67.1" y="8.2" transform="matrix(4.735637e-02 0.9989 -0.9989 4.735637e-02 92.6986 -41.5705)" fill="#E5E6E7" width="2" height="39.3"/>
	
		<rect x="76.3" y="22.1" transform="matrix(4.589490e-02 0.9989 -0.9989 4.589490e-02 105.9589 -46.4759)" fill="#E5E6E7" width="2" height="20.2"/>
	<rect x="288.2" y="27.7" fill="#E5E6E7" width="26.5" height="2"/>
	<rect x="295.7" y="31.7" fill="#E5E6E7" width="26.5" height="2"/>
	
		<rect x="377.6" y="103.5" transform="matrix(5.763395e-02 0.9983 -0.9983 5.763395e-02 476.5818 -264.9704)" fill="#FFFFFF" width="2" height="32.9"/>
	
		<rect x="363" y="108.9" transform="matrix(5.763395e-02 0.9983 -0.9983 5.763395e-02 468.14 -245.2762)" fill="#FFFFFF" width="2" height="32.9"/>
</g>
<path fill="#106580" d="M78.7,72.4c-0.2,0-0.5,0-0.7-0.1c-1-0.4-1.5-1.5-1.2-2.5c0.4-1,1.5-1.6,2.5-1.3c0.1,0,0.1,0,0.2,0.1
	c1,0.4,1.5,1.6,1.1,2.6C80.2,71.9,79.5,72.4,78.7,72.4z"/>
<path fill="#106580" d="M157.5,78c-0.2,0-0.5,0-0.7-0.1c-1-0.4-1.5-1.5-1.2-2.5c0.4-1,1.5-1.6,2.5-1.3c0.1,0,0.1,0,0.2,0.1
	c1,0.4,1.5,1.6,1.1,2.6C159.1,77.5,158.3,78,157.5,78z"/>
<path fill="#106580" d="M165.4,76.8c-0.2,0-0.5,0-0.7-0.1c-1-0.4-1.5-1.5-1.2-2.5c0.4-1,1.5-1.6,2.5-1.3c0.1,0,0.1,0,0.2,0.1
	c1,0.4,1.5,1.6,1.1,2.6C166.9,76.3,166.2,76.8,165.4,76.8z"/>
<path fill="#106580" d="M497.4,60.4c-0.2,0-0.5,0-0.7-0.1c-1-0.4-1.5-1.5-1.2-2.5c0.4-1,1.5-1.6,2.5-1.3c0.1,0,0.1,0,0.2,0.1
	c1,0.4,1.5,1.6,1.1,2.6C498.9,59.9,498.1,60.4,497.4,60.4z"/>
<path fill="#106580" d="M489.4,59.3c-0.2,0-0.5,0-0.7-0.1c-1-0.4-1.5-1.5-1.2-2.5c0.4-1,1.5-1.6,2.5-1.3c0.1,0,0.1,0,0.2,0.1
	c1,0.4,1.5,1.6,1.1,2.6C490.9,58.8,490.2,59.3,489.4,59.3z"/>
</svg>
