<?xml version="1.0" encoding="utf-8"?>
<!-- Generator: Adobe Illustrator 18.0.0, SVG Export Plug-In . SVG Version: 6.00 Build 0)  -->
<!DOCTYPE svg PUBLIC "-//W3C//DTD SVG 1.1//EN" "http://www.w3.org/Graphics/SVG/1.1/DTD/svg11.dtd">
<svg version="1.1" id="Layer_1" xmlns="http://www.w3.org/2000/svg" xmlns:xlink="http://www.w3.org/1999/xlink" x="0px" y="0px"
	 viewBox="0 0 50 50" enable-background="new 0 0 50 50" xml:space="preserve">
<g>
	<g>
		<g>
			<g>
				<path fill="#808080" d="M25,35.4l-0.4-0.9c-0.2-0.4-5.5-10.9-5.5-14c0-3.3,2.7-6,6-6s6,2.7,6,6c0,3.1-5.3,13.5-5.5,14L25,35.4z
					 M25,15.6c-2.7,0-5,2.2-5,5c0,2.2,3.2,9.2,5,12.6c1.7-3.5,5-10.5,5-12.6C30,17.8,27.7,15.6,25,15.6z"/>
			</g>
		</g>
		<path fill="#808080" d="M25.1,22.9c-1.4,0-2.4-1.1-2.4-2.4s1.1-2.4,2.4-2.4c1.4,0,2.4,1.1,2.4,2.4S26.5,22.9,25.1,22.9z M25.1,19
			c-0.8,0-1.4,0.7-1.4,1.4s0.7,1.4,1.4,1.4s1.4-0.7,1.4-1.4S25.9,19,25.1,19z"/>
	</g>
</g>
</svg>
