<?xml version="1.0" encoding="utf-8"?>
<!-- Generator: Adobe Illustrator 18.0.0, SVG Export Plug-In . SVG Version: 6.00 Build 0)  -->
<!DOCTYPE svg PUBLIC "-//W3C//DTD SVG 1.1//EN" "http://www.w3.org/Graphics/SVG/1.1/DTD/svg11.dtd">
<svg version="1.1" id="Layer_1" xmlns="http://www.w3.org/2000/svg" xmlns:xlink="http://www.w3.org/1999/xlink" x="0px" y="0px"
	 viewBox="0 0 150 51.1" enable-background="new 0 0 150 51.1" xml:space="preserve">
<g>
	<g>
		<g>
			<g>
				<g>
					<path fill="#D9E9F5" d="M34.6,42.6H15.8c-2.6,0-4.7-2.1-4.7-4.7V25.6c0-2.6,2.1-4.7,4.7-4.7h18.8c2.6,0,4.7,2.1,4.7,4.7V38
						C39.3,40.5,37.2,42.6,34.6,42.6z"/>
					<path fill="#428FCD" d="M34.6,43.7H15.8c-3.2,0-5.8-2.6-5.8-5.8V25.6c0-3.2,2.6-5.8,5.8-5.8h18.8c3.2,0,5.8,2.6,5.8,5.8V38
						C40.4,41.1,37.8,43.7,34.6,43.7z M15.8,22c-2,0-3.6,1.6-3.6,3.6V38c0,2,1.6,3.6,3.6,3.6h18.8c2,0,3.6-1.6,3.6-3.6V25.6
						c0-2-1.6-3.6-3.6-3.6H15.8z"/>
				</g>
			</g>
			<circle fill="#B3D2EB" cx="25.1" cy="31.9" r="6.6"/>
			<path fill="#428FCD" d="M35.1,18.8h-3v-1.6c0-3.8-3.1-6.8-6.8-6.8s-6.8,3.1-6.8,6.8v1.6h-3v-1.6c0-5.4,4.4-9.8,9.8-9.8
				c5.4,0,9.8,4.4,9.8,9.8V18.8z"/>
			<g>
				<g>
					<path fill="#74BD27" d="M22.8,38.3c-0.4,0-0.9-0.2-1.2-0.5l-3.2-3.3c-0.6-0.7-0.6-1.7,0-2.3c0.7-0.6,1.7-0.6,2.3,0l1.9,1.9
						l6.8-8.1c0.6-0.7,1.6-0.8,2.3-0.2c0.7,0.6,0.8,1.6,0.2,2.3l-7.9,9.5C23.8,38.1,23.4,38.3,22.8,38.3
						C22.9,38.3,22.8,38.3,22.8,38.3z"/>
					<path fill="#FFFFFF" d="M30.8,25.5c0.4,0,0.7,0.1,1.1,0.4c0.7,0.6,0.8,1.6,0.2,2.3l-7.9,9.5c-0.3,0.4-0.7,0.6-1.2,0.6
						c0,0,0,0-0.1,0c-0.4,0-0.9-0.2-1.2-0.5l-3.2-3.3c-0.6-0.7-0.6-1.7,0-2.3c0.3-0.3,0.7-0.5,1.1-0.5c0.4,0,0.9,0.2,1.2,0.5
						l1.9,1.9l6.8-8.1C29.8,25.7,30.3,25.5,30.8,25.5 M30.8,25L30.8,25c-0.6,0-1.2,0.3-1.7,0.8l-6.4,7.7l-1.5-1.5
						c-0.4-0.4-1-0.7-1.5-0.7c-0.6,0-1.1,0.2-1.5,0.6c-0.4,0.4-0.6,0.9-0.7,1.5c0,0.6,0.2,1.1,0.6,1.5l3.2,3.3
						c0.4,0.4,1,0.7,1.5,0.7l0.1,0c0.6,0,1.2-0.3,1.6-0.8l7.9-9.5c0.8-0.9,0.6-2.3-0.3-3C31.7,25.1,31.3,25,30.8,25L30.8,25z"/>
				</g>
			</g>
		</g>
		<circle fill="#428FCD" cx="35" cy="25.2" r="0.7"/>
		<circle fill="#428FCD" cx="35" cy="38.3" r="0.7"/>
		<circle fill="#428FCD" cx="15.2" cy="38.3" r="0.7"/>
		<circle fill="#428FCD" cx="15.2" cy="25.2" r="0.7"/>
	</g>
	<g>
		<g>
			<path fill="#428FCD" d="M52.9,28.5c0,1.2-0.4,2-1.2,2.7s-1.9,0.9-3.4,0.9h-1.3v4.5h-1.3V25.2h3C51.4,25.2,52.9,26.3,52.9,28.5z
				 M46.9,31h1.2c1.2,0,2-0.2,2.6-0.6c0.5-0.4,0.8-1,0.8-1.8c0-0.8-0.2-1.3-0.7-1.7c-0.5-0.4-1.3-0.6-2.3-0.6h-1.5V31z"/>
			<path fill="#428FCD" d="M60.3,36.6l-0.3-1.2H60c-0.4,0.5-0.9,0.9-1.3,1.1c-0.4,0.2-1,0.3-1.6,0.3c-0.8,0-1.5-0.2-2-0.7
				s-0.7-1.1-0.7-1.9c0-1.7,1.4-2.6,4.1-2.7l1.5,0v-0.5c0-0.7-0.1-1.2-0.4-1.5S58.8,29,58.2,29c-0.7,0-1.5,0.2-2.4,0.7l-0.4-1
				c0.4-0.2,0.9-0.4,1.4-0.5s1-0.2,1.5-0.2c1,0,1.8,0.2,2.3,0.7s0.7,1.2,0.7,2.2v5.8H60.3z M57.4,35.7c0.8,0,1.4-0.2,1.9-0.7
				S60,34,60,33.2v-0.8l-1.3,0.1c-1,0-1.8,0.2-2.2,0.5s-0.7,0.7-0.7,1.3c0,0.5,0.1,0.8,0.4,1.1C56.5,35.6,56.9,35.7,57.4,35.7z"/>
			<path fill="#428FCD" d="M71,28v0.8l-1.6,0.2c0.1,0.2,0.3,0.4,0.4,0.7s0.2,0.6,0.2,1c0,0.8-0.3,1.5-0.9,2s-1.4,0.8-2.4,0.8
				c-0.3,0-0.5,0-0.7-0.1c-0.6,0.3-0.8,0.7-0.8,1.1c0,0.2,0.1,0.4,0.3,0.5c0.2,0.1,0.5,0.2,1,0.2H68c0.9,0,1.6,0.2,2.1,0.6
				s0.7,1,0.7,1.7c0,0.9-0.4,1.7-1.1,2.2c-0.8,0.5-1.9,0.7-3.3,0.7c-1.1,0-2-0.2-2.6-0.6c-0.6-0.4-0.9-1-0.9-1.8
				c0-0.5,0.2-1,0.5-1.4c0.3-0.4,0.8-0.6,1.4-0.8c-0.2-0.1-0.4-0.3-0.6-0.5C64.1,35.3,64,35,64,34.8c0-0.3,0.1-0.6,0.2-0.8
				c0.2-0.2,0.4-0.5,0.8-0.7c-0.4-0.2-0.8-0.5-1.1-0.9c-0.3-0.4-0.4-0.9-0.4-1.5c0-0.9,0.3-1.7,0.8-2.2c0.6-0.5,1.4-0.8,2.4-0.8
				c0.4,0,0.9,0.1,1.2,0.2H71z M64.1,38c0,0.5,0.2,0.8,0.6,1.1c0.4,0.2,1,0.4,1.7,0.4c1.1,0,1.9-0.2,2.4-0.5
				c0.5-0.3,0.8-0.8,0.8-1.3c0-0.5-0.1-0.8-0.4-1s-0.8-0.3-1.6-0.3H66c-0.6,0-1,0.1-1.4,0.4S64.1,37.5,64.1,38z M64.8,30.8
				c0,0.6,0.2,1.1,0.5,1.4c0.3,0.3,0.8,0.5,1.4,0.5c1.3,0,1.9-0.6,1.9-1.8c0-1.3-0.6-1.9-1.9-1.9c-0.6,0-1.1,0.2-1.4,0.5
				C65,29.7,64.8,30.1,64.8,30.8z"/>
			<path fill="#428FCD" d="M80.1,32.3c0,1.4-0.4,2.5-1.1,3.3c-0.7,0.8-1.7,1.2-2.9,1.2c-0.8,0-1.4-0.2-2-0.5
				c-0.6-0.4-1.1-0.9-1.4-1.5c-0.3-0.7-0.5-1.5-0.5-2.4c0-1.4,0.3-2.5,1-3.3c0.7-0.8,1.7-1.2,2.9-1.2c1.2,0,2.1,0.4,2.9,1.2
				S80.1,31,80.1,32.3z M73.6,32.3c0,1.1,0.2,1.9,0.7,2.5c0.4,0.6,1.1,0.9,1.9,0.9c0.8,0,1.5-0.3,1.9-0.9c0.4-0.6,0.7-1.4,0.7-2.5
				c0-1.1-0.2-1.9-0.7-2.5S77,29,76.2,29c-0.8,0-1.5,0.3-1.9,0.8C73.8,30.4,73.6,31.2,73.6,32.3z"/>
			<path fill="#428FCD" d="M93.3,33.4c0,1-0.4,1.8-1.1,2.4s-1.8,0.9-3.1,0.9c-1.2,0-2.3-0.2-3.2-0.7v-2.2c0.8,0.3,1.4,0.6,2,0.7
				c0.5,0.1,1,0.2,1.5,0.2c0.5,0,0.9-0.1,1.2-0.3c0.3-0.2,0.4-0.5,0.4-0.9c0-0.2-0.1-0.4-0.2-0.6s-0.3-0.3-0.6-0.5s-0.7-0.4-1.5-0.8
				c-0.7-0.3-1.2-0.6-1.6-0.9c-0.3-0.3-0.6-0.7-0.8-1.1c-0.2-0.4-0.3-0.9-0.3-1.4c0-1,0.3-1.8,1-2.4c0.7-0.6,1.6-0.9,2.8-0.9
				c0.6,0,1.2,0.1,1.7,0.2s1.1,0.3,1.7,0.6l-0.8,1.9c-0.6-0.2-1.1-0.4-1.5-0.5c-0.4-0.1-0.8-0.1-1.2-0.1c-0.5,0-0.8,0.1-1.1,0.3
				c-0.2,0.2-0.4,0.5-0.4,0.8c0,0.2,0,0.4,0.1,0.6c0.1,0.2,0.3,0.3,0.5,0.5c0.2,0.1,0.7,0.4,1.5,0.8c1.1,0.5,1.8,1,2.2,1.5
				C93.1,32.1,93.3,32.7,93.3,33.4z"/>
			<path fill="#428FCD" d="M99.2,36.8c-1.4,0-2.5-0.4-3.3-1.2c-0.8-0.8-1.2-1.9-1.2-3.3c0-1.5,0.4-2.6,1.1-3.4
				c0.7-0.8,1.7-1.2,3-1.2c1.2,0,2.2,0.4,2.9,1.1s1,1.7,1,2.9v1.2h-5.6c0,0.7,0.2,1.2,0.6,1.6s0.9,0.6,1.6,0.6c0.5,0,1-0.1,1.5-0.2
				s1-0.3,1.5-0.5v1.8c-0.4,0.2-0.9,0.4-1.3,0.5S99.9,36.8,99.2,36.8z M98.8,29.4c-0.5,0-0.9,0.2-1.2,0.5c-0.3,0.3-0.5,0.8-0.5,1.4
				h3.3c0-0.6-0.2-1-0.5-1.4S99.3,29.4,98.8,29.4z"/>
			<path fill="#428FCD" d="M112.3,27.9v1.2l-1.4,0.4c0.2,0.4,0.4,0.8,0.4,1.3c0,0.9-0.3,1.7-1,2.2c-0.7,0.5-1.6,0.8-2.7,0.8l-0.4,0
				l-0.4,0c-0.2,0.2-0.4,0.4-0.4,0.6c0,0.3,0.4,0.5,1.3,0.5h1.5c1,0,1.7,0.2,2.2,0.6c0.5,0.4,0.8,1,0.8,1.8c0,1-0.4,1.8-1.3,2.4
				s-2.1,0.8-3.7,0.8c-1.2,0-2.1-0.2-2.8-0.6c-0.6-0.4-1-1-1-1.8c0-0.5,0.2-1,0.5-1.3c0.3-0.4,0.8-0.6,1.4-0.8
				c-0.2-0.1-0.5-0.3-0.6-0.5c-0.2-0.2-0.3-0.5-0.3-0.8c0-0.3,0.1-0.6,0.3-0.8s0.5-0.4,0.8-0.7c-0.5-0.2-0.8-0.5-1.1-1
				c-0.3-0.4-0.4-1-0.4-1.5c0-1,0.3-1.7,0.9-2.2s1.5-0.8,2.7-0.8c0.2,0,0.5,0,0.9,0.1c0.3,0,0.6,0.1,0.6,0.1H112.3z M105.5,37.8
				c0,0.3,0.2,0.6,0.5,0.8s0.8,0.3,1.3,0.3c0.9,0,1.5-0.1,2-0.4s0.7-0.6,0.7-1c0-0.3-0.1-0.6-0.4-0.7c-0.3-0.1-0.7-0.2-1.3-0.2h-1.2
				c-0.4,0-0.8,0.1-1.1,0.3C105.7,37.2,105.5,37.5,105.5,37.8z M106.4,30.7c0,0.5,0.1,0.8,0.3,1.1c0.2,0.3,0.5,0.4,1,0.4
				c0.4,0,0.8-0.1,1-0.4c0.2-0.3,0.3-0.7,0.3-1.1c0-1.1-0.4-1.6-1.3-1.6C106.8,29.2,106.4,29.7,106.4,30.7z"/>
			<path fill="#428FCD" d="M119.9,36.6l-0.3-1.1h-0.1c-0.3,0.4-0.6,0.7-1.1,0.9c-0.5,0.2-1,0.3-1.6,0.3c-1,0-1.8-0.3-2.3-0.8
				c-0.5-0.5-0.8-1.3-0.8-2.4v-5.7h2.4V33c0,0.6,0.1,1.1,0.3,1.4s0.6,0.5,1.1,0.5c0.7,0,1.1-0.2,1.4-0.7s0.4-1.2,0.4-2.2v-4.1h2.4
				v8.7H119.9z"/>
			<path fill="#428FCD" d="M129.1,27.7c0.3,0,0.6,0,0.8,0.1l-0.2,2.2c-0.2-0.1-0.4-0.1-0.7-0.1c-0.8,0-1.4,0.2-1.8,0.6
				c-0.4,0.4-0.6,0.9-0.6,1.6v4.4h-2.4v-8.7h1.8l0.4,1.5h0.1c0.3-0.5,0.6-0.9,1.1-1.2C128.1,27.9,128.6,27.7,129.1,27.7z"/>
			<path fill="#428FCD" d="M139.4,32.2c0,1.4-0.4,2.5-1.1,3.3c-0.8,0.8-1.8,1.2-3.1,1.2c-0.8,0-1.6-0.2-2.2-0.6
				c-0.6-0.4-1.1-0.9-1.5-1.6c-0.3-0.7-0.5-1.5-0.5-2.4c0-1.4,0.4-2.5,1.1-3.3c0.7-0.8,1.8-1.2,3.1-1.2c0.8,0,1.6,0.2,2.2,0.5
				s1.1,0.9,1.5,1.6S139.4,31.3,139.4,32.2z M133.4,32.2c0,0.9,0.1,1.5,0.4,2c0.3,0.4,0.7,0.7,1.4,0.7c0.6,0,1.1-0.2,1.4-0.7
				s0.4-1.1,0.4-2c0-0.9-0.1-1.5-0.4-1.9s-0.7-0.6-1.4-0.6c-0.6,0-1.1,0.2-1.4,0.6S133.4,31.4,133.4,32.2z"/>
		</g>
		<rect x="44.1" y="39.2" fill="#D9E9F5" width="16.4" height="1.1"/>
		<rect x="72.4" y="39.2" fill="#D9E9F5" width="28.9" height="1.1"/>
		<rect x="113.6" y="39.2" fill="#D9E9F5" width="26.3" height="1.1"/>
	</g>
</g>
</svg>
