<?xml version="1.0" encoding="utf-8"?>
<!-- Generator: Adobe Illustrator 18.0.0, SVG Export Plug-In . SVG Version: 6.00 Build 0)  -->
<!DOCTYPE svg PUBLIC "-//W3C//DTD SVG 1.1//EN" "http://www.w3.org/Graphics/SVG/1.1/DTD/svg11.dtd">
<svg version="1.1" id="Layer_1" xmlns="http://www.w3.org/2000/svg" xmlns:xlink="http://www.w3.org/1999/xlink" x="0px" y="0px"
	 viewBox="0 0 172 180" enable-background="new 0 0 172 180" xml:space="preserve">
<g>
	<g>
		<g>
			<rect x="23.4" y="78.4" fill="#4887C2" width="112.5" height="87"/>
			<path fill="#013564" d="M138.4,167.9H20.9v-92h117.5V167.9z M25.9,162.9h107.5v-82H25.9V162.9z"/>
		</g>
		<g>
			<polygon fill="#F3B400" points="79.1,132 69.3,137.2 71.2,126.3 63.3,118.5 74.2,116.9 79.1,107 84,116.9 95,118.5 87.1,126.3 
				88.9,137.2 			"/>
			<path fill="#013564" d="M79.1,107l4.9,9.9l11,1.6l-7.9,7.7l1.9,10.9l-9.8-5.2l-9.8,5.2l1.9-10.9l-7.9-7.7l11-1.6L79.1,107
				 M79.1,103c-1.5,0-2.9,0.9-3.6,2.2l-4,8.1l-8.9,1.3c-1.5,0.2-2.8,1.3-3.2,2.7s-0.1,3,1,4.1l6.4,6.3l-1.5,8.8
				c-0.3,1.5,0.4,3,1.6,3.9c0.7,0.5,1.5,0.8,2.4,0.8c0.6,0,1.3-0.2,1.9-0.5l7.9-4.2l7.9,4.2c0.6,0.3,1.2,0.5,1.9,0.5
				c0.8,0,1.7-0.3,2.4-0.8c1.2-0.9,1.8-2.4,1.6-3.9l-1.5-8.8l6.4-6.3c1.1-1.1,1.5-2.7,1-4.1s-1.7-2.5-3.2-2.7l-8.9-1.3l-4-8.1
				C82.1,103.9,80.7,103,79.1,103L79.1,103z"/>
		</g>
	</g>
	<path fill="#013564" d="M124.6,70.1h-6V62c0-21.5-17.5-39-39-39c-21.5,0-39,17.5-39,39v8.1h-6V62c0-24.8,20.2-45,45-45
		c24.8,0,45,20.2,45,45V70.1z"/>
	<g>
		<path fill="#74BD27" d="M129.7,111.6L118,98.2c-1.4-1.6-1.2-4,0.4-5.4s4-1.2,5.4,0.4l6.1,7l26.5-28.8c1.4-1.6,3.9-1.7,5.4-0.2
			c1.6,1.4,1.7,3.9,0.2,5.4L129.7,111.6z"/>
		<path fill="#FFFFFF" d="M159.2,70.1c0.9,0,1.9,0.3,2.6,1c1.6,1.4,1.7,3.9,0.2,5.4l-32.2,35L118,98.2c-1.4-1.6-1.2-4,0.4-5.4
			c0.7-0.6,1.6-0.9,2.5-0.9c1.1,0,2.1,0.4,2.9,1.3l6.1,7l26.5-28.8C157.1,70.5,158.1,70.1,159.2,70.1 M159.2,67.1L159.2,67.1
			c-1.9,0-3.7,0.8-5,2.2l-24.2,26.3l-3.9-4.5c-1.3-1.5-3.2-2.3-5.1-2.3c-1.7,0-3.2,0.6-4.5,1.7c-2.8,2.5-3.1,6.8-0.6,9.6l11.7,13.4
			l2.2,2.5l2.3-2.5l32.2-35c2.5-2.8,2.4-7.1-0.4-9.6C162.5,67.8,160.9,67.1,159.2,67.1L159.2,67.1z"/>
	</g>
</g>
</svg>
