<?xml version="1.0" encoding="utf-8"?>
<!-- Generator: Adobe Illustrator 18.0.0, SVG Export Plug-In . SVG Version: 6.00 Build 0)  -->
<!DOCTYPE svg PUBLIC "-//W3C//DTD SVG 1.1//EN" "http://www.w3.org/Graphics/SVG/1.1/DTD/svg11.dtd">
<svg version="1.1" id="Layer_1" xmlns="http://www.w3.org/2000/svg" xmlns:xlink="http://www.w3.org/1999/xlink" x="0px" y="0px"
	 viewBox="0 0 50 50" enable-background="new 0 0 50 50" xml:space="preserve">
<g>
	<g>
		<path fill="#808080" d="M39,30.9H11v-4.4h0.5c0.8,0,1.5-0.7,1.5-1.5s-0.7-1.5-1.5-1.5H11v-4.4H39v4.4h-0.5c-0.8,0-1.5,0.7-1.5,1.5
			s0.7,1.5,1.5,1.5H39V30.9z M12,29.9H38v-2.4c-1.1-0.2-2-1.2-2-2.4c0-1.2,0.9-2.2,2-2.4v-2.4H12v2.4c1.1,0.2,2,1.2,2,2.4
			c0,1.2-0.9,2.2-2,2.4V29.9z"/>
		<g>
			<rect x="16.7" y="21.8" fill="#808080" width="1" height="6.5"/>
			<rect x="32.3" y="21.8" fill="#808080" width="1" height="6.5"/>
		</g>
	</g>
</g>
</svg>
