<?xml version="1.0" encoding="utf-8"?>
<!-- Generator: Adobe Illustrator 18.0.0, SVG Export Plug-In . SVG Version: 6.00 Build 0)  -->
<!DOCTYPE svg PUBLIC "-//W3C//DTD SVG 1.1//EN" "http://www.w3.org/Graphics/SVG/1.1/DTD/svg11.dtd">
<svg version="1.1" id="Layer_1" xmlns="http://www.w3.org/2000/svg" xmlns:xlink="http://www.w3.org/1999/xlink" x="0px" y="0px"
	 viewBox="0 0 333 180" enable-background="new 0 0 333 180" xml:space="preserve">
<g>
	<g>
		<path fill="#D75F58" d="M22.6,142.7h-5.8c-0.3,0-0.6-0.3-0.6-0.6c0-0.3,0.3-0.6,0.6-0.6h12.9c0.3,0,0.6,0.3,0.6,0.6
			c0,0.3-0.3,0.6-0.6,0.6h-5.8V159c0,0.4-0.3,0.7-0.7,0.7c-0.4,0-0.7-0.3-0.7-0.7V142.7z"/>
		<path fill="#D75F58" d="M42.2,142.1c0-0.4,0.3-0.7,0.7-0.7c0.4,0,0.7,0.3,0.7,0.7V159c0,0.4-0.3,0.7-0.7,0.7
			c-0.4,0-0.7-0.3-0.7-0.7V142.1z"/>
		<path fill="#D75F58" d="M56.1,150.6L56.1,150.6c0-5.2,3.8-9.4,9-9.4c3,0,4.9,1,6.6,2.5c0.1,0.1,0.3,0.3,0.3,0.5
			c0,0.4-0.3,0.7-0.7,0.7c-0.2,0-0.4-0.1-0.5-0.2c-1.5-1.4-3.2-2.3-5.8-2.3c-4.3,0-7.6,3.5-7.6,8.1v0.1c0,4.6,3.3,8.1,7.6,8.1
			c2.5,0,4.2-0.9,5.9-2.5c0.1-0.1,0.3-0.2,0.5-0.2c0.3,0,0.6,0.3,0.6,0.6c0,0.2-0.1,0.4-0.2,0.5c-1.8,1.7-3.8,2.8-6.8,2.8
			C59.9,159.9,56.1,155.8,56.1,150.6z"/>
		<path fill="#D75F58" d="M83.6,142.1c0-0.4,0.3-0.7,0.7-0.7s0.7,0.3,0.7,0.7v11.3l11.4-11.8c0.1-0.1,0.3-0.2,0.5-0.2
			c0.3,0,0.7,0.3,0.7,0.7c0,0.2-0.1,0.3-0.2,0.5l-6.9,6.9l7.4,9c0.1,0.2,0.2,0.3,0.2,0.5c0,0.4-0.3,0.7-0.7,0.7
			c-0.2,0-0.4-0.1-0.5-0.3l-7.3-9L85,155v4c0,0.4-0.3,0.7-0.7,0.7s-0.7-0.3-0.7-0.7V142.1z"/>
		<path fill="#D75F58" d="M109.8,158.9v-16.7c0-0.4,0.3-0.7,0.7-0.7h11.7c0.3,0,0.6,0.3,0.6,0.6c0,0.3-0.3,0.6-0.6,0.6h-11v7.1h9.8
			c0.3,0,0.6,0.3,0.6,0.6c0,0.3-0.3,0.6-0.6,0.6h-9.8v7.3h11.1c0.3,0,0.6,0.3,0.6,0.6c0,0.3-0.3,0.6-0.6,0.6h-11.8
			C110.2,159.6,109.8,159.3,109.8,158.9z"/>
		<path fill="#D75F58" d="M139.9,142.7h-5.8c-0.3,0-0.6-0.3-0.6-0.6c0-0.3,0.3-0.6,0.6-0.6H147c0.3,0,0.6,0.3,0.6,0.6
			c0,0.3-0.3,0.6-0.6,0.6h-5.8V159c0,0.4-0.3,0.7-0.7,0.7c-0.4,0-0.7-0.3-0.7-0.7V142.7z"/>
		<path fill="#D75F58" d="M174.8,142.1c0-0.4,0.3-0.7,0.7-0.7c0.4,0,0.7,0.3,0.7,0.7v16.3h10.1c0.3,0,0.6,0.3,0.6,0.6
			c0,0.3-0.3,0.6-0.6,0.6h-10.8c-0.4,0-0.7-0.3-0.7-0.7V142.1z"/>
		<path fill="#D75F58" d="M196.7,150.6L196.7,150.6c0-5,3.6-9.4,9.1-9.4c5.5,0,9.1,4.4,9.1,9.3v0.1c0,4.9-3.6,9.3-9.1,9.3
			S196.7,155.5,196.7,150.6z M213.5,150.6L213.5,150.6c0-4.5-3.3-8.2-7.7-8.2s-7.7,3.6-7.7,8.1v0.1c0,4.5,3.3,8.1,7.7,8.1
			C210.3,158.7,213.5,155,213.5,150.6z"/>
		<path fill="#D75F58" d="M232.3,159.2l-7.4-16.8c-0.1-0.1-0.1-0.2-0.1-0.3c0-0.3,0.3-0.6,0.7-0.6c0.3,0,0.6,0.2,0.7,0.5l6.9,16.2
			l6.9-16.2c0.1-0.3,0.4-0.5,0.7-0.5c0.4,0,0.6,0.3,0.6,0.6c0,0.1,0,0.2-0.1,0.3l-7.4,16.9c-0.2,0.4-0.4,0.6-0.8,0.6h-0.1
			C232.7,159.7,232.5,159.5,232.3,159.2z"/>
		<path fill="#D75F58" d="M253.3,158.9v-16.7c0-0.4,0.3-0.7,0.7-0.7h11.7c0.3,0,0.6,0.3,0.6,0.6c0,0.3-0.3,0.6-0.6,0.6h-11v7.1h9.8
			c0.3,0,0.6,0.3,0.6,0.6c0,0.3-0.3,0.6-0.6,0.6h-9.8v7.3h11.1c0.3,0,0.6,0.3,0.6,0.6c0,0.3-0.3,0.6-0.6,0.6h-11.8
			C253.6,159.6,253.3,159.3,253.3,158.9z"/>
		<path fill="#D75F58" d="M278.3,142.2c0-0.4,0.3-0.7,0.7-0.7h6.9c2.2,0,4,0.7,5.1,1.8c0.9,0.9,1.4,2.1,1.4,3.4v0.1
			c0,3-2.2,4.7-5.3,5.2l5.1,6.7c0.1,0.2,0.2,0.3,0.2,0.5c0,0.4-0.3,0.7-0.7,0.7c-0.3,0-0.4-0.2-0.6-0.4l-5.5-7.2h-5.9v6.9
			c0,0.4-0.3,0.7-0.7,0.7c-0.4,0-0.7-0.3-0.7-0.7V142.2z M285.7,150.9c3,0,5.3-1.5,5.3-4.1v-0.1c0-2.4-1.9-3.9-5.2-3.9h-6.2v8.1
			H285.7z"/>
		<path fill="#D75F58" d="M304,157.3c-0.1-0.1-0.3-0.3-0.3-0.5c0-0.4,0.3-0.7,0.7-0.7c0.2,0,0.3,0.1,0.4,0.2
			c1.8,1.6,3.6,2.3,6.1,2.3c2.7,0,4.6-1.5,4.6-3.6V155c0-1.9-1-3-5.1-3.8c-4.3-0.9-6.1-2.3-6.1-5.1V146c0-2.7,2.5-4.7,5.8-4.7
			c2.4,0,4.1,0.6,5.8,1.9c0.1,0.1,0.3,0.3,0.3,0.5c0,0.4-0.3,0.7-0.7,0.7c-0.2,0-0.3-0.1-0.4-0.2c-1.6-1.2-3.1-1.7-5-1.7
			c-2.7,0-4.4,1.5-4.4,3.4v0.1c0,1.9,1,3.1,5.3,3.9c4.2,0.9,5.9,2.3,5.9,5v0.1c0,2.9-2.5,4.9-6,4.9C308.1,159.8,306,159,304,157.3z"
			/>
	</g>
	<g>
		<path fill="#F5C333" d="M244.4,88.2c0-5.2,4.2-9.3,9.3-9.3V50.5H79.2v28.3c5.2,0,9.3,4.2,9.3,9.3c0,5.2-4.2,9.3-9.3,9.3v28.3
			h174.5V97.5C248.6,97.5,244.4,93.3,244.4,88.2z"/>
		<g>
			<g>
				<path fill="#D75F58" d="M191,67.8L191,67.8c-6-6-15.7-6-21.7,0l-2.8,2.8l-2.8-2.8c-6-6-15.7-6-21.7,0v0c-6,6-6,15.7,0,21.7
					l2.8,2.8l21.7,21.7l21.7-21.7l2.8-2.8C197,83.6,197,73.8,191,67.8z"/>
				<path fill="#FFFFFF" d="M180.1,63.3c3.9,0,7.9,1.5,10.9,4.5v0c6,6,6,15.7,0,21.7l-2.8,2.8L166.5,114l-21.7-21.7l-2.8-2.8
					c-6-6-6-15.7,0-21.7v0c3-3,6.9-4.5,10.9-4.5s7.9,1.5,10.9,4.5l2.8,2.8l2.8-2.8C172.3,64.8,176.2,63.3,180.1,63.3 M180.1,60.3
					c-4.9,0-9.5,1.9-13,5.4l-0.7,0.7l-0.7-0.7c-3.5-3.5-8.1-5.4-13-5.4c-4.9,0-9.5,1.9-13,5.4c-7.2,7.2-7.2,18.8,0,25.9l2.8,2.8
					l21.7,21.7l2.1,2.1l2.1-2.1l21.7-21.7l2.8-2.8c3.5-3.5,5.4-8.1,5.4-13c0-4.9-1.9-9.5-5.4-13C189.6,62.3,185,60.3,180.1,60.3
					L180.1,60.3z"/>
			</g>
			<g>
				<line fill="#D75F58" x1="231.9" y1="59.3" x2="231.9" y2="117.1"/>
				<rect x="230.9" y="59.3" fill="#FFFFFF" width="2" height="57.8"/>
			</g>
			<g>
				<line fill="#D75F58" x1="101.1" y1="59.3" x2="101.1" y2="117.1"/>
				<rect x="100.1" y="59.3" fill="#FFFFFF" width="2" height="57.8"/>
			</g>
		</g>
	</g>
	<g>
		<g>
			<path fill="#106580" d="M93.8,21.2c-0.1-0.1-0.1-0.2-0.1-0.3c0-0.4,0.3-0.7,0.7-0.7c0.4,0,0.6,0.3,0.7,0.6l5.5,15.6l5.1-15.7
				c0.1-0.3,0.3-0.5,0.6-0.5h0.1c0.3,0,0.5,0.2,0.6,0.5l5.1,15.7l5.5-15.6c0.1-0.3,0.3-0.5,0.6-0.5c0.3,0,0.7,0.3,0.7,0.7
				c0,0.1-0.1,0.2-0.1,0.4L113,38c-0.1,0.3-0.3,0.6-0.7,0.6h-0.1c-0.4,0-0.6-0.3-0.7-0.6l-5.1-15.2L101.3,38
				c-0.1,0.3-0.3,0.6-0.7,0.6h-0.1c-0.4,0-0.6-0.2-0.7-0.6L93.8,21.2z"/>
			<path fill="#106580" d="M131.1,37.7V21c0-0.4,0.3-0.7,0.7-0.7h11.7c0.3,0,0.6,0.3,0.6,0.6c0,0.3-0.3,0.6-0.6,0.6h-11v7.1h9.8
				c0.3,0,0.6,0.3,0.6,0.6c0,0.3-0.3,0.6-0.6,0.6h-9.8v7.3h11.1c0.3,0,0.6,0.3,0.6,0.6c0,0.3-0.3,0.6-0.6,0.6h-11.8
				C131.4,38.4,131.1,38.1,131.1,37.7z"/>
			<path fill="#106580" d="M170.5,37.5l7.7-16.7c0.2-0.4,0.4-0.6,0.9-0.6h0.1c0.5,0,0.7,0.3,0.9,0.6l7.7,16.7
				c0.1,0.2,0.1,0.3,0.1,0.4c0,0.3-0.3,0.6-0.6,0.6c-0.3,0-0.5-0.2-0.7-0.5l-2.1-4.6h-10.7l-2.1,4.7c-0.1,0.3-0.3,0.5-0.6,0.5
				c-0.3,0-0.6-0.3-0.6-0.6C170.4,37.8,170.4,37.6,170.5,37.5z M183.8,32.1l-4.7-10.5l-4.8,10.5H183.8z"/>
			<path fill="#106580" d="M199.7,21c0-0.4,0.3-0.7,0.7-0.7h6.9c2.2,0,4,0.7,5.1,1.8c0.9,0.9,1.4,2.1,1.4,3.4v0.1
				c0,3-2.2,4.7-5.3,5.2l5.1,6.7c0.1,0.2,0.2,0.3,0.2,0.5c0,0.4-0.3,0.7-0.7,0.7c-0.3,0-0.4-0.2-0.6-0.4l-5.5-7.2h-5.9v6.9
				c0,0.4-0.3,0.7-0.7,0.7s-0.7-0.3-0.7-0.7V21z M207.2,29.7c3,0,5.3-1.5,5.3-4.1v-0.1c0-2.4-1.9-3.9-5.2-3.9h-6.2v8.1H207.2z"/>
			<path fill="#106580" d="M226.1,37.7V21c0-0.4,0.3-0.7,0.7-0.7h11.7c0.3,0,0.6,0.3,0.6,0.6c0,0.3-0.3,0.6-0.6,0.6h-11v7.1h9.8
				c0.3,0,0.6,0.3,0.6,0.6c0,0.3-0.3,0.6-0.6,0.6h-9.8v7.3h11.1c0.3,0,0.6,0.3,0.6,0.6c0,0.3-0.3,0.6-0.6,0.6h-11.8
				C226.4,38.4,226.1,38.1,226.1,37.7z"/>
		</g>
	</g>
</g>
</svg>
