<?xml version="1.0" encoding="utf-8"?>
<!-- Generator: Adobe Illustrator 18.0.0, SVG Export Plug-In . SVG Version: 6.00 Build 0)  -->
<!DOCTYPE svg PUBLIC "-//W3C//DTD SVG 1.1//EN" "http://www.w3.org/Graphics/SVG/1.1/DTD/svg11.dtd">
<svg version="1.1" id="Layer_1" xmlns="http://www.w3.org/2000/svg" xmlns:xlink="http://www.w3.org/1999/xlink" x="0px" y="0px"
	 viewBox="0 0 50 50" enable-background="new 0 0 50 50" xml:space="preserve">
<g>
	<g>
		<path fill="#808080" d="M25,26.3c-3,0-5.4-2.4-5.4-5.4c0-3,2.4-5.4,5.4-5.4s5.4,2.4,5.4,5.4C30.3,23.9,27.9,26.3,25,26.3z
			 M25,16.6c-2.4,0-4.4,2-4.4,4.4c0,2.4,2,4.4,4.4,4.4c2.4,0,4.4-2,4.4-4.4C29.3,18.6,27.4,16.6,25,16.6z"/>
		<path fill="#808080" d="M33.7,34.4h-1c0-3.3-2.7-6.1-6.1-6.1h-3.3c-3.3,0-6.1,2.7-6.1,6.1h-1c0-3.9,3.2-7.1,7.1-7.1h3.3
			C30.5,27.3,33.7,30.5,33.7,34.4z"/>
	</g>
</g>
</svg>
